<svg xmlns="http://www.w3.org/2000/svg" xmlns:xlink="http://www.w3.org/1999/xlink" width="545" zoomAndPan="magnify" viewBox="0 0 408.75 177.000001" height="236" preserveAspectRatio="xMidYMid meet" version="1.0"><defs><g/><clipPath id="339e5c82b1"><path d="M 79.445312 12.074219 L 166.71875 12.074219 L 166.71875 58 L 79.445312 58 Z M 79.445312 12.074219 " clip-rule="nonzero"/></clipPath><clipPath id="dac37f53c8"><path d="M 109 114 L 138 114 L 138 118.148438 L 109 118.148438 Z M 109 114 " clip-rule="nonzero"/></clipPath><clipPath id="8bb4296211"><path d="M 79.445312 15 L 113 15 L 113 55 L 79.445312 55 Z M 79.445312 15 " clip-rule="nonzero"/></clipPath></defs><g fill="#ef4444" fill-opacity="1"><g transform="translate(114.814296, 125.371177)"><g><path d="M 47.96875 -2.921875 L 54.15625 -2.921875 C 54.601562 -2.921875 54.828125 -2.640625 54.828125 -2.078125 L 54.828125 -0.90625 C 54.828125 -0.300781 54.601562 0 54.15625 0 L 45.9375 0 C 45.332031 0 45.03125 -0.300781 45.03125 -0.90625 L 45.03125 -22.125 L 38.21875 -22.125 C 36.125 -22.125 34.484375 -21.503906 33.296875 -20.265625 C 32.117188 -19.023438 31.53125 -17.300781 31.53125 -15.09375 L 31.53125 2.921875 C 31.53125 5.773438 30.691406 8.007812 29.015625 9.625 C 27.347656 11.238281 24.84375 12.046875 21.5 12.046875 L 15.53125 12.046875 C 11.9375 12.046875 9.191406 10.992188 7.296875 8.890625 C 5.398438 6.796875 4.453125 4.113281 4.453125 0.84375 C 4.453125 -1.144531 4.78125 -3.046875 5.4375 -4.859375 C 6.09375 -6.679688 6.945312 -8.289062 8 -9.6875 C 8.289062 -10.175781 8.679688 -10.269531 9.171875 -9.96875 L 10.078125 -9.34375 C 10.566406 -9.039062 10.640625 -8.644531 10.296875 -8.15625 C 9.398438 -6.769531 8.695312 -5.34375 8.1875 -3.875 C 7.6875 -2.414062 7.4375 -0.957031 7.4375 0.5 C 7.4375 3.238281 8.15625 5.359375 9.59375 6.859375 C 11.039062 8.367188 13.019531 9.125 15.53125 9.125 L 21.5625 9.125 C 23.78125 9.125 25.503906 8.585938 26.734375 7.515625 C 27.972656 6.441406 28.59375 4.929688 28.59375 2.984375 L 28.59375 -15.03125 C 28.59375 -18.144531 29.398438 -20.59375 31.015625 -22.375 C 32.628906 -24.15625 35.03125 -25.046875 38.21875 -25.046875 L 47.125 -25.046875 C 47.6875 -25.046875 47.96875 -24.75 47.96875 -24.15625 Z M 13.34375 17.109375 L 15.03125 17.109375 C 15.476562 17.109375 15.703125 17.335938 15.703125 17.796875 L 15.703125 20.9375 C 15.703125 21.394531 15.476562 21.625 15.03125 21.625 L 13.34375 21.625 C 12.894531 21.625 12.671875 21.394531 12.671875 20.9375 L 12.671875 17.796875 C 12.671875 17.335938 12.894531 17.109375 13.34375 17.109375 Z M 20.9375 17.109375 L 22.6875 17.109375 C 23.132812 17.109375 23.359375 17.335938 23.359375 17.796875 L 23.359375 20.9375 C 23.359375 21.394531 23.132812 21.625 22.6875 21.625 L 20.9375 21.625 C 20.488281 21.625 20.265625 21.394531 20.265625 20.9375 L 20.265625 17.796875 C 20.265625 17.335938 20.488281 17.109375 20.9375 17.109375 Z M 20.9375 17.109375 "/></g></g></g><g fill="#ef4444" fill-opacity="1"><g transform="translate(168.959116, 125.371177)"><g><path d="M 20.9375 -2.921875 L 28.59375 -2.921875 C 29.050781 -2.921875 29.28125 -2.695312 29.28125 -2.25 L 29.28125 -0.671875 C 29.28125 -0.222656 29.050781 0 28.59375 0 L 0 0 C -0.445312 0 -0.671875 -0.222656 -0.671875 -0.671875 L -0.671875 -2.25 C -0.671875 -2.695312 -0.445312 -2.921875 0 -2.921875 L 7.65625 -2.921875 L 2.53125 -16.21875 C 2.53125 -19.03125 3.335938 -21.296875 4.953125 -23.015625 C 6.566406 -24.742188 8.816406 -25.609375 11.703125 -25.609375 L 16.828125 -25.609375 C 19.722656 -25.609375 21.976562 -24.734375 23.59375 -22.984375 C 25.207031 -21.242188 26.015625 -18.988281 26.015625 -16.21875 Z M 5.578125 -16.046875 L 10.421875 -2.921875 L 18.234375 -2.921875 L 23.03125 -16.046875 C 22.914062 -18.148438 22.285156 -19.78125 21.140625 -20.9375 C 19.992188 -22.101562 18.390625 -22.6875 16.328125 -22.6875 L 12.390625 -22.6875 C 10.285156 -22.6875 8.640625 -22.101562 7.453125 -20.9375 C 6.273438 -19.78125 5.648438 -18.148438 5.578125 -16.046875 Z M 5.578125 -16.046875 "/></g></g></g><g fill="#ef4444" fill-opacity="1"><g transform="translate(197.551179, 125.371177)"><g><path d="M 4.046875 0 L 0 0 C -0.445312 0 -0.671875 -0.222656 -0.671875 -0.671875 L -0.671875 -2.25 C -0.671875 -2.695312 -0.445312 -2.921875 0 -2.921875 L 4.109375 -2.921875 C 8.273438 -2.921875 10.359375 -4.835938 10.359375 -8.671875 L 10.359375 -24.15625 C 10.359375 -24.75 10.617188 -25.046875 11.140625 -25.046875 L 12.4375 -25.046875 C 13 -25.046875 13.28125 -24.75 13.28125 -24.15625 L 13.28125 -8.71875 C 13.28125 -5.875 12.554688 -3.707031 11.109375 -2.21875 C 9.671875 -0.738281 7.316406 0 4.046875 0 Z M 3.65625 9.453125 L 1.96875 9.453125 C 1.519531 9.453125 1.296875 9.226562 1.296875 8.78125 L 1.296875 5.625 C 1.296875 5.175781 1.519531 4.953125 1.96875 4.953125 L 3.65625 4.953125 C 4.101562 4.953125 4.328125 5.175781 4.328125 5.625 L 4.328125 8.78125 C 4.328125 9.226562 4.101562 9.453125 3.65625 9.453125 Z M 11.3125 9.453125 L 9.578125 9.453125 C 9.117188 9.453125 8.890625 9.226562 8.890625 8.78125 L 8.890625 5.625 C 8.890625 5.175781 9.117188 4.953125 9.578125 4.953125 L 11.3125 4.953125 C 11.757812 4.953125 11.984375 5.175781 11.984375 5.625 L 11.984375 8.78125 C 11.984375 9.226562 11.757812 9.453125 11.3125 9.453125 Z M 11.3125 9.453125 "/></g></g></g><g fill="#ef4444" fill-opacity="1"><g transform="translate(215.899637, 125.371177)"><g><path d="M 3.328125 -38 L 3.328125 -39.1875 C 3.328125 -39.78125 3.609375 -40.078125 4.171875 -40.078125 L 9 -40.078125 C 9.570312 -40.078125 9.859375 -39.78125 9.859375 -39.1875 L 9.859375 -9.28125 C 9.859375 -7.03125 10.34375 -5.40625 11.3125 -4.40625 C 12.289062 -3.414062 13.832031 -2.921875 15.9375 -2.921875 L 17.625 -2.921875 C 18.070312 -2.921875 18.296875 -2.695312 18.296875 -2.25 L 18.296875 -0.671875 C 18.296875 -0.222656 18.070312 0 17.625 0 L 15.53125 0 C 9.789062 0 6.921875 -3.09375 6.921875 -9.28125 L 6.921875 -37.15625 L 4.171875 -37.15625 C 3.609375 -37.15625 3.328125 -37.4375 3.328125 -38 Z M 3.328125 -38 "/></g></g></g><g fill="#ef4444" fill-opacity="1"><g transform="translate(233.516407, 125.371177)"><g><path d="M 10.921875 -30.0625 L 9.171875 -30.0625 C 8.679688 -30.0625 8.4375 -30.285156 8.4375 -30.734375 L 8.4375 -34 C 8.4375 -34.414062 8.679688 -34.625 9.171875 -34.625 L 10.921875 -34.625 C 11.367188 -34.625 11.59375 -34.414062 11.59375 -34 L 11.59375 -30.734375 C 11.59375 -30.285156 11.367188 -30.0625 10.921875 -30.0625 Z M 17.734375 -2.921875 L 18.921875 -2.921875 C 19.367188 -2.921875 19.59375 -2.695312 19.59375 -2.25 L 19.59375 -0.671875 C 19.59375 -0.222656 19.367188 0 18.921875 0 L 17.671875 0 C 15.722656 0 14.164062 -0.304688 13 -0.921875 C 11.84375 -1.546875 10.960938 -2.476562 10.359375 -3.71875 C 9.078125 -1.238281 6.375 0 2.25 0 L 0 0 C -0.445312 0 -0.671875 -0.222656 -0.671875 -0.671875 L -0.671875 -2.25 C -0.671875 -2.695312 -0.445312 -2.921875 0 -2.921875 L 2.25 -2.921875 C 4.382812 -2.921875 5.957031 -3.390625 6.96875 -4.328125 C 7.988281 -5.273438 8.5 -6.722656 8.5 -8.671875 L 8.5 -24.15625 C 8.5 -24.75 8.78125 -25.046875 9.34375 -25.046875 L 10.578125 -25.046875 C 11.140625 -25.046875 11.421875 -24.75 11.421875 -24.15625 L 11.421875 -10.078125 C 11.421875 -7.566406 11.914062 -5.742188 12.90625 -4.609375 C 13.90625 -3.484375 15.515625 -2.921875 17.734375 -2.921875 Z M 17.734375 -2.921875 "/></g></g></g><g fill="#ef4444" fill-opacity="1"><g transform="translate(252.427698, 125.371177)"><g><path d="M 17.28125 -25.21875 L 27.359375 -25.21875 C 30.359375 -25.21875 32.664062 -24.378906 34.28125 -22.703125 C 35.894531 -21.035156 36.703125 -18.757812 36.703125 -15.875 L 36.703125 -9.859375 C 36.703125 -6.773438 35.921875 -4.359375 34.359375 -2.609375 C 32.804688 -0.867188 30.472656 0 27.359375 0 L 0 0 C -0.445312 0 -0.671875 -0.300781 -0.671875 -0.90625 L -0.671875 -2.078125 C -0.671875 -2.640625 -0.445312 -2.921875 0 -2.921875 L 6.53125 -2.921875 L 6.53125 -24.3125 C 6.53125 -24.914062 6.8125 -25.21875 7.375 -25.21875 L 8.21875 -25.21875 C 8.78125 -25.21875 9.0625 -24.914062 9.0625 -24.3125 L 9.0625 -21.5 C 10.039062 -22.625 11.222656 -23.523438 12.609375 -24.203125 C 13.992188 -24.878906 15.550781 -25.21875 17.28125 -25.21875 Z M 33.78125 -9.796875 L 33.78125 -15.875 C 33.78125 -17.863281 33.207031 -19.421875 32.0625 -20.546875 C 30.914062 -21.671875 29.367188 -22.234375 27.421875 -22.234375 L 17 -22.234375 C 14.820312 -22.234375 13.019531 -21.660156 11.59375 -20.515625 C 10.164062 -19.367188 9.453125 -17.632812 9.453125 -15.3125 L 9.453125 -2.921875 L 27.421875 -2.921875 C 29.410156 -2.921875 30.96875 -3.507812 32.09375 -4.6875 C 33.21875 -5.875 33.78125 -7.578125 33.78125 -9.796875 Z M 33.78125 -9.796875 "/></g></g></g><path fill="#800000" d="M 123.523438 54.175781 L 127.027344 57.078125 C 124.546875 57.128906 122.171875 57.15625 119.898438 57.167969 Z M 123.523438 54.175781 " fill-opacity="1" fill-rule="nonzero"/><path fill="#525252" d="M 157.75 58.199219 C 150.316406 58.777344 143.0625 59.195312 136.128906 59.472656 L 139.195312 62.007812 L 145.355469 67.121094 L 149.214844 70.316406 L 143.011719 70.316406 L 139.152344 67.121094 L 133.265625 62.242188 L 127.027344 57.078125 L 123.523438 54.175781 L 119.898438 57.167969 L 113.445312 62.488281 L 107.824219 67.121094 L 103.949219 70.316406 L 97.585938 70.316406 L 101.460938 67.121094 L 107.167969 62.410156 L 107.167969 59.703125 L 107.097656 59.703125 C 100.269531 59.507812 94.011719 59.132812 88.472656 58.609375 C 88.472656 58.957031 88.464844 59.304688 88.464844 59.648438 C 88.464844 60.191406 88.472656 60.726562 88.5 61.261719 C 88.589844 63.265625 88.855469 65.222656 89.273438 67.121094 C 89.28125 67.191406 89.300781 67.253906 89.316406 67.316406 C 89.539062 68.339844 89.816406 69.34375 90.136719 70.332031 C 91.355469 74.125 93.21875 77.625 95.578125 80.714844 L 95.621094 80.765625 C 96.171875 81.488281 96.742188 82.171875 97.34375 82.839844 L 120.964844 111.300781 C 122.085938 112.648438 124.15625 112.648438 125.277344 111.300781 L 149.152344 82.539062 C 149.542969 82.09375 149.917969 81.640625 150.28125 81.175781 L 150.664062 80.714844 L 150.644531 80.714844 C 152.316406 78.523438 153.757812 76.136719 154.878906 73.574219 C 155.785156 71.515625 156.484375 69.363281 156.976562 67.121094 C 157.429688 65.097656 157.695312 62.996094 157.765625 60.859375 C 157.765625 60.460938 157.785156 60.050781 157.785156 59.648438 C 157.785156 59.160156 157.773438 58.679688 157.75 58.199219 Z M 124.296875 64.894531 L 128.554688 64.894531 L 128.554688 69.335938 L 124.296875 69.335938 Z M 128.636719 71.160156 L 128.636719 75.601562 L 124.378906 75.601562 L 124.378906 71.160156 Z M 118.074219 64.894531 L 122.332031 64.894531 L 122.332031 69.335938 L 118.074219 69.335938 Z M 122.421875 71.160156 L 122.421875 75.601562 L 118.15625 75.601562 L 118.15625 71.160156 Z M 142.414062 77.640625 L 138.503906 77.640625 C 138.324219 78.320312 138.148438 78.960938 137.960938 79.671875 C 138.023438 79.707031 138.078125 79.742188 138.136719 79.777344 C 139.207031 80.402344 140.296875 81.042969 141.382812 81.683594 C 141.125 82.128906 140.875 82.566406 140.644531 82.992188 C 140.386719 83.4375 140.136719 83.875 139.890625 84.308594 C 139.410156 85.148438 138.921875 85.976562 138.421875 86.828125 C 137.265625 86.160156 136.136719 85.503906 135.007812 84.851562 C 134.519531 85.351562 134.050781 85.839844 133.535156 86.375 C 133.703125 86.660156 133.863281 86.953125 134.03125 87.246094 C 134.503906 88.066406 134.992188 88.914062 135.488281 89.777344 C 135.195312 89.945312 134.910156 90.105469 134.628906 90.273438 C 133.195312 91.101562 131.78125 91.921875 130.34375 92.757812 C 129.683594 91.621094 129.027344 90.480469 128.359375 89.324219 C 127.710938 89.492188 127.082031 89.652344 126.40625 89.828125 C 126.308594 90.335938 126.34375 90.863281 126.351562 91.398438 C 126.359375 91.511719 126.359375 91.636719 126.359375 91.753906 C 126.34375 92.410156 126.351562 93.070312 126.351562 93.71875 C 126.308594 93.730469 126.234375 93.746094 126.128906 93.753906 C 125.082031 93.863281 121.125 93.878906 120.367188 93.765625 L 120.367188 89.855469 C 119.738281 89.6875 119.097656 89.519531 118.378906 89.332031 C 117.65625 90.417969 117.078125 91.621094 116.34375 92.742188 C 114.804688 91.851562 113.292969 90.976562 111.738281 90.089844 C 111.558594 89.980469 111.382812 89.882812 111.203125 89.777344 C 111.628906 89.027344 112.066406 88.28125 112.484375 87.558594 C 112.714844 87.160156 112.9375 86.765625 113.160156 86.382812 C 112.652344 85.894531 112.183594 85.441406 111.621094 84.90625 C 110.609375 85.496094 109.460938 86.152344 108.269531 86.828125 C 107.496094 85.476562 106.722656 84.140625 105.941406 82.789062 C 105.726562 82.414062 105.515625 82.050781 105.300781 81.675781 C 106.289062 81.105469 107.222656 80.5625 108.171875 80 C 108.359375 79.894531 108.535156 79.789062 108.722656 79.679688 C 108.554688 79.003906 108.386719 78.363281 108.199219 77.640625 C 106.910156 77.617188 105.613281 77.605469 104.269531 77.640625 L 104.269531 74.800781 C 104.695312 74.6875 112.539062 74.640625 113.675781 74.757812 C 113.800781 77.875 115.035156 80.472656 117.542969 82.386719 C 119.433594 83.839844 121.632812 84.496094 124.003906 84.328125 C 128.074219 84.035156 131.808594 81.167969 132.769531 76.726562 C 132.796875 76.617188 132.824219 76.511719 132.839844 76.40625 C 132.929688 75.886719 132.992188 75.355469 133.007812 74.800781 C 133.453125 74.6875 141.410156 74.640625 142.414062 74.765625 Z M 142.414062 77.640625 " fill-opacity="1" fill-rule="nonzero"/><g clip-path="url(#339e5c82b1)"><path fill="#ef4444" d="M 166.71875 52.652344 L 166.71875 54.761719 C 163.570312 55.046875 160.511719 55.304688 157.542969 55.539062 C 148.574219 56.230469 140.414062 56.667969 133.035156 56.90625 L 123.460938 48.976562 L 113.550781 57.148438 C 112.894531 57.148438 112.242188 57.140625 111.605469 57.121094 L 111.605469 52.3125 L 107.167969 52.3125 L 107.167969 57.03125 C 99.292969 56.808594 93.140625 56.375 88.660156 55.9375 C 85.871094 55.671875 83.734375 55.402344 82.222656 55.191406 C 80.421875 54.941406 79.523438 54.761719 79.523438 54.761719 L 79.523438 52.652344 C 79.523438 49.054688 82.4375 46.136719 86.027344 46.136719 C 87.648438 31.890625 97.265625 20.085938 110.28125 15.316406 C 110.894531 15.09375 111.578125 15.367188 111.886719 15.949219 L 112.492188 17.121094 L 116.796875 25.519531 L 119.054688 29.925781 L 118.980469 25.1875 L 118.820312 14.550781 C 118.820312 13.578125 119.453125 12.726562 120.386719 12.457031 C 121.152344 12.234375 122.085938 12.074219 123.160156 12.074219 C 124.207031 12.074219 125.125 12.242188 125.871094 12.457031 C 126.804688 12.726562 127.425781 13.578125 127.425781 14.550781 L 127.425781 29.683594 L 129.535156 25.535156 L 134.371094 15.984375 C 134.671875 15.386719 135.363281 15.101562 135.988281 15.324219 C 148.992188 20.105469 158.601562 31.902344 160.21875 46.136719 C 163.8125 46.136719 166.71875 49.054688 166.71875 52.652344 Z M 166.71875 52.652344 " fill-opacity="1" fill-rule="nonzero"/><path fill="#ef4444" d="M 166.71875 52.652344 L 166.71875 54.761719 C 163.570312 55.046875 160.511719 55.304688 157.542969 55.539062 C 148.574219 56.230469 140.414062 56.667969 133.035156 56.90625 L 123.460938 48.976562 L 113.550781 57.148438 C 112.894531 57.148438 112.242188 57.140625 111.605469 57.121094 L 111.605469 52.3125 L 107.167969 52.3125 L 107.167969 57.03125 C 99.292969 56.808594 93.140625 56.375 88.660156 55.9375 C 85.871094 55.671875 83.734375 55.402344 82.222656 55.191406 C 80.421875 54.941406 79.523438 54.761719 79.523438 54.761719 L 79.523438 52.652344 C 79.523438 49.054688 82.4375 46.136719 86.027344 46.136719 C 87.648438 31.890625 97.265625 20.085938 110.28125 15.316406 C 110.894531 15.09375 111.578125 15.367188 111.886719 15.949219 L 112.492188 17.121094 L 116.796875 25.519531 L 119.054688 29.925781 L 118.980469 25.1875 L 118.820312 14.550781 C 118.820312 13.578125 119.453125 12.726562 120.386719 12.457031 C 121.152344 12.234375 122.085938 12.074219 123.160156 12.074219 C 124.207031 12.074219 125.125 12.242188 125.871094 12.457031 C 126.804688 12.726562 127.425781 13.578125 127.425781 14.550781 L 127.425781 29.683594 L 129.535156 25.535156 L 134.371094 15.984375 C 134.671875 15.386719 135.363281 15.101562 135.988281 15.324219 C 148.992188 20.105469 158.601562 31.902344 160.21875 46.136719 C 163.8125 46.136719 166.71875 49.054688 166.71875 52.652344 Z M 166.71875 52.652344 " fill-opacity="1" fill-rule="nonzero"/></g><path fill="#000000" d="M 107.097656 59.703125 L 107.167969 59.703125 L 107.167969 62.375 C 99.292969 62.152344 93.140625 61.714844 88.660156 61.277344 C 88.605469 61.277344 88.554688 61.277344 88.5 61.261719 C 88.472656 60.726562 88.464844 60.191406 88.464844 59.648438 C 88.464844 59.304688 88.472656 58.957031 88.472656 58.609375 C 94.011719 59.132812 100.269531 59.507812 107.097656 59.703125 Z M 107.097656 59.703125 " fill-opacity="1" fill-rule="nonzero"/><path fill="#000000" d="M 157.785156 59.648438 C 157.785156 60.050781 157.773438 60.460938 157.765625 60.859375 C 157.695312 60.871094 157.613281 60.871094 157.542969 60.878906 C 151 61.386719 144.886719 61.75 139.195312 62.007812 L 136.128906 59.472656 C 143.0625 59.195312 150.316406 58.777344 157.75 58.199219 C 157.773438 58.679688 157.785156 59.160156 157.785156 59.648438 Z M 157.785156 59.648438 " fill-opacity="1" fill-rule="nonzero"/><g clip-path="url(#dac37f53c8)"><path fill="#ef4444" d="M 137.347656 116.269531 C 137.347656 117.304688 131.082031 118.148438 123.347656 118.148438 C 115.613281 118.148438 109.335938 117.304688 109.335938 116.269531 C 109.335938 115.921875 110.023438 115.601562 111.230469 115.328125 C 113.65625 114.757812 118.171875 114.382812 123.347656 114.382812 C 128.519531 114.382812 133.035156 114.765625 135.453125 115.328125 C 136.664062 115.601562 137.347656 115.921875 137.347656 116.269531 Z M 137.347656 116.269531 " fill-opacity="1" fill-rule="nonzero"/></g><path fill="#bf0000" d="M 135.453125 115.328125 C 133.035156 115.894531 128.511719 116.269531 123.347656 116.269531 C 118.183594 116.269531 113.65625 115.886719 111.230469 115.328125 C 113.65625 114.757812 118.171875 114.382812 123.347656 114.382812 C 128.519531 114.382812 133.035156 114.765625 135.453125 115.328125 Z M 135.453125 115.328125 " fill-opacity="1" fill-rule="nonzero"/><path fill="#000000" d="M 108.722656 79.679688 C 108.535156 79.789062 108.359375 79.894531 108.171875 80 C 108.109375 79.761719 108.046875 79.511719 107.984375 79.253906 C 106.6875 79.226562 105.390625 79.21875 104.046875 79.253906 L 104.046875 76.414062 C 104.046875 76.414062 104.15625 76.394531 104.269531 76.386719 L 104.269531 77.640625 C 105.613281 77.605469 106.910156 77.617188 108.199219 77.640625 C 108.386719 78.363281 108.554688 79.003906 108.722656 79.679688 Z M 108.722656 79.679688 " fill-opacity="1" fill-rule="nonzero"/><path fill="#000000" d="M 113.160156 86.382812 C 112.9375 86.765625 112.714844 87.160156 112.484375 87.558594 C 112.136719 87.222656 111.789062 86.890625 111.398438 86.519531 C 110.394531 87.097656 109.238281 87.765625 108.058594 88.441406 C 107.0625 86.722656 106.082031 85.023438 105.078125 83.285156 C 105.371094 83.117188 105.65625 82.949219 105.941406 82.789062 C 106.722656 84.140625 107.496094 85.476562 108.269531 86.828125 C 109.460938 86.152344 110.609375 85.496094 111.621094 84.90625 C 112.183594 85.441406 112.652344 85.894531 113.160156 86.382812 Z M 113.160156 86.382812 " fill-opacity="1" fill-rule="nonzero"/><path fill="#000000" d="M 126.136719 95.332031 C 125.675781 95.472656 120.972656 95.5 120.148438 95.375 L 120.148438 91.46875 C 119.523438 91.296875 118.875 91.128906 118.15625 90.933594 C 117.433594 92.027344 116.859375 93.230469 116.121094 94.351562 C 114.414062 93.363281 112.722656 92.394531 110.980469 91.386719 C 111.238281 90.953125 111.488281 90.515625 111.738281 90.089844 C 113.292969 90.976562 114.804688 91.851562 116.34375 92.742188 C 117.078125 91.621094 117.65625 90.417969 118.378906 89.332031 C 119.097656 89.519531 119.738281 89.6875 120.367188 89.855469 L 120.367188 93.765625 C 121.125 93.878906 125.082031 93.863281 126.128906 93.753906 C 126.128906 94.28125 126.136719 94.804688 126.136719 95.332031 Z M 126.136719 95.332031 " fill-opacity="1" fill-rule="nonzero"/><path fill="#000000" d="M 132.839844 76.40625 C 132.824219 76.511719 132.796875 76.617188 132.769531 76.726562 C 132.777344 76.617188 132.789062 76.519531 132.789062 76.414062 C 132.796875 76.414062 132.8125 76.414062 132.839844 76.414062 Z M 132.839844 76.40625 " fill-opacity="1" fill-rule="nonzero"/><path fill="#000000" d="M 135.265625 91.386719 C 133.542969 92.386719 131.855469 93.363281 130.121094 94.371094 C 129.460938 93.230469 128.804688 92.089844 128.136719 90.933594 C 127.542969 91.085938 126.964844 91.238281 126.351562 91.398438 C 126.34375 90.863281 126.308594 90.335938 126.40625 89.828125 C 127.082031 89.652344 127.710938 89.492188 128.359375 89.324219 C 129.027344 90.480469 129.683594 91.621094 130.34375 92.757812 C 131.78125 91.921875 133.195312 91.101562 134.628906 90.273438 C 134.839844 90.640625 135.054688 91.015625 135.265625 91.386719 Z M 135.265625 91.386719 " fill-opacity="1" fill-rule="nonzero"/><path fill="#000000" d="M 141.160156 83.296875 C 140.644531 84.210938 140.15625 85.066406 139.667969 85.921875 C 139.1875 86.757812 138.699219 87.585938 138.199219 88.441406 C 137.046875 87.773438 135.917969 87.113281 134.789062 86.464844 C 134.53125 86.722656 134.28125 86.980469 134.03125 87.246094 C 133.863281 86.953125 133.703125 86.660156 133.535156 86.375 C 134.050781 85.839844 134.519531 85.351562 135.007812 84.851562 C 136.136719 85.503906 137.265625 86.160156 138.421875 86.828125 C 138.921875 85.976562 139.410156 85.148438 139.890625 84.308594 C 140.136719 83.875 140.386719 83.4375 140.644531 82.992188 C 140.8125 83.089844 140.992188 83.199219 141.160156 83.296875 Z M 141.160156 83.296875 " fill-opacity="1" fill-rule="nonzero"/><path fill="#000000" d="M 142.199219 77.640625 L 142.199219 79.253906 L 138.28125 79.253906 C 138.238281 79.429688 138.183594 79.609375 138.136719 79.777344 C 138.078125 79.742188 138.023438 79.707031 137.960938 79.671875 C 138.148438 78.960938 138.324219 78.320312 138.503906 77.640625 Z M 142.199219 77.640625 " fill-opacity="1" fill-rule="nonzero"/><g clip-path="url(#8bb4296211)"><path fill="#bf0000" d="M 108.589844 48.140625 C 107.007812 48.246094 90.304688 49.3125 84.570312 48.585938 C 78.554688 47.828125 80.785156 54.957031 80.785156 54.957031 C 78.980469 54.710938 79.523438 54.761719 79.523438 54.761719 L 79.523438 52.652344 C 79.523438 49.054688 82.4375 46.136719 86.027344 46.136719 C 87.648438 31.890625 97.265625 20.085938 110.28125 15.316406 C 110.894531 15.09375 111.578125 15.367188 111.886719 15.949219 L 112.492188 17.121094 C 112.492188 17.121094 98.742188 22.882812 94.910156 40.109375 C 94.144531 43.535156 96.5 46.867188 99.96875 47.382812 C 102.988281 47.835938 106.464844 48.246094 108.589844 48.128906 Z M 108.589844 48.140625 " fill-opacity="1" fill-rule="nonzero"/></g><path fill="#000000" d="M 103.949219 70.316406 L 105.257812 70.316406 L 123.460938 55.332031 L 141.765625 70.316406 L 143.011719 70.316406 L 123.523438 54.175781 Z M 103.949219 70.316406 " fill-opacity="1" fill-rule="nonzero"/><g fill="#000000" fill-opacity="1"><g transform="translate(155.753552, 145.375748)"><g><path d="M 0.375 -0.453125 C 0.382812 -0.523438 0.410156 -0.578125 0.453125 -0.609375 C 0.503906 -0.648438 0.566406 -0.671875 0.640625 -0.671875 L 3.125 -0.671875 C 3.289062 -0.671875 3.421875 -0.710938 3.515625 -0.796875 C 3.609375 -0.890625 3.65625 -1.03125 3.65625 -1.21875 C 3.65625 -1.425781 3.632812 -1.628906 3.59375 -1.828125 C 3.5625 -2.023438 3.523438 -2.226562 3.484375 -2.4375 C 3.398438 -2.957031 3.203125 -3.375 2.890625 -3.6875 C 2.585938 -4 2.175781 -4.203125 1.65625 -4.296875 C 1.582031 -4.304688 1.519531 -4.335938 1.46875 -4.390625 C 1.425781 -4.441406 1.414062 -4.503906 1.4375 -4.578125 C 1.445312 -4.628906 1.457031 -4.679688 1.46875 -4.734375 C 1.476562 -4.785156 1.488281 -4.832031 1.5 -4.875 C 1.507812 -4.925781 1.523438 -4.976562 1.546875 -5.03125 C 2.347656 -4.945312 2.976562 -4.691406 3.4375 -4.265625 C 3.90625 -3.835938 4.191406 -3.25 4.296875 -2.5 C 4.304688 -2.476562 4.316406 -2.414062 4.328125 -2.3125 C 4.347656 -2.21875 4.367188 -2.101562 4.390625 -1.96875 C 4.421875 -1.832031 4.441406 -1.691406 4.453125 -1.546875 C 4.472656 -1.410156 4.488281 -1.304688 4.5 -1.234375 C 4.519531 -1.054688 4.566406 -0.914062 4.640625 -0.8125 C 4.710938 -0.71875 4.816406 -0.671875 4.953125 -0.671875 L 5.25 -0.671875 L 5.25 0 L 5 0 C 4.851562 0 4.707031 -0.03125 4.5625 -0.09375 C 4.425781 -0.164062 4.304688 -0.269531 4.203125 -0.40625 C 4.015625 -0.132812 3.738281 0 3.375 0 L 0.921875 0 C 0.828125 0 0.734375 -0.00390625 0.640625 -0.015625 C 0.546875 -0.0351562 0.445312 -0.0625 0.34375 -0.09375 Z M 0.375 -0.453125 "/></g></g></g><g fill="#000000" fill-opacity="1"><g transform="translate(160.952118, 145.375748)"><g><path d="M 4.578125 -0.671875 C 4.359375 -1.410156 4.175781 -2.015625 4.03125 -2.484375 C 3.894531 -2.960938 3.8125 -3.257812 3.78125 -3.375 C 3.664062 -3.71875 3.488281 -3.976562 3.25 -4.15625 C 3.007812 -4.34375 2.703125 -4.4375 2.328125 -4.4375 C 2.128906 -4.4375 1.957031 -4.410156 1.8125 -4.359375 C 1.664062 -4.304688 1.507812 -4.222656 1.34375 -4.109375 C 1.289062 -4.066406 1.234375 -4.046875 1.171875 -4.046875 C 1.085938 -4.046875 1.019531 -4.082031 0.96875 -4.15625 C 0.96875 -4.164062 0.957031 -4.179688 0.9375 -4.203125 C 0.914062 -4.234375 0.890625 -4.265625 0.859375 -4.296875 C 0.835938 -4.335938 0.816406 -4.375 0.796875 -4.40625 C 0.773438 -4.4375 0.757812 -4.457031 0.75 -4.46875 C 1 -4.6875 1.253906 -4.847656 1.515625 -4.953125 C 1.785156 -5.054688 2.078125 -5.109375 2.390625 -5.109375 C 2.898438 -5.109375 3.351562 -4.976562 3.75 -4.71875 C 4.15625 -4.457031 4.441406 -4.0625 4.609375 -3.53125 C 4.640625 -3.425781 4.675781 -3.296875 4.71875 -3.140625 C 4.769531 -2.984375 4.820312 -2.8125 4.875 -2.625 C 4.9375 -2.445312 5 -2.257812 5.0625 -2.0625 C 5.125 -1.863281 5.179688 -1.675781 5.234375 -1.5 C 5.285156 -1.320312 5.332031 -1.160156 5.375 -1.015625 C 5.425781 -0.878906 5.460938 -0.769531 5.484375 -0.6875 L 5.484375 -0.1875 C 5.484375 -0.132812 5.460938 -0.0859375 5.421875 -0.046875 C 5.390625 -0.015625 5.347656 0 5.296875 0 L -0.046875 0 C -0.0976562 0 -0.15625 -0.00390625 -0.21875 -0.015625 C -0.28125 -0.0351562 -0.3125 -0.0703125 -0.3125 -0.125 L -0.3125 -0.5625 C -0.3125 -0.613281 -0.28125 -0.644531 -0.21875 -0.65625 C -0.15625 -0.664062 -0.0976562 -0.671875 -0.046875 -0.671875 Z M 4.578125 -0.671875 "/></g></g></g><g fill="#000000" fill-opacity="1"><g transform="translate(166.886239, 145.375748)"><g><path d="M 1.5625 0 L 0.703125 0 L 0.703125 -7.3125 L 1.5625 -7.3125 Z M 1.5625 0 "/></g></g></g><g fill="#000000" fill-opacity="1"><g transform="translate(169.172418, 145.375748)"><g><path d="M 2.71875 -4.4375 C 2.4375 -4.4375 2.195312 -4.382812 2 -4.28125 C 1.8125 -4.175781 1.65625 -4.035156 1.53125 -3.859375 C 1.414062 -3.691406 1.332031 -3.488281 1.28125 -3.25 C 1.226562 -3.019531 1.203125 -2.773438 1.203125 -2.515625 C 1.203125 -2.265625 1.222656 -2.019531 1.265625 -1.78125 C 1.316406 -1.550781 1.398438 -1.347656 1.515625 -1.171875 C 1.640625 -1.003906 1.796875 -0.867188 1.984375 -0.765625 C 2.179688 -0.660156 2.425781 -0.609375 2.71875 -0.609375 C 3.070312 -0.609375 3.347656 -0.640625 3.546875 -0.703125 C 3.742188 -0.773438 3.890625 -0.875 3.984375 -1 C 4.085938 -1.125 4.148438 -1.28125 4.171875 -1.46875 C 4.203125 -1.65625 4.21875 -1.867188 4.21875 -2.109375 L 4.21875 -2.515625 C 4.21875 -2.773438 4.191406 -3.019531 4.140625 -3.25 C 4.097656 -3.476562 4.019531 -3.679688 3.90625 -3.859375 C 3.789062 -4.035156 3.632812 -4.175781 3.4375 -4.28125 C 3.25 -4.382812 3.007812 -4.4375 2.71875 -4.4375 Z M 0.3125 -2.515625 C 0.3125 -2.890625 0.359375 -3.234375 0.453125 -3.546875 C 0.554688 -3.859375 0.707031 -4.128906 0.90625 -4.359375 C 1.113281 -4.585938 1.363281 -4.769531 1.65625 -4.90625 C 1.957031 -5.039062 2.3125 -5.109375 2.71875 -5.109375 C 3.101562 -5.109375 3.441406 -5.046875 3.734375 -4.921875 C 4.035156 -4.796875 4.285156 -4.617188 4.484375 -4.390625 C 4.691406 -4.160156 4.847656 -3.882812 4.953125 -3.5625 C 5.066406 -3.25 5.125 -2.898438 5.125 -2.515625 L 5.125 -0.484375 C 5.125 -0.00390625 5.054688 0.382812 4.921875 0.6875 C 4.796875 1 4.625 1.238281 4.40625 1.40625 C 4.1875 1.570312 3.929688 1.6875 3.640625 1.75 C 3.347656 1.8125 3.039062 1.84375 2.71875 1.84375 C 2.507812 1.84375 2.328125 1.832031 2.171875 1.8125 C 2.015625 1.789062 1.890625 1.765625 1.796875 1.734375 L 1.84375 1.40625 C 1.851562 1.332031 1.878906 1.273438 1.921875 1.234375 C 1.960938 1.191406 2.03125 1.171875 2.125 1.171875 C 2.425781 1.171875 2.703125 1.160156 2.953125 1.140625 C 3.210938 1.117188 3.4375 1.054688 3.625 0.953125 C 3.820312 0.859375 3.972656 0.707031 4.078125 0.5 C 4.191406 0.289062 4.25 0.00390625 4.25 -0.359375 L 4.25 -0.40625 C 4.113281 -0.25 3.914062 -0.128906 3.65625 -0.046875 C 3.40625 0.0234375 3.09375 0.0625 2.71875 0.0625 C 2.332031 0.0625 1.988281 0 1.6875 -0.125 C 1.394531 -0.25 1.144531 -0.425781 0.9375 -0.65625 C 0.738281 -0.882812 0.582031 -1.15625 0.46875 -1.46875 C 0.363281 -1.78125 0.3125 -2.128906 0.3125 -2.515625 Z M 0.3125 -2.515625 "/></g></g></g><g fill="#000000" fill-opacity="1"><g transform="translate(174.788462, 145.375748)"><g/></g></g><g fill="#000000" fill-opacity="1"><g transform="translate(177.074641, 145.375748)"><g><path d="M 3.4375 1.3125 C 2.90625 1.3125 2.457031 1.226562 2.09375 1.0625 C 1.726562 0.90625 1.429688 0.695312 1.203125 0.4375 C 0.972656 0.175781 0.804688 -0.117188 0.703125 -0.453125 C 0.609375 -0.796875 0.5625 -1.140625 0.5625 -1.484375 C 0.5625 -1.648438 0.570312 -1.832031 0.59375 -2.03125 C 0.625 -2.226562 0.664062 -2.414062 0.71875 -2.59375 C 0.78125 -2.78125 0.847656 -2.957031 0.921875 -3.125 C 1.003906 -3.289062 1.097656 -3.4375 1.203125 -3.5625 L 1.34375 -3.5625 L 1.625 -3.265625 C 1.675781 -3.210938 1.707031 -3.148438 1.71875 -3.078125 C 1.726562 -3.003906 1.71875 -2.929688 1.6875 -2.859375 C 1.644531 -2.765625 1.609375 -2.65625 1.578125 -2.53125 C 1.546875 -2.414062 1.519531 -2.296875 1.5 -2.171875 C 1.476562 -2.046875 1.460938 -1.921875 1.453125 -1.796875 C 1.441406 -1.679688 1.4375 -1.578125 1.4375 -1.484375 C 1.4375 -1.242188 1.460938 -1 1.515625 -0.75 C 1.566406 -0.5 1.664062 -0.269531 1.8125 -0.0625 C 1.96875 0.132812 2.175781 0.300781 2.4375 0.4375 C 2.695312 0.570312 3.03125 0.640625 3.4375 0.640625 C 3.789062 0.640625 4.070312 0.601562 4.28125 0.53125 C 4.5 0.46875 4.660156 0.378906 4.765625 0.265625 C 4.878906 0.160156 4.953125 0.0390625 4.984375 -0.09375 C 5.015625 -0.238281 5.03125 -0.382812 5.03125 -0.53125 L 5.03125 -5.03125 L 5.890625 -5.03125 L 5.890625 -0.453125 C 5.890625 -0.242188 5.851562 -0.0351562 5.78125 0.171875 C 5.71875 0.390625 5.59375 0.582031 5.40625 0.75 C 5.226562 0.914062 4.976562 1.050781 4.65625 1.15625 C 4.34375 1.257812 3.9375 1.3125 3.4375 1.3125 Z M 3.3125 -4.953125 C 3.164062 -4.953125 3.039062 -5.003906 2.9375 -5.109375 C 2.832031 -5.210938 2.78125 -5.335938 2.78125 -5.484375 C 2.78125 -5.640625 2.832031 -5.765625 2.9375 -5.859375 C 3.039062 -5.960938 3.164062 -6.015625 3.3125 -6.015625 C 3.457031 -6.015625 3.578125 -5.960938 3.671875 -5.859375 C 3.773438 -5.765625 3.828125 -5.640625 3.828125 -5.484375 C 3.828125 -5.335938 3.773438 -5.210938 3.671875 -5.109375 C 3.578125 -5.003906 3.457031 -4.953125 3.3125 -4.953125 Z M 3.3125 -4.953125 "/></g></g></g><g fill="#000000" fill-opacity="1"><g transform="translate(183.615089, 145.375748)"><g><path d="M 2.46875 0 L 1.734375 0 C 1.585938 0 1.453125 -0.0234375 1.328125 -0.078125 C 1.203125 -0.128906 1.09375 -0.203125 1 -0.296875 C 0.90625 -0.398438 0.832031 -0.507812 0.78125 -0.625 C 0.726562 -0.75 0.703125 -0.882812 0.703125 -1.03125 L 0.703125 -7.3125 L 1.5625 -7.3125 L 1.5625 -1.03125 C 1.5625 -0.9375 1.597656 -0.851562 1.671875 -0.78125 C 1.742188 -0.707031 1.832031 -0.671875 1.9375 -0.671875 L 2.46875 -0.671875 Z M 2.46875 0 "/></g></g></g><g fill="#000000" fill-opacity="1"><g transform="translate(185.901268, 145.375748)"><g><path d="M -0.046875 -0.671875 L 4.375 -0.671875 C 4.46875 -0.671875 4.550781 -0.707031 4.625 -0.78125 C 4.695312 -0.851562 4.734375 -0.9375 4.734375 -1.03125 L 4.734375 -2.4375 C 4.734375 -2.675781 4.707031 -2.910156 4.65625 -3.140625 C 4.601562 -3.367188 4.515625 -3.570312 4.390625 -3.75 C 4.265625 -3.9375 4.101562 -4.082031 3.90625 -4.1875 C 3.707031 -4.300781 3.46875 -4.359375 3.1875 -4.359375 L 0.90625 -4.359375 L 0.90625 -5.03125 L 2.890625 -7.125 C 2.941406 -7.1875 2.992188 -7.234375 3.046875 -7.265625 C 3.097656 -7.296875 3.160156 -7.3125 3.234375 -7.3125 L 4 -7.3125 L 2.234375 -5.421875 C 2.191406 -5.378906 2.140625 -5.320312 2.078125 -5.25 C 2.015625 -5.1875 1.921875 -5.109375 1.796875 -5.015625 L 3.21875 -5.015625 C 3.59375 -5.015625 3.925781 -4.953125 4.21875 -4.828125 C 4.519531 -4.703125 4.769531 -4.523438 4.96875 -4.296875 C 5.175781 -4.066406 5.332031 -3.789062 5.4375 -3.46875 C 5.539062 -3.15625 5.59375 -2.8125 5.59375 -2.4375 L 5.59375 -1.046875 C 5.59375 -0.941406 5.625 -0.851562 5.6875 -0.78125 C 5.757812 -0.707031 5.851562 -0.671875 5.96875 -0.671875 L 6.4375 -0.671875 L 6.4375 0 L 6.125 0 C 5.988281 0 5.847656 -0.03125 5.703125 -0.09375 C 5.566406 -0.15625 5.445312 -0.253906 5.34375 -0.390625 C 5.101562 -0.128906 4.84375 0 4.5625 0 L -0.046875 0 C -0.0976562 0 -0.15625 -0.00390625 -0.21875 -0.015625 C -0.28125 -0.0351562 -0.3125 -0.0703125 -0.3125 -0.125 L -0.3125 -0.5625 C -0.3125 -0.613281 -0.28125 -0.644531 -0.21875 -0.65625 C -0.15625 -0.664062 -0.0976562 -0.671875 -0.046875 -0.671875 Z M -0.046875 -0.671875 "/></g></g></g><g fill="#000000" fill-opacity="1"><g transform="translate(192.302564, 145.375748)"><g><path d="M 5.203125 -0.671875 C 5.398438 -0.671875 5.507812 -0.78125 5.53125 -1 L 5.53125 -2.546875 C 5.53125 -2.804688 5.503906 -3.050781 5.453125 -3.28125 C 5.410156 -3.507812 5.332031 -3.707031 5.21875 -3.875 C 5.101562 -4.050781 4.945312 -4.1875 4.75 -4.28125 C 4.5625 -4.382812 4.320312 -4.4375 4.03125 -4.4375 C 3.75 -4.4375 3.507812 -4.382812 3.3125 -4.28125 C 3.113281 -4.1875 2.953125 -4.054688 2.828125 -3.890625 C 2.710938 -3.722656 2.628906 -3.523438 2.578125 -3.296875 C 2.535156 -3.078125 2.515625 -2.828125 2.515625 -2.546875 L 2.515625 -2.359375 C 2.515625 -2.117188 2.539062 -1.894531 2.59375 -1.6875 C 2.65625 -1.476562 2.742188 -1.300781 2.859375 -1.15625 C 2.984375 -1.007812 3.140625 -0.890625 3.328125 -0.796875 C 3.523438 -0.710938 3.757812 -0.671875 4.03125 -0.671875 Z M 4.03125 0 C 3.71875 0 3.425781 -0.0390625 3.15625 -0.125 C 2.882812 -0.21875 2.628906 -0.375 2.390625 -0.59375 C 2.296875 -0.382812 2.164062 -0.234375 2 -0.140625 C 1.832031 -0.046875 1.660156 0 1.484375 0 L -0.046875 0 C -0.0976562 0 -0.15625 -0.00390625 -0.21875 -0.015625 C -0.28125 -0.0351562 -0.3125 -0.0703125 -0.3125 -0.125 L -0.3125 -0.5625 C -0.3125 -0.613281 -0.28125 -0.644531 -0.21875 -0.65625 C -0.15625 -0.664062 -0.0976562 -0.671875 -0.046875 -0.671875 L 1.265625 -0.671875 C 1.359375 -0.671875 1.441406 -0.707031 1.515625 -0.78125 C 1.585938 -0.851562 1.625 -0.9375 1.625 -1.03125 L 1.625 -2.546875 C 1.625 -2.921875 1.675781 -3.265625 1.78125 -3.578125 C 1.882812 -3.890625 2.035156 -4.15625 2.234375 -4.375 C 2.441406 -4.601562 2.695312 -4.78125 3 -4.90625 C 3.300781 -5.039062 3.644531 -5.109375 4.03125 -5.109375 C 4.40625 -5.109375 4.742188 -5.046875 5.046875 -4.921875 C 5.347656 -4.796875 5.597656 -4.617188 5.796875 -4.390625 C 6.003906 -4.160156 6.160156 -3.890625 6.265625 -3.578125 C 6.367188 -3.265625 6.421875 -2.921875 6.421875 -2.546875 L 6.421875 -1.03125 C 6.421875 -0.71875 6.328125 -0.46875 6.140625 -0.28125 C 5.953125 -0.09375 5.703125 0 5.390625 0 Z M 4.03125 0 "/></g></g></g><g fill="#000000" fill-opacity="1"><g transform="translate(199.300253, 145.375748)"><g/></g></g><g fill="#000000" fill-opacity="1"><g transform="translate(201.586432, 145.375748)"><g><path d="M 10.359375 0 L 9.640625 0 C 9.503906 0 9.367188 -0.0234375 9.234375 -0.078125 C 9.109375 -0.128906 9 -0.203125 8.90625 -0.296875 C 8.820312 -0.398438 8.75 -0.507812 8.6875 -0.625 C 8.632812 -0.75 8.609375 -0.882812 8.609375 -1.03125 L 8.609375 -4.375 L 7.828125 -4.375 C 7.734375 -4.375 7.648438 -4.335938 7.578125 -4.265625 C 7.515625 -4.191406 7.484375 -4.109375 7.484375 -4.015625 L 7.484375 -1.03125 C 7.484375 -0.894531 7.457031 -0.765625 7.40625 -0.640625 C 7.351562 -0.515625 7.28125 -0.398438 7.1875 -0.296875 C 7.09375 -0.203125 6.984375 -0.128906 6.859375 -0.078125 C 6.734375 -0.0234375 6.597656 0 6.453125 0 L 2.75 0 C 2.382812 0 2.066406 -0.0664062 1.796875 -0.203125 C 1.523438 -0.347656 1.296875 -0.539062 1.109375 -0.78125 C 0.921875 -1.019531 0.78125 -1.296875 0.6875 -1.609375 C 0.601562 -1.921875 0.5625 -2.25 0.5625 -2.59375 C 0.5625 -2.945312 0.613281 -3.285156 0.71875 -3.609375 C 0.832031 -3.941406 1 -4.234375 1.21875 -4.484375 L 1.328125 -4.484375 L 1.625 -4.1875 C 1.726562 -4.0625 1.75 -3.925781 1.6875 -3.78125 C 1.519531 -3.445312 1.4375 -3.050781 1.4375 -2.59375 C 1.4375 -2.351562 1.460938 -2.117188 1.515625 -1.890625 C 1.566406 -1.660156 1.648438 -1.457031 1.765625 -1.28125 C 1.878906 -1.101562 2.03125 -0.957031 2.21875 -0.84375 C 2.40625 -0.726562 2.632812 -0.671875 2.90625 -0.671875 L 6.265625 -0.671875 C 6.359375 -0.671875 6.4375 -0.707031 6.5 -0.78125 C 6.570312 -0.851562 6.609375 -0.9375 6.609375 -1.03125 L 6.609375 -4.015625 C 6.609375 -4.160156 6.632812 -4.289062 6.6875 -4.40625 C 6.738281 -4.53125 6.8125 -4.640625 6.90625 -4.734375 C 7.007812 -4.828125 7.125 -4.898438 7.25 -4.953125 C 7.375 -5.003906 7.503906 -5.03125 7.640625 -5.03125 L 9.484375 -5.03125 L 9.484375 -1.03125 C 9.484375 -0.9375 9.519531 -0.851562 9.59375 -0.78125 C 9.664062 -0.707031 9.75 -0.671875 9.84375 -0.671875 L 10.359375 -0.671875 Z M 5.21875 1.921875 C 5.0625 1.921875 4.929688 1.867188 4.828125 1.765625 C 4.734375 1.660156 4.6875 1.535156 4.6875 1.390625 C 4.6875 1.234375 4.734375 1.101562 4.828125 1 C 4.929688 0.90625 5.0625 0.859375 5.21875 0.859375 C 5.351562 0.859375 5.472656 0.90625 5.578125 1 C 5.679688 1.101562 5.734375 1.234375 5.734375 1.390625 C 5.734375 1.535156 5.679688 1.660156 5.578125 1.765625 C 5.472656 1.867188 5.351562 1.921875 5.21875 1.921875 Z M 3.640625 1.921875 C 3.492188 1.921875 3.367188 1.867188 3.265625 1.765625 C 3.160156 1.660156 3.109375 1.535156 3.109375 1.390625 C 3.109375 1.234375 3.160156 1.101562 3.265625 1 C 3.367188 0.90625 3.492188 0.859375 3.640625 0.859375 C 3.785156 0.859375 3.90625 0.90625 4 1 C 4.101562 1.101562 4.15625 1.234375 4.15625 1.390625 C 4.15625 1.535156 4.101562 1.660156 4 1.765625 C 3.90625 1.867188 3.785156 1.921875 3.640625 1.921875 Z M 3.640625 1.921875 "/></g></g></g><g fill="#000000" fill-opacity="1"><g transform="translate(211.913986, 145.375748)"><g><path d="M 4.875 -0.671875 C 4.96875 -0.671875 5.050781 -0.707031 5.125 -0.78125 C 5.195312 -0.851562 5.234375 -0.9375 5.234375 -1.03125 L 5.234375 -2.546875 C 5.234375 -2.804688 5.207031 -3.046875 5.15625 -3.265625 C 5.113281 -3.492188 5.035156 -3.691406 4.921875 -3.859375 C 4.804688 -4.035156 4.648438 -4.175781 4.453125 -4.28125 C 4.265625 -4.382812 4.03125 -4.4375 3.75 -4.4375 C 3.457031 -4.4375 3.210938 -4.382812 3.015625 -4.28125 C 2.828125 -4.1875 2.671875 -4.054688 2.546875 -3.890625 C 2.429688 -3.722656 2.347656 -3.523438 2.296875 -3.296875 C 2.242188 -3.066406 2.21875 -2.816406 2.21875 -2.546875 C 2.21875 -2.296875 2.242188 -2.054688 2.296875 -1.828125 C 2.347656 -1.597656 2.429688 -1.394531 2.546875 -1.21875 C 2.671875 -1.050781 2.828125 -0.914062 3.015625 -0.8125 C 3.210938 -0.71875 3.457031 -0.671875 3.75 -0.671875 Z M -0.046875 0 C -0.0976562 0 -0.15625 -0.00390625 -0.21875 -0.015625 C -0.28125 -0.0351562 -0.3125 -0.0703125 -0.3125 -0.125 L -0.3125 -0.5625 C -0.3125 -0.613281 -0.28125 -0.644531 -0.21875 -0.65625 C -0.15625 -0.664062 -0.0976562 -0.671875 -0.046875 -0.671875 L 2.03125 -0.671875 C 1.8125 -0.867188 1.640625 -1.140625 1.515625 -1.484375 C 1.390625 -1.828125 1.328125 -2.179688 1.328125 -2.546875 C 1.328125 -2.921875 1.378906 -3.265625 1.484375 -3.578125 C 1.585938 -3.890625 1.738281 -4.15625 1.9375 -4.375 C 2.144531 -4.601562 2.398438 -4.78125 2.703125 -4.90625 C 3.003906 -5.039062 3.351562 -5.109375 3.75 -5.109375 C 4.125 -5.109375 4.457031 -5.046875 4.75 -4.921875 C 5.050781 -4.796875 5.300781 -4.617188 5.5 -4.390625 C 5.695312 -4.171875 5.847656 -3.90625 5.953125 -3.59375 C 6.066406 -3.28125 6.125 -2.9375 6.125 -2.5625 L 6.125 -1.03125 C 6.125 -0.882812 6.097656 -0.75 6.046875 -0.625 C 5.992188 -0.507812 5.921875 -0.398438 5.828125 -0.296875 C 5.734375 -0.203125 5.625 -0.128906 5.5 -0.078125 C 5.375 -0.0234375 5.238281 0 5.09375 0 Z M 3.75 -6.171875 C 3.59375 -6.171875 3.460938 -6.222656 3.359375 -6.328125 C 3.253906 -6.429688 3.203125 -6.554688 3.203125 -6.703125 C 3.203125 -6.847656 3.253906 -6.972656 3.359375 -7.078125 C 3.460938 -7.179688 3.59375 -7.234375 3.75 -7.234375 C 3.882812 -7.234375 4.003906 -7.179688 4.109375 -7.078125 C 4.210938 -6.972656 4.265625 -6.847656 4.265625 -6.703125 C 4.265625 -6.554688 4.210938 -6.429688 4.109375 -6.328125 C 4.003906 -6.222656 3.882812 -6.171875 3.75 -6.171875 Z M 3.75 -6.171875 "/></g></g></g><g fill="#000000" fill-opacity="1"><g transform="translate(218.613478, 145.375748)"><g/></g></g><g fill="#000000" fill-opacity="1"><g transform="translate(220.899657, 145.375748)"><g><path d="M 2.78125 -4.453125 C 2.519531 -4.453125 2.296875 -4.398438 2.109375 -4.296875 C 1.929688 -4.191406 1.785156 -4.050781 1.671875 -3.875 C 1.566406 -3.707031 1.488281 -3.503906 1.4375 -3.265625 C 1.394531 -3.035156 1.375 -2.796875 1.375 -2.546875 C 1.375 -2.347656 1.390625 -2.140625 1.421875 -1.921875 C 1.460938 -1.703125 1.53125 -1.5 1.625 -1.3125 C 1.71875 -1.125 1.847656 -0.96875 2.015625 -0.84375 C 2.179688 -0.726562 2.394531 -0.671875 2.65625 -0.671875 L 3.703125 -0.671875 C 3.785156 -0.671875 3.863281 -0.707031 3.9375 -0.78125 C 4.007812 -0.851562 4.046875 -0.9375 4.046875 -1.03125 L 4.046875 -3.78125 C 3.898438 -3.988281 3.710938 -4.148438 3.484375 -4.265625 C 3.265625 -4.390625 3.03125 -4.453125 2.78125 -4.453125 Z M 4.671875 -0.390625 C 4.578125 -0.273438 4.460938 -0.179688 4.328125 -0.109375 C 4.203125 -0.0351562 4.054688 0 3.890625 0 L 2.375 0 C 2.019531 0 1.722656 -0.0703125 1.484375 -0.21875 C 1.242188 -0.375 1.046875 -0.570312 0.890625 -0.8125 C 0.742188 -1.0625 0.640625 -1.332031 0.578125 -1.625 C 0.515625 -1.925781 0.484375 -2.21875 0.484375 -2.5 C 0.484375 -2.84375 0.523438 -3.171875 0.609375 -3.484375 C 0.703125 -3.804688 0.835938 -4.085938 1.015625 -4.328125 C 1.191406 -4.566406 1.414062 -4.757812 1.6875 -4.90625 C 1.957031 -5.050781 2.28125 -5.125 2.65625 -5.125 C 2.988281 -5.125 3.285156 -5.054688 3.546875 -4.921875 C 3.804688 -4.796875 4.015625 -4.644531 4.171875 -4.46875 C 4.179688 -4.507812 4.207031 -4.578125 4.25 -4.671875 C 4.289062 -4.773438 4.332031 -4.863281 4.375 -4.9375 C 4.382812 -4.957031 4.398438 -4.976562 4.421875 -5 C 4.453125 -5.019531 4.484375 -5.03125 4.515625 -5.03125 L 4.921875 -5.03125 L 4.921875 -1.046875 C 4.921875 -0.941406 4.953125 -0.851562 5.015625 -0.78125 C 5.085938 -0.707031 5.179688 -0.671875 5.296875 -0.671875 L 5.8125 -0.671875 L 5.8125 0 L 5.453125 0 C 5.316406 0 5.175781 -0.03125 5.03125 -0.09375 C 4.882812 -0.164062 4.765625 -0.265625 4.671875 -0.390625 Z M 2.078125 -6 C 1.921875 -6 1.789062 -6.046875 1.6875 -6.140625 C 1.59375 -6.242188 1.546875 -6.367188 1.546875 -6.515625 C 1.546875 -6.660156 1.59375 -6.785156 1.6875 -6.890625 C 1.789062 -7.003906 1.921875 -7.0625 2.078125 -7.0625 C 2.210938 -7.0625 2.332031 -7.003906 2.4375 -6.890625 C 2.539062 -6.785156 2.59375 -6.660156 2.59375 -6.515625 C 2.59375 -6.367188 2.539062 -6.242188 2.4375 -6.140625 C 2.332031 -6.046875 2.210938 -6 2.078125 -6 Z M 3.640625 -6 C 3.492188 -6 3.367188 -6.046875 3.265625 -6.140625 C 3.160156 -6.242188 3.109375 -6.367188 3.109375 -6.515625 C 3.109375 -6.660156 3.160156 -6.785156 3.265625 -6.890625 C 3.367188 -7.003906 3.492188 -7.0625 3.640625 -7.0625 C 3.785156 -7.0625 3.90625 -7.003906 4 -6.890625 C 4.101562 -6.785156 4.15625 -6.660156 4.15625 -6.515625 C 4.15625 -6.367188 4.101562 -6.242188 4 -6.140625 C 3.90625 -6.046875 3.785156 -6 3.640625 -6 Z M 3.640625 -6 "/></g></g></g><g fill="#000000" fill-opacity="1"><g transform="translate(226.654854, 145.375748)"><g><path d="M -0.046875 0 C -0.0976562 0 -0.15625 -0.00390625 -0.21875 -0.015625 C -0.28125 -0.0351562 -0.3125 -0.0703125 -0.3125 -0.125 L -0.3125 -0.5625 C -0.3125 -0.601562 -0.28125 -0.628906 -0.21875 -0.640625 C -0.15625 -0.660156 -0.0976562 -0.671875 -0.046875 -0.671875 L 1.390625 -0.671875 C 1.484375 -0.671875 1.5625 -0.707031 1.625 -0.78125 C 1.695312 -0.851562 1.734375 -0.9375 1.734375 -1.03125 L 1.734375 -5.03125 L 2.609375 -5.03125 L 2.609375 -1.046875 C 2.609375 -0.941406 2.644531 -0.851562 2.71875 -0.78125 C 2.789062 -0.707031 2.878906 -0.671875 2.984375 -0.671875 L 3.5 -0.671875 L 3.5 0 L 3.140625 0 C 2.992188 0 2.84375 -0.0351562 2.6875 -0.109375 C 2.539062 -0.191406 2.414062 -0.304688 2.3125 -0.453125 C 2.125 -0.148438 1.875 0 1.5625 0 Z M 2.828125 1.921875 C 2.671875 1.921875 2.539062 1.867188 2.4375 1.765625 C 2.332031 1.671875 2.28125 1.550781 2.28125 1.40625 C 2.28125 1.25 2.332031 1.117188 2.4375 1.015625 C 2.539062 0.910156 2.671875 0.859375 2.828125 0.859375 C 2.960938 0.859375 3.082031 0.910156 3.1875 1.015625 C 3.289062 1.117188 3.34375 1.25 3.34375 1.40625 C 3.34375 1.550781 3.289062 1.671875 3.1875 1.765625 C 3.082031 1.867188 2.960938 1.921875 2.828125 1.921875 Z M 1.25 1.921875 C 1.101562 1.921875 0.976562 1.867188 0.875 1.765625 C 0.769531 1.671875 0.71875 1.550781 0.71875 1.40625 C 0.71875 1.25 0.769531 1.117188 0.875 1.015625 C 0.976562 0.910156 1.101562 0.859375 1.25 0.859375 C 1.394531 0.859375 1.515625 0.910156 1.609375 1.015625 C 1.710938 1.117188 1.765625 1.25 1.765625 1.40625 C 1.765625 1.550781 1.710938 1.671875 1.609375 1.765625 C 1.515625 1.867188 1.394531 1.921875 1.25 1.921875 Z M 1.25 1.921875 "/></g></g></g><g fill="#000000" fill-opacity="1"><g transform="translate(230.094056, 145.375748)"><g><path d="M 3.265625 -0.671875 C 3.546875 -0.671875 3.789062 -0.71875 4 -0.8125 C 4.207031 -0.90625 4.378906 -1.035156 4.515625 -1.203125 C 4.660156 -1.367188 4.769531 -1.570312 4.84375 -1.8125 C 4.914062 -2.050781 4.953125 -2.3125 4.953125 -2.59375 C 4.953125 -2.832031 4.925781 -3.0625 4.875 -3.28125 C 4.820312 -3.507812 4.734375 -3.707031 4.609375 -3.875 C 4.484375 -4.050781 4.316406 -4.1875 4.109375 -4.28125 C 3.910156 -4.382812 3.65625 -4.4375 3.34375 -4.4375 C 2.988281 -4.4375 2.660156 -4.332031 2.359375 -4.125 C 2.066406 -3.925781 1.875 -3.648438 1.78125 -3.296875 C 2.195312 -2.929688 2.535156 -2.539062 2.796875 -2.125 C 3.054688 -1.707031 3.210938 -1.222656 3.265625 -0.671875 Z M 2.34375 -0.671875 C 2.332031 -0.921875 2.273438 -1.160156 2.171875 -1.390625 C 2.078125 -1.628906 1.960938 -1.851562 1.828125 -2.0625 C 1.691406 -2.269531 1.535156 -2.460938 1.359375 -2.640625 C 1.191406 -2.816406 1.019531 -2.976562 0.84375 -3.125 C 0.894531 -3.457031 0.992188 -3.742188 1.140625 -3.984375 C 1.296875 -4.234375 1.484375 -4.441406 1.703125 -4.609375 C 1.921875 -4.773438 2.171875 -4.898438 2.453125 -4.984375 C 2.742188 -5.066406 3.050781 -5.109375 3.375 -5.109375 C 3.757812 -5.109375 4.097656 -5.050781 4.390625 -4.9375 C 4.691406 -4.820312 4.945312 -4.65625 5.15625 -4.4375 C 5.363281 -4.226562 5.519531 -3.972656 5.625 -3.671875 C 5.738281 -3.378906 5.796875 -3.046875 5.796875 -2.671875 C 5.796875 -2.441406 5.769531 -2.21875 5.71875 -2 C 5.664062 -1.789062 5.59375 -1.597656 5.5 -1.421875 C 5.414062 -1.242188 5.3125 -1.085938 5.1875 -0.953125 C 5.070312 -0.828125 4.945312 -0.734375 4.8125 -0.671875 L 6.125 -0.671875 L 6.125 0 L -0.046875 0 C -0.0976562 0 -0.148438 -0.00390625 -0.203125 -0.015625 C -0.265625 -0.0351562 -0.296875 -0.0703125 -0.296875 -0.125 L -0.296875 -0.5625 C -0.296875 -0.613281 -0.265625 -0.644531 -0.203125 -0.65625 C -0.148438 -0.664062 -0.0976562 -0.671875 -0.046875 -0.671875 Z M 2.34375 -0.671875 "/></g></g></g><g fill="#000000" fill-opacity="1"><g transform="translate(236.18721, 145.375748)"><g><path d="M -0.046875 0 C -0.0976562 0 -0.148438 -0.00390625 -0.203125 -0.015625 C -0.265625 -0.0351562 -0.296875 -0.0703125 -0.296875 -0.125 L -0.296875 -0.5625 C -0.296875 -0.613281 -0.265625 -0.644531 -0.203125 -0.65625 C -0.148438 -0.664062 -0.0976562 -0.671875 -0.046875 -0.671875 L 1.375 -0.671875 C 1.476562 -0.671875 1.5625 -0.707031 1.625 -0.78125 C 1.695312 -0.851562 1.734375 -0.9375 1.734375 -1.03125 L 1.734375 -5.03125 L 2.609375 -5.03125 L 2.609375 -1.03125 C 2.609375 -0.882812 2.578125 -0.75 2.515625 -0.625 C 2.460938 -0.507812 2.390625 -0.398438 2.296875 -0.296875 C 2.210938 -0.203125 2.109375 -0.128906 1.984375 -0.078125 C 1.859375 -0.0234375 1.722656 0 1.578125 0 Z M 2.53125 1.921875 C 2.375 1.921875 2.242188 1.867188 2.140625 1.765625 C 2.035156 1.671875 1.984375 1.550781 1.984375 1.40625 C 1.984375 1.25 2.035156 1.117188 2.140625 1.015625 C 2.242188 0.910156 2.375 0.859375 2.53125 0.859375 C 2.664062 0.859375 2.785156 0.910156 2.890625 1.015625 C 2.992188 1.117188 3.046875 1.25 3.046875 1.40625 C 3.046875 1.550781 2.992188 1.671875 2.890625 1.765625 C 2.785156 1.867188 2.664062 1.921875 2.53125 1.921875 Z M 0.953125 1.921875 C 0.796875 1.921875 0.664062 1.867188 0.5625 1.765625 C 0.46875 1.671875 0.421875 1.550781 0.421875 1.40625 C 0.421875 1.25 0.46875 1.117188 0.5625 1.015625 C 0.664062 0.910156 0.796875 0.859375 0.953125 0.859375 C 1.085938 0.859375 1.207031 0.910156 1.3125 1.015625 C 1.414062 1.117188 1.46875 1.25 1.46875 1.40625 C 1.46875 1.550781 1.414062 1.671875 1.3125 1.765625 C 1.207031 1.867188 1.085938 1.921875 0.953125 1.921875 Z M 0.953125 1.921875 "/></g></g></g><g fill="#000000" fill-opacity="1"><g transform="translate(239.507141, 145.375748)"><g><path d="M 2.46875 0 L 1.734375 0 C 1.585938 0 1.453125 -0.0234375 1.328125 -0.078125 C 1.203125 -0.128906 1.09375 -0.203125 1 -0.296875 C 0.90625 -0.398438 0.832031 -0.507812 0.78125 -0.625 C 0.726562 -0.75 0.703125 -0.882812 0.703125 -1.03125 L 0.703125 -7.3125 L 1.5625 -7.3125 L 1.5625 -1.03125 C 1.5625 -0.9375 1.597656 -0.851562 1.671875 -0.78125 C 1.742188 -0.707031 1.832031 -0.671875 1.9375 -0.671875 L 2.46875 -0.671875 Z M 2.46875 0 "/></g></g></g><g fill="#000000" fill-opacity="1"><g transform="translate(241.79332, 145.375748)"><g><path d="M -0.046875 0 C -0.0976562 0 -0.15625 -0.00390625 -0.21875 -0.015625 C -0.28125 -0.0351562 -0.3125 -0.0703125 -0.3125 -0.125 L -0.3125 -0.5625 C -0.3125 -0.601562 -0.28125 -0.628906 -0.21875 -0.640625 C -0.15625 -0.660156 -0.0976562 -0.671875 -0.046875 -0.671875 L 1.390625 -0.671875 C 1.484375 -0.671875 1.5625 -0.707031 1.625 -0.78125 C 1.695312 -0.851562 1.734375 -0.9375 1.734375 -1.03125 L 1.734375 -5.03125 L 2.609375 -5.03125 L 2.609375 -1.046875 C 2.609375 -0.941406 2.644531 -0.851562 2.71875 -0.78125 C 2.789062 -0.707031 2.878906 -0.671875 2.984375 -0.671875 L 3.515625 -0.671875 L 3.515625 0 L 3.140625 0 C 2.992188 0 2.84375 -0.0351562 2.6875 -0.109375 C 2.539062 -0.191406 2.421875 -0.304688 2.328125 -0.453125 C 2.234375 -0.304688 2.117188 -0.191406 1.984375 -0.109375 C 1.847656 -0.0351562 1.707031 0 1.5625 0 Z M 2.171875 -6.1875 C 2.023438 -6.1875 1.898438 -6.234375 1.796875 -6.328125 C 1.691406 -6.429688 1.640625 -6.554688 1.640625 -6.703125 C 1.640625 -6.859375 1.691406 -6.988281 1.796875 -7.09375 C 1.898438 -7.195312 2.023438 -7.25 2.171875 -7.25 C 2.316406 -7.25 2.4375 -7.195312 2.53125 -7.09375 C 2.632812 -6.988281 2.6875 -6.859375 2.6875 -6.703125 C 2.6875 -6.554688 2.632812 -6.429688 2.53125 -6.328125 C 2.4375 -6.234375 2.316406 -6.1875 2.171875 -6.1875 Z M 2.171875 -6.1875 "/></g></g></g><g fill="#000000" fill-opacity="1"><g transform="translate(245.252404, 145.375748)"><g><path d="M 6.46875 -0.671875 C 6.5625 -0.671875 6.644531 -0.707031 6.71875 -0.78125 C 6.789062 -0.851562 6.828125 -0.9375 6.828125 -1.03125 L 6.828125 -2.53125 C 6.828125 -2.757812 6.796875 -2.988281 6.734375 -3.21875 C 6.679688 -3.457031 6.582031 -3.664062 6.4375 -3.84375 C 6.300781 -4.019531 6.117188 -4.160156 5.890625 -4.265625 C 5.671875 -4.378906 5.382812 -4.4375 5.03125 -4.4375 C 4.769531 -4.4375 4.515625 -4.40625 4.265625 -4.34375 C 4.015625 -4.28125 3.785156 -4.195312 3.578125 -4.09375 C 3.367188 -3.988281 3.179688 -3.878906 3.015625 -3.765625 C 2.847656 -3.648438 2.710938 -3.535156 2.609375 -3.421875 L 2.609375 -1.046875 C 2.609375 -0.941406 2.644531 -0.851562 2.71875 -0.78125 C 2.789062 -0.707031 2.878906 -0.671875 2.984375 -0.671875 Z M 8.546875 -0.671875 L 8.546875 0 L 8.296875 0 C 8.015625 0 7.742188 -0.140625 7.484375 -0.421875 C 7.234375 -0.140625 6.960938 0 6.671875 0 L 2.875 0 C 2.726562 0 2.566406 -0.0703125 2.390625 -0.21875 C 2.222656 -0.0703125 2.0625 0 1.90625 0 L -0.046875 0 C -0.0976562 0 -0.148438 -0.00390625 -0.203125 -0.015625 C -0.265625 -0.0351562 -0.296875 -0.0703125 -0.296875 -0.125 L -0.296875 -0.5625 C -0.296875 -0.613281 -0.265625 -0.644531 -0.203125 -0.65625 C -0.148438 -0.664062 -0.0976562 -0.671875 -0.046875 -0.671875 L 1.390625 -0.671875 C 1.484375 -0.671875 1.5625 -0.707031 1.625 -0.78125 C 1.695312 -0.851562 1.734375 -0.9375 1.734375 -1.03125 L 1.734375 -5.03125 L 2.609375 -5.03125 L 2.609375 -4.140625 C 2.785156 -4.285156 2.976562 -4.414062 3.1875 -4.53125 C 3.394531 -4.644531 3.609375 -4.742188 3.828125 -4.828125 C 4.054688 -4.921875 4.285156 -4.988281 4.515625 -5.03125 C 4.753906 -5.082031 4.984375 -5.109375 5.203125 -5.109375 C 5.609375 -5.109375 5.96875 -5.039062 6.28125 -4.90625 C 6.59375 -4.78125 6.851562 -4.601562 7.0625 -4.375 C 7.269531 -4.144531 7.425781 -3.875 7.53125 -3.5625 C 7.632812 -3.25 7.6875 -2.90625 7.6875 -2.53125 L 7.6875 -1.046875 C 7.6875 -0.941406 7.722656 -0.851562 7.796875 -0.78125 C 7.867188 -0.707031 7.957031 -0.671875 8.0625 -0.671875 Z M 8.546875 -0.671875 "/></g></g></g><g fill="#000000" fill-opacity="1"><g transform="translate(253.751019, 145.375748)"><g><path d="M 1.078125 -0.671875 C 1.171875 -0.671875 1.253906 -0.707031 1.328125 -0.78125 C 1.398438 -0.851562 1.4375 -0.9375 1.4375 -1.03125 L 1.4375 -7.3125 L 2.3125 -7.3125 L 2.3125 -1.03125 C 2.3125 -0.882812 2.28125 -0.75 2.21875 -0.625 C 2.164062 -0.507812 2.09375 -0.398438 2 -0.296875 C 1.914062 -0.203125 1.804688 -0.128906 1.671875 -0.078125 C 1.546875 -0.0234375 1.414062 0 1.28125 0 L -0.046875 0 C -0.0976562 0 -0.148438 -0.00390625 -0.203125 -0.015625 C -0.265625 -0.0351562 -0.296875 -0.0703125 -0.296875 -0.125 L -0.296875 -0.5625 C -0.296875 -0.613281 -0.265625 -0.644531 -0.203125 -0.65625 C -0.148438 -0.664062 -0.0976562 -0.671875 -0.046875 -0.671875 Z M 1.078125 -0.671875 "/></g></g></g><g fill="#000000" fill-opacity="1"><g transform="translate(256.703167, 145.375748)"><g><path d="M 1.5625 0 L 0.703125 0 L 0.703125 -7.3125 L 1.5625 -7.3125 Z M 1.5625 0 "/></g></g></g><g fill="#000000" fill-opacity="1"><g transform="translate(258.989346, 145.375748)"><g/></g></g><g fill="#000000" fill-opacity="1"><g transform="translate(261.275524, 145.375748)"><g><path d="M 5.671875 -0.234375 C 5.628906 0.265625 5.410156 0.644531 5.015625 0.90625 C 4.628906 1.175781 4.054688 1.3125 3.296875 1.3125 C 2.753906 1.3125 2.304688 1.226562 1.953125 1.0625 C 1.609375 0.90625 1.332031 0.703125 1.125 0.453125 C 0.914062 0.210938 0.769531 -0.0625 0.6875 -0.375 C 0.601562 -0.6875 0.5625 -0.992188 0.5625 -1.296875 C 0.5625 -1.484375 0.578125 -1.679688 0.609375 -1.890625 C 0.640625 -2.109375 0.679688 -2.320312 0.734375 -2.53125 C 0.796875 -2.738281 0.867188 -2.929688 0.953125 -3.109375 C 1.046875 -3.296875 1.144531 -3.445312 1.25 -3.5625 L 1.375 -3.5625 L 1.671875 -3.265625 C 1.785156 -3.140625 1.804688 -3.003906 1.734375 -2.859375 C 1.617188 -2.628906 1.539062 -2.367188 1.5 -2.078125 C 1.457031 -1.796875 1.4375 -1.523438 1.4375 -1.265625 C 1.4375 -0.671875 1.585938 -0.207031 1.890625 0.125 C 2.203125 0.46875 2.671875 0.640625 3.296875 0.640625 C 3.648438 0.640625 3.925781 0.613281 4.125 0.5625 C 4.332031 0.507812 4.488281 0.4375 4.59375 0.34375 C 4.695312 0.25 4.757812 0.140625 4.78125 0.015625 C 4.8125 -0.109375 4.828125 -0.242188 4.828125 -0.390625 L 4.828125 -7.3125 L 5.6875 -7.3125 L 5.6875 -1.046875 C 5.6875 -0.941406 5.722656 -0.851562 5.796875 -0.78125 C 5.867188 -0.707031 5.960938 -0.671875 6.078125 -0.671875 L 6.59375 -0.671875 L 6.59375 0 L 6.234375 0 C 6.023438 0 5.835938 -0.078125 5.671875 -0.234375 Z M 5.671875 -0.234375 "/></g></g></g><g fill="#000000" fill-opacity="1"><g transform="translate(267.815973, 145.375748)"><g><path d="M -0.296875 -0.5625 C -0.296875 -0.613281 -0.265625 -0.644531 -0.203125 -0.65625 C -0.148438 -0.664062 -0.0976562 -0.671875 -0.046875 -0.671875 L 4.375 -0.671875 C 4.46875 -0.671875 4.550781 -0.707031 4.625 -0.78125 C 4.695312 -0.851562 4.734375 -0.9375 4.734375 -1.03125 L 4.734375 -2.4375 C 4.734375 -2.675781 4.707031 -2.910156 4.65625 -3.140625 C 4.601562 -3.367188 4.515625 -3.570312 4.390625 -3.75 C 4.265625 -3.9375 4.101562 -4.082031 3.90625 -4.1875 C 3.707031 -4.300781 3.46875 -4.359375 3.1875 -4.359375 L 0.90625 -4.359375 L 0.90625 -5.03125 L 2.890625 -7.125 C 2.941406 -7.1875 2.992188 -7.234375 3.046875 -7.265625 C 3.097656 -7.296875 3.160156 -7.3125 3.234375 -7.3125 L 4 -7.3125 L 2.234375 -5.421875 C 2.191406 -5.378906 2.140625 -5.320312 2.078125 -5.25 C 2.015625 -5.1875 1.921875 -5.109375 1.796875 -5.015625 L 3.21875 -5.015625 C 3.59375 -5.015625 3.925781 -4.953125 4.21875 -4.828125 C 4.519531 -4.703125 4.769531 -4.523438 4.96875 -4.296875 C 5.175781 -4.066406 5.332031 -3.789062 5.4375 -3.46875 C 5.539062 -3.15625 5.59375 -2.8125 5.59375 -2.4375 L 5.59375 -1.1875 C 5.59375 -0.851562 5.507812 -0.570312 5.34375 -0.34375 C 5.1875 -0.113281 4.925781 0 4.5625 0 L -0.046875 0 C -0.0976562 0 -0.148438 -0.00390625 -0.203125 -0.015625 C -0.265625 -0.0351562 -0.296875 -0.0703125 -0.296875 -0.125 Z M -0.296875 -0.5625 "/></g></g></g></svg>