<?xml version="1.0" encoding="UTF-8" standalone="no"?>
<!DOCTYPE svg PUBLIC "-//W3C//DTD SVG 1.1//EN"
 "http://www.w3.org/Graphics/SVG/1.1/DTD/svg11.dtd">
<!-- Generated by graphviz version 2.47.0 (20210316.0004)
 -->
<!-- Title: dependencies Pages: 1 -->
<svg width="1015pt" height="211pt"
 viewBox="0.00 0.00 1015.00 211.00" xmlns="http://www.w3.org/2000/svg" xmlns:xlink="http://www.w3.org/1999/xlink">
<g id="graph0" class="graph" transform="scale(1 1) rotate(0) translate(4 207)">
<title>dependencies</title>
<polygon fill="white" stroke="transparent" points="-4,4 -4,-207 1011,-207 1011,4 -4,4"/>
<text text-anchor="start" x="482.51" y="-42.4" font-family="Times-12" font-weight="bold" font-size="14.00">Legend</text>
<polygon fill="#ffffb3" stroke="transparent" points="269.5,-10 269.5,-30 289.5,-30 289.5,-10 269.5,-10"/>
<text text-anchor="start" x="293.13" y="-15.4" font-family="Times-12" font-size="14.00"> &#160;Declarations</text>
<polygon fill="#8dd3c7" stroke="transparent" points="382.5,-10 382.5,-30 402.5,-30 402.5,-10 382.5,-10"/>
<text text-anchor="start" x="406.23" y="-15.4" font-family="Times-12" font-size="14.00"> &#160;Module</text>
<polygon fill="#80b1d3" stroke="transparent" points="468.5,-10 468.5,-30 488.5,-30 488.5,-10 468.5,-10"/>
<text text-anchor="start" x="492.28" y="-15.4" font-family="Times-12" font-size="14.00"> &#160;Bootstrap</text>
<polygon fill="#fdb462" stroke="transparent" points="565.5,-10 565.5,-30 585.5,-30 585.5,-10 565.5,-10"/>
<text text-anchor="start" x="589.17" y="-15.4" font-family="Times-12" font-size="14.00"> &#160;Providers</text>
<polygon fill="#fb8072" stroke="transparent" points="661.5,-10 661.5,-30 681.5,-30 681.5,-10 661.5,-10"/>
<text text-anchor="start" x="685.23" y="-15.4" font-family="Times-12" font-size="14.00"> &#160;Exports</text>
<g id="clust1" class="cluster">
<title>cluster_ServicesModule</title>
<polygon fill="none" stroke="black" stroke-dasharray="1,5" points="8,-70 8,-195 999,-195 999,-70 8,-70"/>
</g>
<g id="clust8" class="cluster">
<title>cluster_ServicesModule_imports</title>
<polygon fill="none" stroke="black" points="877,-78 877,-130 991,-130 991,-78 877,-78"/>
</g>
<g id="clust2" class="cluster">
<title>cluster_ServicesModule_declarations</title>
<polygon fill="none" stroke="black" points="16,-78 16,-130 869,-130 869,-78 16,-78"/>
</g>
<!-- NewRequestComponent -->
<g id="node1" class="node">
<title>NewRequestComponent</title>
<polygon fill="#ffffb3" stroke="black" points="861.36,-122 708.64,-122 708.64,-86 861.36,-86 861.36,-122"/>
<text text-anchor="middle" x="785" y="-99.8" font-family="Times,serif" font-size="14.00">NewRequestComponent</text>
</g>
<!-- ServicesModule -->
<g id="node6" class="node">
<title>ServicesModule</title>
<polygon fill="#8dd3c7" stroke="black" points="579.47,-187 576.47,-191 555.47,-191 552.47,-187 472.53,-187 472.53,-151 579.47,-151 579.47,-187"/>
<text text-anchor="middle" x="526" y="-164.8" font-family="Times,serif" font-size="14.00">ServicesModule</text>
</g>
<!-- NewRequestComponent&#45;&gt;ServicesModule -->
<g id="edge1" class="edge">
<title>NewRequestComponent&#45;&gt;ServicesModule</title>
<path fill="none" stroke="black" d="M785,-122.02C785,-139.37 785,-163 785,-163 785,-163 589.66,-163 589.66,-163"/>
<polygon fill="black" stroke="black" points="589.67,-159.5 579.66,-163 589.66,-166.5 589.67,-159.5"/>
</g>
<!-- RequestsListComponent -->
<g id="node2" class="node">
<title>RequestsListComponent</title>
<polygon fill="#ffffb3" stroke="black" points="690.66,-122 537.34,-122 537.34,-86 690.66,-86 690.66,-122"/>
<text text-anchor="middle" x="614" y="-99.8" font-family="Times,serif" font-size="14.00">RequestsListComponent</text>
</g>
<!-- RequestsListComponent&#45;&gt;ServicesModule -->
<g id="edge2" class="edge">
<title>RequestsListComponent&#45;&gt;ServicesModule</title>
<path fill="none" stroke="black" d="M558.33,-122.11C558.33,-122.11 558.33,-140.99 558.33,-140.99"/>
<polygon fill="black" stroke="black" points="554.83,-140.99 558.33,-150.99 561.83,-140.99 554.83,-140.99"/>
</g>
<!-- ServiceDetailsComponent -->
<g id="node3" class="node">
<title>ServiceDetailsComponent</title>
<polygon fill="#ffffb3" stroke="black" points="519.46,-122 356.54,-122 356.54,-86 519.46,-86 519.46,-122"/>
<text text-anchor="middle" x="438" y="-99.8" font-family="Times,serif" font-size="14.00">ServiceDetailsComponent</text>
</g>
<!-- ServiceDetailsComponent&#45;&gt;ServicesModule -->
<g id="edge3" class="edge">
<title>ServiceDetailsComponent&#45;&gt;ServicesModule</title>
<path fill="none" stroke="black" d="M496,-122.11C496,-122.11 496,-140.99 496,-140.99"/>
<polygon fill="black" stroke="black" points="492.5,-140.99 496,-150.99 499.5,-140.99 492.5,-140.99"/>
</g>
<!-- ServicesListComponent -->
<g id="node4" class="node">
<title>ServicesListComponent</title>
<polygon fill="#ffffb3" stroke="black" points="338.03,-122 187.97,-122 187.97,-86 338.03,-86 338.03,-122"/>
<text text-anchor="middle" x="263" y="-99.8" font-family="Times,serif" font-size="14.00">ServicesListComponent</text>
</g>
<!-- ServicesListComponent&#45;&gt;ServicesModule -->
<g id="edge4" class="edge">
<title>ServicesListComponent&#45;&gt;ServicesModule</title>
<path fill="none" stroke="black" d="M263,-122.02C263,-139.37 263,-163 263,-163 263,-163 462.46,-163 462.46,-163"/>
<polygon fill="black" stroke="black" points="462.46,-166.5 472.46,-163 462.46,-159.5 462.46,-166.5"/>
</g>
<!-- SubServiceComponent -->
<g id="node5" class="node">
<title>SubServiceComponent</title>
<polygon fill="#ffffb3" stroke="black" points="169.59,-122 24.41,-122 24.41,-86 169.59,-86 169.59,-122"/>
<text text-anchor="middle" x="97" y="-99.8" font-family="Times,serif" font-size="14.00">SubServiceComponent</text>
</g>
<!-- SubServiceComponent&#45;&gt;ServicesModule -->
<g id="edge5" class="edge">
<title>SubServiceComponent&#45;&gt;ServicesModule</title>
<path fill="none" stroke="black" d="M97,-122.28C97,-143.32 97,-175 97,-175 97,-175 462.1,-175 462.1,-175"/>
<polygon fill="black" stroke="black" points="462.1,-178.5 472.1,-175 462.1,-171.5 462.1,-178.5"/>
</g>
<!-- SharedModule -->
<g id="node7" class="node">
<title>SharedModule</title>
<polygon fill="#8dd3c7" stroke="black" points="983.42,-122 980.42,-126 959.42,-126 956.42,-122 884.58,-122 884.58,-86 983.42,-86 983.42,-122"/>
<text text-anchor="middle" x="934" y="-99.8" font-family="Times,serif" font-size="14.00">SharedModule</text>
</g>
<!-- SharedModule&#45;&gt;ServicesModule -->
<g id="edge6" class="edge">
<title>SharedModule&#45;&gt;ServicesModule</title>
<path fill="none" stroke="black" d="M934,-122.28C934,-143.32 934,-175 934,-175 934,-175 589.76,-175 589.76,-175"/>
<polygon fill="black" stroke="black" points="589.76,-171.5 579.76,-175 589.76,-178.5 589.76,-171.5"/>
</g>
</g>
</svg>
