<?xml version="1.0" encoding="UTF-8" standalone="no"?>
<!DOCTYPE svg PUBLIC "-//W3C//DTD SVG 1.1//EN"
 "http://www.w3.org/Graphics/SVG/1.1/DTD/svg11.dtd">
<!-- Generated by graphviz version 2.47.0 (20210316.0004)
 -->
<!-- Title: dependencies Pages: 1 -->
<svg width="1015pt" height="211pt"
 viewBox="0.00 0.00 1015.00 211.00" xmlns="http://www.w3.org/2000/svg" xmlns:xlink="http://www.w3.org/1999/xlink">
<g id="graph0" class="graph" transform="scale(1 1) rotate(0) translate(4 207)">
<title>dependencies</title>
<polygon fill="white" stroke="transparent" points="-4,4 -4,-207 1011,-207 1011,4 -4,4"/>
<text text-anchor="start" x="482.51" y="-42.4" font-family="Times-12" font-weight="bold" font-size="14.00">Legend</text>
<polygon fill="#ffffb3" stroke="transparent" points="269.5,-10 269.5,-30 289.5,-30 289.5,-10 269.5,-10"/>
<text text-anchor="start" x="293.13" y="-15.4" font-family="Times-12" font-size="14.00"> &#160;Declarations</text>
<polygon fill="#8dd3c7" stroke="transparent" points="382.5,-10 382.5,-30 402.5,-30 402.5,-10 382.5,-10"/>
<text text-anchor="start" x="406.23" y="-15.4" font-family="Times-12" font-size="14.00"> &#160;Module</text>
<polygon fill="#80b1d3" stroke="transparent" points="468.5,-10 468.5,-30 488.5,-30 488.5,-10 468.5,-10"/>
<text text-anchor="start" x="492.28" y="-15.4" font-family="Times-12" font-size="14.00"> &#160;Bootstrap</text>
<polygon fill="#fdb462" stroke="transparent" points="565.5,-10 565.5,-30 585.5,-30 585.5,-10 565.5,-10"/>
<text text-anchor="start" x="589.17" y="-15.4" font-family="Times-12" font-size="14.00"> &#160;Providers</text>
<polygon fill="#fb8072" stroke="transparent" points="661.5,-10 661.5,-30 681.5,-30 681.5,-10 661.5,-10"/>
<text text-anchor="start" x="685.23" y="-15.4" font-family="Times-12" font-size="14.00"> &#160;Exports</text>
<g id="clust1" class="cluster">
<title>cluster_ServicesModule</title>
<polygon fill="none" stroke="black" stroke-dasharray="1,5" points="8,-70 8,-195 999,-195 999,-70 8,-70"/>
</g>
<g id="clust2" class="cluster">
<title>cluster_ServicesModule_declarations</title>
<polygon fill="none" stroke="black" points="138,-78 138,-130 991,-130 991,-78 138,-78"/>
</g>
<g id="clust8" class="cluster">
<title>cluster_ServicesModule_imports</title>
<polygon fill="none" stroke="black" points="16,-78 16,-130 130,-130 130,-78 16,-78"/>
</g>
<!-- NewRequestComponent -->
<g id="node1" class="node">
<title>NewRequestComponent</title>
<polygon fill="#ffffb3" stroke="black" points="983.36,-122 830.64,-122 830.64,-86 983.36,-86 983.36,-122"/>
<text text-anchor="middle" x="907" y="-99.8" font-family="Times,serif" font-size="14.00">NewRequestComponent</text>
</g>
<!-- ServicesModule -->
<g id="node6" class="node">
<title>ServicesModule</title>
<polygon fill="#8dd3c7" stroke="black" points="525.47,-187 522.47,-191 501.47,-191 498.47,-187 418.53,-187 418.53,-151 525.47,-151 525.47,-187"/>
<text text-anchor="middle" x="472" y="-164.8" font-family="Times,serif" font-size="14.00">ServicesModule</text>
</g>
<!-- NewRequestComponent&#45;&gt;ServicesModule -->
<g id="edge1" class="edge">
<title>NewRequestComponent&#45;&gt;ServicesModule</title>
<path fill="none" stroke="black" d="M907,-122.28C907,-143.32 907,-175 907,-175 907,-175 535.78,-175 535.78,-175"/>
<polygon fill="black" stroke="black" points="535.78,-171.5 525.78,-175 535.78,-178.5 535.78,-171.5"/>
</g>
<!-- RequestsListComponent -->
<g id="node2" class="node">
<title>RequestsListComponent</title>
<polygon fill="#ffffb3" stroke="black" points="812.66,-122 659.34,-122 659.34,-86 812.66,-86 812.66,-122"/>
<text text-anchor="middle" x="736" y="-99.8" font-family="Times,serif" font-size="14.00">RequestsListComponent</text>
</g>
<!-- RequestsListComponent&#45;&gt;ServicesModule -->
<g id="edge2" class="edge">
<title>RequestsListComponent&#45;&gt;ServicesModule</title>
<path fill="none" stroke="black" d="M736,-122.02C736,-139.37 736,-163 736,-163 736,-163 535.74,-163 535.74,-163"/>
<polygon fill="black" stroke="black" points="535.74,-159.5 525.74,-163 535.74,-166.5 535.74,-159.5"/>
</g>
<!-- ServiceDetailsComponent -->
<g id="node3" class="node">
<title>ServiceDetailsComponent</title>
<polygon fill="#ffffb3" stroke="black" points="641.46,-122 478.54,-122 478.54,-86 641.46,-86 641.46,-122"/>
<text text-anchor="middle" x="560" y="-99.8" font-family="Times,serif" font-size="14.00">ServiceDetailsComponent</text>
</g>
<!-- ServiceDetailsComponent&#45;&gt;ServicesModule -->
<g id="edge3" class="edge">
<title>ServiceDetailsComponent&#45;&gt;ServicesModule</title>
<path fill="none" stroke="black" d="M502,-122.11C502,-122.11 502,-140.99 502,-140.99"/>
<polygon fill="black" stroke="black" points="498.5,-140.99 502,-150.99 505.5,-140.99 498.5,-140.99"/>
</g>
<!-- ServicesListComponent -->
<g id="node4" class="node">
<title>ServicesListComponent</title>
<polygon fill="#ffffb3" stroke="black" points="460.03,-122 309.97,-122 309.97,-86 460.03,-86 460.03,-122"/>
<text text-anchor="middle" x="385" y="-99.8" font-family="Times,serif" font-size="14.00">ServicesListComponent</text>
</g>
<!-- ServicesListComponent&#45;&gt;ServicesModule -->
<g id="edge4" class="edge">
<title>ServicesListComponent&#45;&gt;ServicesModule</title>
<path fill="none" stroke="black" d="M439.39,-122.11C439.39,-122.11 439.39,-140.99 439.39,-140.99"/>
<polygon fill="black" stroke="black" points="435.89,-140.99 439.39,-150.99 442.89,-140.99 435.89,-140.99"/>
</g>
<!-- SubServiceComponent -->
<g id="node5" class="node">
<title>SubServiceComponent</title>
<polygon fill="#ffffb3" stroke="black" points="291.59,-122 146.41,-122 146.41,-86 291.59,-86 291.59,-122"/>
<text text-anchor="middle" x="219" y="-99.8" font-family="Times,serif" font-size="14.00">SubServiceComponent</text>
</g>
<!-- SubServiceComponent&#45;&gt;ServicesModule -->
<g id="edge5" class="edge">
<title>SubServiceComponent&#45;&gt;ServicesModule</title>
<path fill="none" stroke="black" d="M219,-122.02C219,-139.37 219,-163 219,-163 219,-163 408.35,-163 408.35,-163"/>
<polygon fill="black" stroke="black" points="408.35,-166.5 418.35,-163 408.35,-159.5 408.35,-166.5"/>
</g>
<!-- SharedModule -->
<g id="node7" class="node">
<title>SharedModule</title>
<polygon fill="#8dd3c7" stroke="black" points="122.42,-122 119.42,-126 98.42,-126 95.42,-122 23.58,-122 23.58,-86 122.42,-86 122.42,-122"/>
<text text-anchor="middle" x="73" y="-99.8" font-family="Times,serif" font-size="14.00">SharedModule</text>
</g>
<!-- SharedModule&#45;&gt;ServicesModule -->
<g id="edge6" class="edge">
<title>SharedModule&#45;&gt;ServicesModule</title>
<path fill="none" stroke="black" d="M73,-122.28C73,-143.32 73,-175 73,-175 73,-175 408.19,-175 408.19,-175"/>
<polygon fill="black" stroke="black" points="408.19,-178.5 418.19,-175 408.19,-171.5 408.19,-178.5"/>
</g>
</g>
</svg>
