<?xml version="1.0" encoding="UTF-8" standalone="no"?>
<!DOCTYPE svg PUBLIC "-//W3C//DTD SVG 1.1//EN"
 "http://www.w3.org/Graphics/SVG/1.1/DTD/svg11.dtd">
<!-- Generated by graphviz version 2.47.0 (20210316.0004)
 -->
<!-- Title: dependencies Pages: 1 -->
<svg width="1146pt" height="284pt"
 viewBox="0.00 0.00 1146.00 284.00" xmlns="http://www.w3.org/2000/svg" xmlns:xlink="http://www.w3.org/1999/xlink">
<g id="graph0" class="graph" transform="scale(1 1) rotate(0) translate(4 280)">
<title>dependencies</title>
<polygon fill="white" stroke="transparent" points="-4,4 -4,-280 1142,-280 1142,4 -4,4"/>
<text text-anchor="start" x="548.01" y="-42.4" font-family="Times-12" font-weight="bold" font-size="14.00">Legend</text>
<polygon fill="#ffffb3" stroke="transparent" points="335,-10 335,-30 355,-30 355,-10 335,-10"/>
<text text-anchor="start" x="358.63" y="-15.4" font-family="Times-12" font-size="14.00"> &#160;Declarations</text>
<polygon fill="#8dd3c7" stroke="transparent" points="448,-10 448,-30 468,-30 468,-10 448,-10"/>
<text text-anchor="start" x="471.73" y="-15.4" font-family="Times-12" font-size="14.00"> &#160;Module</text>
<polygon fill="#80b1d3" stroke="transparent" points="534,-10 534,-30 554,-30 554,-10 534,-10"/>
<text text-anchor="start" x="557.78" y="-15.4" font-family="Times-12" font-size="14.00"> &#160;Bootstrap</text>
<polygon fill="#fdb462" stroke="transparent" points="631,-10 631,-30 651,-30 651,-10 631,-10"/>
<text text-anchor="start" x="654.67" y="-15.4" font-family="Times-12" font-size="14.00"> &#160;Providers</text>
<polygon fill="#fb8072" stroke="transparent" points="727,-10 727,-30 747,-30 747,-10 727,-10"/>
<text text-anchor="start" x="750.73" y="-15.4" font-family="Times-12" font-size="14.00"> &#160;Exports</text>
<g id="clust1" class="cluster">
<title>cluster_SharedModule</title>
<polygon fill="none" stroke="black" stroke-dasharray="1,5" points="8,-70 8,-268 1130,-268 1130,-70 8,-70"/>
</g>
<g id="clust11" class="cluster">
<title>cluster_SharedModule_exports</title>
<polygon fill="none" stroke="black" points="102,-208 102,-260 1034,-260 1034,-208 102,-208"/>
</g>
<g id="clust2" class="cluster">
<title>cluster_SharedModule_declarations</title>
<polygon fill="none" stroke="black" points="16,-78 16,-130 1122,-130 1122,-78 16,-78"/>
</g>
<!-- BackButtonComponent -->
<g id="node1" class="node">
<title>BackButtonComponent</title>
<polygon fill="#ffffb3" stroke="black" points="1114.22,-122 965.78,-122 965.78,-86 1114.22,-86 1114.22,-122"/>
<text text-anchor="middle" x="1040" y="-99.8" font-family="Times,serif" font-size="14.00">BackButtonComponent</text>
</g>
<!-- SharedModule -->
<g id="node8" class="node">
<title>SharedModule</title>
<polygon fill="#8dd3c7" stroke="black" points="584.42,-187 581.42,-191 560.42,-191 557.42,-187 485.58,-187 485.58,-151 584.42,-151 584.42,-187"/>
<text text-anchor="middle" x="535" y="-164.8" font-family="Times,serif" font-size="14.00">SharedModule</text>
</g>
<!-- BackButtonComponent&#45;&gt;SharedModule -->
<g id="edge1" class="edge">
<title>BackButtonComponent&#45;&gt;SharedModule</title>
<path fill="none" stroke="black" d="M995.88,-122.11C995.88,-141.34 995.88,-169 995.88,-169 995.88,-169 594.32,-169 594.32,-169"/>
<polygon fill="black" stroke="black" points="594.32,-165.5 584.32,-169 594.32,-172.5 594.32,-165.5"/>
</g>
<!-- FeaturedSliderComponent -->
<g id="node2" class="node">
<title>FeaturedSliderComponent</title>
<polygon fill="#ffffb3" stroke="black" points="947.75,-122 784.25,-122 784.25,-86 947.75,-86 947.75,-122"/>
<text text-anchor="middle" x="866" y="-99.8" font-family="Times,serif" font-size="14.00">FeaturedSliderComponent</text>
</g>
<!-- FeaturedSliderComponent&#45;&gt;SharedModule -->
<g id="edge2" class="edge">
<title>FeaturedSliderComponent&#45;&gt;SharedModule</title>
<path fill="none" stroke="black" d="M820.38,-122.02C820.38,-139.37 820.38,-163 820.38,-163 820.38,-163 594.38,-163 594.38,-163"/>
<polygon fill="black" stroke="black" points="594.38,-159.5 584.38,-163 594.38,-166.5 594.38,-159.5"/>
</g>
<!-- NavBarComponent -->
<g id="node3" class="node">
<title>NavBarComponent</title>
<polygon fill="#ffffb3" stroke="black" points="766.37,-122 641.63,-122 641.63,-86 766.37,-86 766.37,-122"/>
<text text-anchor="middle" x="704" y="-99.8" font-family="Times,serif" font-size="14.00">NavBarComponent</text>
</g>
<!-- NavBarComponent&#45;&gt;SharedModule -->
<g id="edge3" class="edge">
<title>NavBarComponent&#45;&gt;SharedModule</title>
<path fill="none" stroke="black" d="M656.38,-122.24C656.38,-137.57 656.38,-157 656.38,-157 656.38,-157 594.37,-157 594.37,-157"/>
<polygon fill="black" stroke="black" points="594.37,-153.5 584.37,-157 594.37,-160.5 594.37,-153.5"/>
</g>
<!-- PriceNegotiationComponent -->
<g id="node4" class="node">
<title>PriceNegotiationComponent</title>
<polygon fill="#ffffb3" stroke="black" points="623.19,-122 446.81,-122 446.81,-86 623.19,-86 623.19,-122"/>
<text text-anchor="middle" x="535" y="-99.8" font-family="Times,serif" font-size="14.00">PriceNegotiationComponent</text>
</g>
<!-- PriceNegotiationComponent&#45;&gt;SharedModule -->
<g id="edge4" class="edge">
<title>PriceNegotiationComponent&#45;&gt;SharedModule</title>
<path fill="none" stroke="black" d="M535,-122.11C535,-122.11 535,-140.99 535,-140.99"/>
<polygon fill="black" stroke="black" points="531.5,-140.99 535,-150.99 538.5,-140.99 531.5,-140.99"/>
</g>
<!-- RequestStatusPipe -->
<g id="node5" class="node">
<title>RequestStatusPipe</title>
<polygon fill="#ffffb3" stroke="black" points="429.21,-122 308.79,-122 308.79,-86 429.21,-86 429.21,-122"/>
<text text-anchor="middle" x="369" y="-99.8" font-family="Times,serif" font-size="14.00">RequestStatusPipe</text>
</g>
<!-- RequestStatusPipe&#45;&gt;SharedModule -->
<g id="edge5" class="edge">
<title>RequestStatusPipe&#45;&gt;SharedModule</title>
<path fill="none" stroke="black" d="M415.12,-122.24C415.12,-137.57 415.12,-157 415.12,-157 415.12,-157 475.55,-157 475.55,-157"/>
<polygon fill="black" stroke="black" points="475.55,-160.5 485.55,-157 475.55,-153.5 475.55,-160.5"/>
</g>
<!-- SearchBarComponent -->
<g id="node6" class="node">
<title>SearchBarComponent</title>
<polygon fill="#ffffb3" stroke="black" points="290.63,-122 151.37,-122 151.37,-86 290.63,-86 290.63,-122"/>
<text text-anchor="middle" x="221" y="-99.8" font-family="Times,serif" font-size="14.00">SearchBarComponent</text>
</g>
<!-- SearchBarComponent&#45;&gt;SharedModule -->
<g id="edge6" class="edge">
<title>SearchBarComponent&#45;&gt;SharedModule</title>
<path fill="none" stroke="black" d="M265.62,-122.02C265.62,-139.37 265.62,-163 265.62,-163 265.62,-163 475.59,-163 475.59,-163"/>
<polygon fill="black" stroke="black" points="475.59,-166.5 485.59,-163 475.59,-159.5 475.59,-166.5"/>
</g>
<!-- UrlSanitizerPipe -->
<g id="node7" class="node">
<title>UrlSanitizerPipe</title>
<polygon fill="#ffffb3" stroke="black" points="133.8,-122 24.2,-122 24.2,-86 133.8,-86 133.8,-122"/>
<text text-anchor="middle" x="79" y="-99.8" font-family="Times,serif" font-size="14.00">UrlSanitizerPipe</text>
</g>
<!-- UrlSanitizerPipe&#45;&gt;SharedModule -->
<g id="edge7" class="edge">
<title>UrlSanitizerPipe&#45;&gt;SharedModule</title>
<path fill="none" stroke="black" d="M121.62,-122.11C121.62,-141.34 121.62,-169 121.62,-169 121.62,-169 475.55,-169 475.55,-169"/>
<polygon fill="black" stroke="black" points="475.55,-172.5 485.55,-169 475.55,-165.5 475.55,-172.5"/>
</g>
<!-- BackButtonComponent  -->
<g id="node9" class="node">
<title>BackButtonComponent </title>
<polygon fill="#fb8072" stroke="black" points="1025.72,-252 874.28,-252 874.28,-216 1025.72,-216 1025.72,-252"/>
<text text-anchor="middle" x="950" y="-229.8" font-family="Times,serif" font-size="14.00">BackButtonComponent </text>
</g>
<!-- SharedModule&#45;&gt;BackButtonComponent  -->
<g id="edge8" class="edge">
<title>SharedModule&#45;&gt;BackButtonComponent </title>
<path fill="none" stroke="black" stroke-dasharray="5,2" d="M584.54,-175C686.65,-175 911.01,-175 911.01,-175 911.01,-175 911.01,-205.98 911.01,-205.98"/>
<polygon fill="black" stroke="black" points="907.51,-205.98 911.01,-215.98 914.51,-205.98 907.51,-205.98"/>
</g>
<!-- FeaturedSliderComponent  -->
<g id="node10" class="node">
<title>FeaturedSliderComponent </title>
<polygon fill="#fb8072" stroke="black" points="856.75,-252 689.25,-252 689.25,-216 856.75,-216 856.75,-252"/>
<text text-anchor="middle" x="773" y="-229.8" font-family="Times,serif" font-size="14.00">FeaturedSliderComponent </text>
</g>
<!-- SharedModule&#45;&gt;FeaturedSliderComponent  -->
<g id="edge9" class="edge">
<title>SharedModule&#45;&gt;FeaturedSliderComponent </title>
<path fill="none" stroke="black" stroke-dasharray="5,2" d="M584.43,-181C641.58,-181 727.9,-181 727.9,-181 727.9,-181 727.9,-205.76 727.9,-205.76"/>
<polygon fill="black" stroke="black" points="724.4,-205.76 727.9,-215.76 731.4,-205.76 724.4,-205.76"/>
</g>
<!-- NavBarComponent  -->
<g id="node11" class="node">
<title>NavBarComponent </title>
<polygon fill="#fb8072" stroke="black" points="671.37,-252 542.63,-252 542.63,-216 671.37,-216 671.37,-252"/>
<text text-anchor="middle" x="607" y="-229.8" font-family="Times,serif" font-size="14.00">NavBarComponent </text>
</g>
<!-- SharedModule&#45;&gt;NavBarComponent  -->
<g id="edge10" class="edge">
<title>SharedModule&#45;&gt;NavBarComponent </title>
<path fill="none" stroke="black" stroke-dasharray="5,2" d="M563.51,-187.11C563.51,-187.11 563.51,-205.99 563.51,-205.99"/>
<polygon fill="black" stroke="black" points="560.01,-205.99 563.51,-215.99 567.01,-205.99 560.01,-205.99"/>
</g>
<!-- RequestStatusPipe  -->
<g id="node12" class="node">
<title>RequestStatusPipe </title>
<polygon fill="#fb8072" stroke="black" points="524.71,-252 401.29,-252 401.29,-216 524.71,-216 524.71,-252"/>
<text text-anchor="middle" x="463" y="-229.8" font-family="Times,serif" font-size="14.00">RequestStatusPipe </text>
</g>
<!-- SharedModule&#45;&gt;RequestStatusPipe  -->
<g id="edge11" class="edge">
<title>SharedModule&#45;&gt;RequestStatusPipe </title>
<path fill="none" stroke="black" stroke-dasharray="5,2" d="M505.32,-187.11C505.32,-187.11 505.32,-205.99 505.32,-205.99"/>
<polygon fill="black" stroke="black" points="501.82,-205.99 505.32,-215.99 508.82,-205.99 501.82,-205.99"/>
</g>
<!-- SearchBarComponent  -->
<g id="node13" class="node">
<title>SearchBarComponent </title>
<polygon fill="#fb8072" stroke="black" points="383.63,-252 240.37,-252 240.37,-216 383.63,-216 383.63,-252"/>
<text text-anchor="middle" x="312" y="-229.8" font-family="Times,serif" font-size="14.00">SearchBarComponent </text>
</g>
<!-- SharedModule&#45;&gt;SearchBarComponent  -->
<g id="edge12" class="edge">
<title>SharedModule&#45;&gt;SearchBarComponent </title>
<path fill="none" stroke="black" stroke-dasharray="5,2" d="M485.4,-181C429.47,-181 346.23,-181 346.23,-181 346.23,-181 346.23,-205.76 346.23,-205.76"/>
<polygon fill="black" stroke="black" points="342.73,-205.76 346.23,-215.76 349.73,-205.76 342.73,-205.76"/>
</g>
<!-- UrlSanitizerPipe  -->
<g id="node14" class="node">
<title>UrlSanitizerPipe </title>
<polygon fill="#fb8072" stroke="black" points="222.3,-252 109.7,-252 109.7,-216 222.3,-216 222.3,-252"/>
<text text-anchor="middle" x="166" y="-229.8" font-family="Times,serif" font-size="14.00">UrlSanitizerPipe </text>
</g>
<!-- SharedModule&#45;&gt;UrlSanitizerPipe  -->
<g id="edge13" class="edge">
<title>SharedModule&#45;&gt;UrlSanitizerPipe </title>
<path fill="none" stroke="black" stroke-dasharray="5,2" d="M485.48,-175C389.35,-175 186.79,-175 186.79,-175 186.79,-175 186.79,-205.98 186.79,-205.98"/>
<polygon fill="black" stroke="black" points="183.29,-205.98 186.79,-215.98 190.29,-205.98 183.29,-205.98"/>
</g>
</g>
</svg>
