<?xml version="1.0" encoding="UTF-8" standalone="no"?>
<!DOCTYPE svg PUBLIC "-//W3C//DTD SVG 1.1//EN"
 "http://www.w3.org/Graphics/SVG/1.1/DTD/svg11.dtd">
<!-- Generated by graphviz version 2.47.0 (20210316.0004)
 -->
<!-- Title: dependencies Pages: 1 -->
<svg width="1807pt" height="211pt"
 viewBox="0.00 0.00 1807.00 211.00" xmlns="http://www.w3.org/2000/svg" xmlns:xlink="http://www.w3.org/1999/xlink">
<g id="graph0" class="graph" transform="scale(1 1) rotate(0) translate(4 207)">
<title>dependencies</title>
<polygon fill="white" stroke="transparent" points="-4,4 -4,-207 1803,-207 1803,4 -4,4"/>
<text text-anchor="start" x="878.51" y="-42.4" font-family="Times-12" font-weight="bold" font-size="14.00">Legend</text>
<polygon fill="#ffffb3" stroke="transparent" points="665.5,-10 665.5,-30 685.5,-30 685.5,-10 665.5,-10"/>
<text text-anchor="start" x="689.13" y="-15.4" font-family="Times-12" font-size="14.00"> &#160;Declarations</text>
<polygon fill="#8dd3c7" stroke="transparent" points="778.5,-10 778.5,-30 798.5,-30 798.5,-10 778.5,-10"/>
<text text-anchor="start" x="802.23" y="-15.4" font-family="Times-12" font-size="14.00"> &#160;Module</text>
<polygon fill="#80b1d3" stroke="transparent" points="864.5,-10 864.5,-30 884.5,-30 884.5,-10 864.5,-10"/>
<text text-anchor="start" x="888.28" y="-15.4" font-family="Times-12" font-size="14.00"> &#160;Bootstrap</text>
<polygon fill="#fdb462" stroke="transparent" points="961.5,-10 961.5,-30 981.5,-30 981.5,-10 961.5,-10"/>
<text text-anchor="start" x="985.17" y="-15.4" font-family="Times-12" font-size="14.00"> &#160;Providers</text>
<polygon fill="#fb8072" stroke="transparent" points="1057.5,-10 1057.5,-30 1077.5,-30 1077.5,-10 1057.5,-10"/>
<text text-anchor="start" x="1081.23" y="-15.4" font-family="Times-12" font-size="14.00"> &#160;Exports</text>
<g id="clust1" class="cluster">
<title>cluster_AuthModule</title>
<polygon fill="none" stroke="black" stroke-dasharray="1,5" points="8,-70 8,-195 1791,-195 1791,-70 8,-70"/>
</g>
<g id="clust12" class="cluster">
<title>cluster_AuthModule_imports</title>
<polygon fill="none" stroke="black" points="1518,-78 1518,-130 1783,-130 1783,-78 1518,-78"/>
</g>
<g id="clust2" class="cluster">
<title>cluster_AuthModule_declarations</title>
<polygon fill="none" stroke="black" points="16,-78 16,-130 1510,-130 1510,-78 16,-78"/>
</g>
<!-- CompleteProfileComponent -->
<g id="node1" class="node">
<title>CompleteProfileComponent</title>
<polygon fill="#ffffb3" stroke="black" points="1501.87,-122 1328.13,-122 1328.13,-86 1501.87,-86 1501.87,-122"/>
<text text-anchor="middle" x="1415" y="-99.8" font-family="Times,serif" font-size="14.00">CompleteProfileComponent</text>
</g>
<!-- AuthModule -->
<g id="node10" class="node">
<title>AuthModule</title>
<polygon fill="#8dd3c7" stroke="black" points="975.55,-187 972.55,-191 951.55,-191 948.55,-187 888.45,-187 888.45,-151 975.55,-151 975.55,-187"/>
<text text-anchor="middle" x="932" y="-164.8" font-family="Times,serif" font-size="14.00">AuthModule</text>
</g>
<!-- CompleteProfileComponent&#45;&gt;AuthModule -->
<g id="edge1" class="edge">
<title>CompleteProfileComponent&#45;&gt;AuthModule</title>
<path fill="none" stroke="black" d="M1415,-122.11C1415,-141.34 1415,-169 1415,-169 1415,-169 985.71,-169 985.71,-169"/>
<polygon fill="black" stroke="black" points="985.71,-165.5 975.71,-169 985.71,-172.5 985.71,-165.5"/>
</g>
<!-- EmailRegisterComponent -->
<g id="node2" class="node">
<title>EmailRegisterComponent</title>
<polygon fill="#ffffb3" stroke="black" points="1309.92,-122 1148.08,-122 1148.08,-86 1309.92,-86 1309.92,-122"/>
<text text-anchor="middle" x="1229" y="-99.8" font-family="Times,serif" font-size="14.00">EmailRegisterComponent</text>
</g>
<!-- EmailRegisterComponent&#45;&gt;AuthModule -->
<g id="edge2" class="edge">
<title>EmailRegisterComponent&#45;&gt;AuthModule</title>
<path fill="none" stroke="black" d="M1229,-122.02C1229,-139.37 1229,-163 1229,-163 1229,-163 985.82,-163 985.82,-163"/>
<polygon fill="black" stroke="black" points="985.82,-159.5 975.82,-163 985.82,-166.5 985.82,-159.5"/>
</g>
<!-- LoginComponent -->
<g id="node3" class="node">
<title>LoginComponent</title>
<polygon fill="#ffffb3" stroke="black" points="1130.28,-122 1015.72,-122 1015.72,-86 1130.28,-86 1130.28,-122"/>
<text text-anchor="middle" x="1073" y="-99.8" font-family="Times,serif" font-size="14.00">LoginComponent</text>
</g>
<!-- LoginComponent&#45;&gt;AuthModule -->
<g id="edge3" class="edge">
<title>LoginComponent&#45;&gt;AuthModule</title>
<path fill="none" stroke="black" d="M1073,-122.24C1073,-137.57 1073,-157 1073,-157 1073,-157 985.84,-157 985.84,-157"/>
<polygon fill="black" stroke="black" points="985.84,-153.5 975.84,-157 985.84,-160.5 985.84,-153.5"/>
</g>
<!-- OtpInputComponent -->
<g id="node4" class="node">
<title>OtpInputComponent</title>
<polygon fill="#ffffb3" stroke="black" points="997.88,-122 866.12,-122 866.12,-86 997.88,-86 997.88,-122"/>
<text text-anchor="middle" x="932" y="-99.8" font-family="Times,serif" font-size="14.00">OtpInputComponent</text>
</g>
<!-- OtpInputComponent&#45;&gt;AuthModule -->
<g id="edge4" class="edge">
<title>OtpInputComponent&#45;&gt;AuthModule</title>
<path fill="none" stroke="black" d="M932,-122.11C932,-122.11 932,-140.99 932,-140.99"/>
<polygon fill="black" stroke="black" points="928.5,-140.99 932,-150.99 935.5,-140.99 928.5,-140.99"/>
</g>
<!-- PhoneRegisterComponent -->
<g id="node5" class="node">
<title>PhoneRegisterComponent</title>
<polygon fill="#ffffb3" stroke="black" points="848.48,-122 685.52,-122 685.52,-86 848.48,-86 848.48,-122"/>
<text text-anchor="middle" x="767" y="-99.8" font-family="Times,serif" font-size="14.00">PhoneRegisterComponent</text>
</g>
<!-- PhoneRegisterComponent&#45;&gt;AuthModule -->
<g id="edge5" class="edge">
<title>PhoneRegisterComponent&#45;&gt;AuthModule</title>
<path fill="none" stroke="black" d="M767,-122.24C767,-137.57 767,-157 767,-157 767,-157 878.22,-157 878.22,-157"/>
<polygon fill="black" stroke="black" points="878.22,-160.5 888.22,-157 878.22,-153.5 878.22,-160.5"/>
</g>
<!-- RegisterMethodComponent -->
<g id="node6" class="node">
<title>RegisterMethodComponent</title>
<polygon fill="#ffffb3" stroke="black" points="667.54,-122 496.46,-122 496.46,-86 667.54,-86 667.54,-122"/>
<text text-anchor="middle" x="582" y="-99.8" font-family="Times,serif" font-size="14.00">RegisterMethodComponent</text>
</g>
<!-- RegisterMethodComponent&#45;&gt;AuthModule -->
<g id="edge6" class="edge">
<title>RegisterMethodComponent&#45;&gt;AuthModule</title>
<path fill="none" stroke="black" d="M582,-122.02C582,-139.37 582,-163 582,-163 582,-163 878.38,-163 878.38,-163"/>
<polygon fill="black" stroke="black" points="878.38,-166.5 888.38,-163 878.38,-159.5 878.38,-166.5"/>
</g>
<!-- UserTypeComponent -->
<g id="node7" class="node">
<title>UserTypeComponent</title>
<polygon fill="#ffffb3" stroke="black" points="478.03,-122 341.97,-122 341.97,-86 478.03,-86 478.03,-122"/>
<text text-anchor="middle" x="410" y="-99.8" font-family="Times,serif" font-size="14.00">UserTypeComponent</text>
</g>
<!-- UserTypeComponent&#45;&gt;AuthModule -->
<g id="edge7" class="edge">
<title>UserTypeComponent&#45;&gt;AuthModule</title>
<path fill="none" stroke="black" d="M410,-122.11C410,-141.34 410,-169 410,-169 410,-169 878.39,-169 878.39,-169"/>
<polygon fill="black" stroke="black" points="878.39,-172.5 888.39,-169 878.39,-165.5 878.39,-172.5"/>
</g>
<!-- VerifyCodeComponent -->
<g id="node8" class="node">
<title>VerifyCodeComponent</title>
<polygon fill="#ffffb3" stroke="black" points="323.92,-122 176.08,-122 176.08,-86 323.92,-86 323.92,-122"/>
<text text-anchor="middle" x="250" y="-99.8" font-family="Times,serif" font-size="14.00">VerifyCodeComponent</text>
</g>
<!-- VerifyCodeComponent&#45;&gt;AuthModule -->
<g id="edge8" class="edge">
<title>VerifyCodeComponent&#45;&gt;AuthModule</title>
<path fill="none" stroke="black" d="M250,-122.28C250,-143.32 250,-175 250,-175 250,-175 878.3,-175 878.3,-175"/>
<polygon fill="black" stroke="black" points="878.3,-178.5 888.3,-175 878.3,-171.5 878.3,-178.5"/>
</g>
<!-- WelcomeComponent -->
<g id="node9" class="node">
<title>WelcomeComponent</title>
<polygon fill="#ffffb3" stroke="black" points="158.47,-122 23.53,-122 23.53,-86 158.47,-86 158.47,-122"/>
<text text-anchor="middle" x="91" y="-99.8" font-family="Times,serif" font-size="14.00">WelcomeComponent</text>
</g>
<!-- WelcomeComponent&#45;&gt;AuthModule -->
<g id="edge9" class="edge">
<title>WelcomeComponent&#45;&gt;AuthModule</title>
<path fill="none" stroke="black" d="M91,-122.09C91,-145.13 91,-182 91,-182 91,-182 878.26,-182 878.26,-182"/>
<polygon fill="black" stroke="black" points="878.26,-185.5 888.26,-182 878.26,-178.5 878.26,-185.5"/>
</g>
<!-- AuthRoutingModule -->
<g id="node11" class="node">
<title>AuthRoutingModule</title>
<polygon fill="#8dd3c7" stroke="black" points="1775.17,-122 1772.17,-126 1751.17,-126 1748.17,-122 1642.83,-122 1642.83,-86 1775.17,-86 1775.17,-122"/>
<text text-anchor="middle" x="1709" y="-99.8" font-family="Times,serif" font-size="14.00">AuthRoutingModule</text>
</g>
<!-- AuthRoutingModule&#45;&gt;AuthModule -->
<g id="edge10" class="edge">
<title>AuthRoutingModule&#45;&gt;AuthModule</title>
<path fill="none" stroke="black" d="M1709,-122.09C1709,-145.13 1709,-182 1709,-182 1709,-182 985.72,-182 985.72,-182"/>
<polygon fill="black" stroke="black" points="985.72,-178.5 975.72,-182 985.72,-185.5 985.72,-178.5"/>
</g>
<!-- SharedModule -->
<g id="node12" class="node">
<title>SharedModule</title>
<polygon fill="#8dd3c7" stroke="black" points="1624.42,-122 1621.42,-126 1600.42,-126 1597.42,-122 1525.58,-122 1525.58,-86 1624.42,-86 1624.42,-122"/>
<text text-anchor="middle" x="1575" y="-99.8" font-family="Times,serif" font-size="14.00">SharedModule</text>
</g>
<!-- SharedModule&#45;&gt;AuthModule -->
<g id="edge11" class="edge">
<title>SharedModule&#45;&gt;AuthModule</title>
<path fill="none" stroke="black" d="M1575,-122.28C1575,-143.32 1575,-175 1575,-175 1575,-175 985.69,-175 985.69,-175"/>
<polygon fill="black" stroke="black" points="985.69,-171.5 975.69,-175 985.69,-178.5 985.69,-171.5"/>
</g>
</g>
</svg>
