<?xml version="1.0" encoding="UTF-8" standalone="no"?>
<!DOCTYPE svg PUBLIC "-//W3C//DTD SVG 1.1//EN"
 "http://www.w3.org/Graphics/SVG/1.1/DTD/svg11.dtd">
<!-- Generated by graphviz version 2.47.0 (20210316.0004)
 -->
<!-- Title: dependencies Pages: 1 -->
<svg width="2268pt" height="211pt"
 viewBox="0.00 0.00 2268.00 211.00" xmlns="http://www.w3.org/2000/svg" xmlns:xlink="http://www.w3.org/1999/xlink">
<g id="graph0" class="graph" transform="scale(1 1) rotate(0) translate(4 207)">
<title>dependencies</title>
<polygon fill="white" stroke="transparent" points="-4,4 -4,-207 2264,-207 2264,4 -4,4"/>
<text text-anchor="start" x="1109.01" y="-42.4" font-family="Times-12" font-weight="bold" font-size="14.00">Legend</text>
<polygon fill="#ffffb3" stroke="transparent" points="896,-10 896,-30 916,-30 916,-10 896,-10"/>
<text text-anchor="start" x="919.63" y="-15.4" font-family="Times-12" font-size="14.00"> &#160;Declarations</text>
<polygon fill="#8dd3c7" stroke="transparent" points="1009,-10 1009,-30 1029,-30 1029,-10 1009,-10"/>
<text text-anchor="start" x="1032.73" y="-15.4" font-family="Times-12" font-size="14.00"> &#160;Module</text>
<polygon fill="#80b1d3" stroke="transparent" points="1095,-10 1095,-30 1115,-30 1115,-10 1095,-10"/>
<text text-anchor="start" x="1118.78" y="-15.4" font-family="Times-12" font-size="14.00"> &#160;Bootstrap</text>
<polygon fill="#fdb462" stroke="transparent" points="1192,-10 1192,-30 1212,-30 1212,-10 1192,-10"/>
<text text-anchor="start" x="1215.67" y="-15.4" font-family="Times-12" font-size="14.00"> &#160;Providers</text>
<polygon fill="#fb8072" stroke="transparent" points="1288,-10 1288,-30 1308,-30 1308,-10 1288,-10"/>
<text text-anchor="start" x="1311.73" y="-15.4" font-family="Times-12" font-size="14.00"> &#160;Exports</text>
<g id="clust1" class="cluster">
<title>cluster_ProfileModule</title>
<polygon fill="none" stroke="black" stroke-dasharray="1,5" points="8,-70 8,-195 2252,-195 2252,-70 8,-70"/>
</g>
<g id="clust16" class="cluster">
<title>cluster_ProfileModule_providers</title>
<polygon fill="none" stroke="black" points="1945,-78 1945,-130 2244,-130 2244,-78 1945,-78"/>
</g>
<g id="clust2" class="cluster">
<title>cluster_ProfileModule_declarations</title>
<polygon fill="none" stroke="black" points="299,-78 299,-130 1937,-130 1937,-78 299,-78"/>
</g>
<g id="clust13" class="cluster">
<title>cluster_ProfileModule_imports</title>
<polygon fill="none" stroke="black" points="16,-78 16,-130 291,-130 291,-78 16,-78"/>
</g>
<!-- AddAddressDialogComponent -->
<g id="node1" class="node">
<title>AddAddressDialogComponent</title>
<polygon fill="#ffffb3" stroke="black" points="1928.91,-122 1739.09,-122 1739.09,-86 1928.91,-86 1928.91,-122"/>
<text text-anchor="middle" x="1834" y="-99.8" font-family="Times,serif" font-size="14.00">AddAddressDialogComponent</text>
</g>
<!-- ProfileModule -->
<g id="node11" class="node">
<title>ProfileModule</title>
<polygon fill="#8dd3c7" stroke="black" points="1138.65,-187 1135.65,-191 1114.65,-191 1111.65,-187 1041.35,-187 1041.35,-151 1138.65,-151 1138.65,-187"/>
<text text-anchor="middle" x="1090" y="-164.8" font-family="Times,serif" font-size="14.00">ProfileModule</text>
</g>
<!-- AddAddressDialogComponent&#45;&gt;ProfileModule -->
<g id="edge1" class="edge">
<title>AddAddressDialogComponent&#45;&gt;ProfileModule</title>
<path fill="none" stroke="black" d="M1834,-122.22C1834,-142.37 1834,-172 1834,-172 1834,-172 1148.82,-172 1148.82,-172"/>
<polygon fill="black" stroke="black" points="1148.82,-168.5 1138.82,-172 1148.82,-175.5 1148.82,-168.5"/>
</g>
<!-- AddressesComponent -->
<g id="node2" class="node">
<title>AddressesComponent</title>
<polygon fill="#ffffb3" stroke="black" points="1721.36,-122 1582.64,-122 1582.64,-86 1721.36,-86 1721.36,-122"/>
<text text-anchor="middle" x="1652" y="-99.8" font-family="Times,serif" font-size="14.00">AddressesComponent</text>
</g>
<!-- AddressesComponent&#45;&gt;ProfileModule -->
<g id="edge2" class="edge">
<title>AddressesComponent&#45;&gt;ProfileModule</title>
<path fill="none" stroke="black" d="M1652,-122.22C1652,-140.83 1652,-167 1652,-167 1652,-167 1148.89,-167 1148.89,-167"/>
<polygon fill="black" stroke="black" points="1148.89,-163.5 1138.89,-167 1148.89,-170.5 1148.89,-163.5"/>
</g>
<!-- ContactUsComponent -->
<g id="node3" class="node">
<title>ContactUsComponent</title>
<polygon fill="#ffffb3" stroke="black" points="1564.43,-122 1423.57,-122 1423.57,-86 1564.43,-86 1564.43,-122"/>
<text text-anchor="middle" x="1494" y="-99.8" font-family="Times,serif" font-size="14.00">ContactUsComponent</text>
</g>
<!-- ContactUsComponent&#45;&gt;ProfileModule -->
<g id="edge3" class="edge">
<title>ContactUsComponent&#45;&gt;ProfileModule</title>
<path fill="none" stroke="black" d="M1494,-122.03C1494,-139.06 1494,-162 1494,-162 1494,-162 1148.73,-162 1148.73,-162"/>
<polygon fill="black" stroke="black" points="1148.73,-158.5 1138.73,-162 1148.73,-165.5 1148.73,-158.5"/>
</g>
<!-- FaqComponent -->
<g id="node4" class="node">
<title>FaqComponent</title>
<polygon fill="#ffffb3" stroke="black" points="1406.33,-122 1303.67,-122 1303.67,-86 1406.33,-86 1406.33,-122"/>
<text text-anchor="middle" x="1355" y="-99.8" font-family="Times,serif" font-size="14.00">FaqComponent</text>
</g>
<!-- FaqComponent&#45;&gt;ProfileModule -->
<g id="edge4" class="edge">
<title>FaqComponent&#45;&gt;ProfileModule</title>
<path fill="none" stroke="black" d="M1355,-122.24C1355,-137.57 1355,-157 1355,-157 1355,-157 1148.91,-157 1148.91,-157"/>
<polygon fill="black" stroke="black" points="1148.91,-153.5 1138.91,-157 1148.91,-160.5 1148.91,-153.5"/>
</g>
<!-- LanguageSettingsComponent -->
<g id="node5" class="node">
<title>LanguageSettingsComponent</title>
<polygon fill="#ffffb3" stroke="black" points="1285.64,-122 1104.36,-122 1104.36,-86 1285.64,-86 1285.64,-122"/>
<text text-anchor="middle" x="1195" y="-99.8" font-family="Times,serif" font-size="14.00">LanguageSettingsComponent</text>
</g>
<!-- LanguageSettingsComponent&#45;&gt;ProfileModule -->
<g id="edge5" class="edge">
<title>LanguageSettingsComponent&#45;&gt;ProfileModule</title>
<path fill="none" stroke="black" d="M1121.5,-122.11C1121.5,-122.11 1121.5,-140.99 1121.5,-140.99"/>
<polygon fill="black" stroke="black" points="1118,-140.99 1121.5,-150.99 1125,-140.99 1118,-140.99"/>
</g>
<!-- NotificationsSettingsComponent -->
<g id="node6" class="node">
<title>NotificationsSettingsComponent</title>
<polygon fill="#ffffb3" stroke="black" points="1085.54,-122 886.46,-122 886.46,-86 1085.54,-86 1085.54,-122"/>
<text text-anchor="middle" x="986" y="-99.8" font-family="Times,serif" font-size="14.00">NotificationsSettingsComponent</text>
</g>
<!-- NotificationsSettingsComponent&#45;&gt;ProfileModule -->
<g id="edge6" class="edge">
<title>NotificationsSettingsComponent&#45;&gt;ProfileModule</title>
<path fill="none" stroke="black" d="M1063.47,-122.11C1063.47,-122.11 1063.47,-140.99 1063.47,-140.99"/>
<polygon fill="black" stroke="black" points="1059.97,-140.99 1063.47,-150.99 1066.97,-140.99 1059.97,-140.99"/>
</g>
<!-- PersonalInfoComponent -->
<g id="node7" class="node">
<title>PersonalInfoComponent</title>
<polygon fill="#ffffb3" stroke="black" points="868.36,-122 715.64,-122 715.64,-86 868.36,-86 868.36,-122"/>
<text text-anchor="middle" x="792" y="-99.8" font-family="Times,serif" font-size="14.00">PersonalInfoComponent</text>
</g>
<!-- PersonalInfoComponent&#45;&gt;ProfileModule -->
<g id="edge7" class="edge">
<title>PersonalInfoComponent&#45;&gt;ProfileModule</title>
<path fill="none" stroke="black" d="M792,-122.24C792,-137.57 792,-157 792,-157 792,-157 1031.13,-157 1031.13,-157"/>
<polygon fill="black" stroke="black" points="1031.13,-160.5 1041.13,-157 1031.13,-153.5 1031.13,-160.5"/>
</g>
<!-- ProfileComponent -->
<g id="node8" class="node">
<title>ProfileComponent</title>
<polygon fill="#ffffb3" stroke="black" points="697.93,-122 578.07,-122 578.07,-86 697.93,-86 697.93,-122"/>
<text text-anchor="middle" x="638" y="-99.8" font-family="Times,serif" font-size="14.00">ProfileComponent</text>
</g>
<!-- ProfileComponent&#45;&gt;ProfileModule -->
<g id="edge8" class="edge">
<title>ProfileComponent&#45;&gt;ProfileModule</title>
<path fill="none" stroke="black" d="M638,-122.03C638,-139.06 638,-162 638,-162 638,-162 1031.2,-162 1031.2,-162"/>
<polygon fill="black" stroke="black" points="1031.2,-165.5 1041.2,-162 1031.2,-158.5 1031.2,-165.5"/>
</g>
<!-- TermsComponent -->
<g id="node9" class="node">
<title>TermsComponent</title>
<polygon fill="#ffffb3" stroke="black" points="560.6,-122 443.4,-122 443.4,-86 560.6,-86 560.6,-122"/>
<text text-anchor="middle" x="502" y="-99.8" font-family="Times,serif" font-size="14.00">TermsComponent</text>
</g>
<!-- TermsComponent&#45;&gt;ProfileModule -->
<g id="edge9" class="edge">
<title>TermsComponent&#45;&gt;ProfileModule</title>
<path fill="none" stroke="black" d="M502,-122.22C502,-140.83 502,-167 502,-167 502,-167 1031.13,-167 1031.13,-167"/>
<polygon fill="black" stroke="black" points="1031.13,-170.5 1041.13,-167 1031.13,-163.5 1031.13,-170.5"/>
</g>
<!-- WalletComponent -->
<g id="node10" class="node">
<title>WalletComponent</title>
<polygon fill="#ffffb3" stroke="black" points="425.15,-122 306.85,-122 306.85,-86 425.15,-86 425.15,-122"/>
<text text-anchor="middle" x="366" y="-99.8" font-family="Times,serif" font-size="14.00">WalletComponent</text>
</g>
<!-- WalletComponent&#45;&gt;ProfileModule -->
<g id="edge10" class="edge">
<title>WalletComponent&#45;&gt;ProfileModule</title>
<path fill="none" stroke="black" d="M366,-122.22C366,-142.37 366,-172 366,-172 366,-172 1031.09,-172 1031.09,-172"/>
<polygon fill="black" stroke="black" points="1031.09,-175.5 1041.09,-172 1031.09,-168.5 1031.09,-175.5"/>
</g>
<!-- ProfileRoutingModule -->
<g id="node12" class="node">
<title>ProfileRoutingModule</title>
<polygon fill="#8dd3c7" stroke="black" points="283.27,-122 280.27,-126 259.27,-126 256.27,-122 140.73,-122 140.73,-86 283.27,-86 283.27,-122"/>
<text text-anchor="middle" x="212" y="-99.8" font-family="Times,serif" font-size="14.00">ProfileRoutingModule</text>
</g>
<!-- ProfileRoutingModule&#45;&gt;ProfileModule -->
<g id="edge11" class="edge">
<title>ProfileRoutingModule&#45;&gt;ProfileModule</title>
<path fill="none" stroke="black" d="M212,-122.04C212,-143.66 212,-177 212,-177 212,-177 1031.23,-177 1031.23,-177"/>
<polygon fill="black" stroke="black" points="1031.23,-180.5 1041.23,-177 1031.23,-173.5 1031.23,-180.5"/>
</g>
<!-- SharedModule -->
<g id="node13" class="node">
<title>SharedModule</title>
<polygon fill="#8dd3c7" stroke="black" points="122.42,-122 119.42,-126 98.42,-126 95.42,-122 23.58,-122 23.58,-86 122.42,-86 122.42,-122"/>
<text text-anchor="middle" x="73" y="-99.8" font-family="Times,serif" font-size="14.00">SharedModule</text>
</g>
<!-- SharedModule&#45;&gt;ProfileModule -->
<g id="edge12" class="edge">
<title>SharedModule&#45;&gt;ProfileModule</title>
<path fill="none" stroke="black" d="M73,-122.09C73,-145.13 73,-182 73,-182 73,-182 1031.29,-182 1031.29,-182"/>
<polygon fill="black" stroke="black" points="1031.29,-185.5 1041.29,-182 1031.29,-178.5 1031.29,-185.5"/>
</g>
<!-- DialogService -->
<g id="node14" class="node">
<title>DialogService</title>
<ellipse fill="#fdb462" stroke="black" cx="2170" cy="-104" rx="66.05" ry="18"/>
<text text-anchor="middle" x="2170" y="-99.8" font-family="Times,serif" font-size="14.00">DialogService</text>
</g>
<!-- DialogService&#45;&gt;ProfileModule -->
<g id="edge13" class="edge">
<title>DialogService&#45;&gt;ProfileModule</title>
<path fill="none" stroke="black" d="M2170,-122.09C2170,-145.13 2170,-182 2170,-182 2170,-182 1148.86,-182 1148.86,-182"/>
<polygon fill="black" stroke="black" points="1148.86,-178.5 1138.86,-182 1148.86,-185.5 1148.86,-178.5"/>
</g>
<!-- ProfileService -->
<g id="node15" class="node">
<title>ProfileService</title>
<ellipse fill="#fdb462" stroke="black" cx="2019" cy="-104" rx="66.05" ry="18"/>
<text text-anchor="middle" x="2019" y="-99.8" font-family="Times,serif" font-size="14.00">ProfileService</text>
</g>
<!-- ProfileService&#45;&gt;ProfileModule -->
<g id="edge14" class="edge">
<title>ProfileService&#45;&gt;ProfileModule</title>
<path fill="none" stroke="black" d="M2019,-122.04C2019,-143.66 2019,-177 2019,-177 2019,-177 1148.96,-177 1148.96,-177"/>
<polygon fill="black" stroke="black" points="1148.96,-173.5 1138.96,-177 1148.96,-180.5 1148.96,-173.5"/>
</g>
</g>
</svg>
