<svg xmlns="http://www.w3.org/2000/svg" xmlns:xlink="http://www.w3.org/1999/xlink" width="347"
    zoomAndPan="magnify" viewBox="0 0 260.25 174.75" height="233"
    preserveAspectRatio="xMidYMid meet" version="1.0">
    <defs>
        <g />
        <clipPath id="040636b8b0">
            <path d="M 80.316406 1 L 145 1 L 145 106 L 80.316406 106 Z M 80.316406 1 "
                clip-rule="nonzero" />
        </clipPath>
        <clipPath id="f145b1a109">
            <path d="M 119 31 L 190.214844 31 L 190.214844 113 L 119 113 Z M 119 31 "
                clip-rule="nonzero" />
        </clipPath>
        <clipPath id="58048b4115">
            <path d="M 107 0.125 L 180 0.125 L 180 112 L 107 112 Z M 107 0.125 " clip-rule="nonzero" />
        </clipPath>
    </defs>
    <g clip-path="url(#040636b8b0)">
        <path fill="#ef8414"
            d="M 107.175781 105.238281 L 117.960938 86.320312 C 113.945312 83.941406 110.359375 80.6875 107.503906 76.617188 C 96.75 61.285156 100.460938 40.136719 115.796875 29.382812 C 123.5625 23.9375 132.816406 22.207031 141.460938 23.808594 C 142.023438 22.449219 142.238281 20.953125 142.074219 19.449219 C 141.570312 14.878906 142.601562 10.367188 144.992188 6.519531 L 143.828125 2.140625 C 138.792969 1.355469 133.65625 1.25 128.554688 1.863281 L 126.296875 9.335938 C 122.761719 9.996094 119.273438 11.042969 115.890625 12.515625 L 109.855469 7.605469 C 107.609375 8.761719 105.414062 10.066406 103.292969 11.554688 C 101.171875 13.042969 99.195312 14.664062 97.347656 16.378906 L 99.902344 23.726562 C 97.367188 26.402344 95.195312 29.328125 93.371094 32.425781 L 85.574219 32.003906 C 83.257812 36.589844 81.609375 41.457031 80.632812 46.457031 L 87.023438 50.902344 C 86.558594 54.496094 86.5 58.140625 86.84375 61.773438 L 80.28125 66.015625 C 81.082031 70.992188 82.578125 75.902344 84.773438 80.613281 L 92.570312 80.449219 C 93.433594 82.027344 94.382812 83.574219 95.4375 85.078125 C 96.492188 86.585938 97.625 88.003906 98.8125 89.351562 L 96.003906 96.625 C 99.398438 100.007812 103.15625 102.890625 107.175781 105.238281 "
            fill-opacity="1" fill-rule="nonzero" />
    </g>
    <g clip-path="url(#f145b1a109)">
        <path fill="#ef4444"
            d="M 183.6875 52.523438 L 190.25 48.277344 C 189.449219 43.300781 187.953125 38.394531 185.757812 33.679688 L 177.960938 33.84375 C 177.554688 33.101562 177.128906 32.367188 176.683594 31.636719 C 173.351562 34.976562 169.007812 37.03125 164.234375 37.488281 C 163.832031 37.523438 163.433594 37.597656 163.042969 37.695312 C 173.777344 53.027344 170.0625 74.160156 154.734375 84.910156 C 147.84375 89.742188 139.777344 91.652344 132.011719 90.898438 L 119.839844 103.273438 C 121.4375 103.808594 123.058594 104.265625 124.703125 104.628906 L 126.703125 112.15625 C 131.738281 112.941406 136.875 113.046875 141.976562 112.429688 L 144.234375 104.957031 C 147.769531 104.296875 151.261719 103.25 154.640625 101.777344 L 160.679688 106.6875 C 162.921875 105.535156 165.117188 104.230469 167.238281 102.738281 C 169.363281 101.25 171.335938 99.632812 173.1875 97.917969 L 170.628906 90.566406 C 173.164062 87.890625 175.335938 84.964844 177.160156 81.867188 L 184.957031 82.289062 C 187.273438 77.703125 188.921875 72.835938 189.902344 67.835938 L 183.507812 63.390625 C 183.972656 59.800781 184.03125 56.152344 183.6875 52.523438 "
            fill-opacity="1" fill-rule="nonzero" />
    </g>
    <g clip-path="url(#58048b4115)">
        <path fill="#545454"
            d="M 178.980469 13.460938 L 168.511719 26.53125 L 156.34375 24.667969 L 151.871094 13.203125 L 162.339844 0.132812 C 157.320312 0.125 152.34375 2.320312 148.964844 6.539062 C 146.015625 10.222656 144.835938 14.75 145.3125 19.09375 C 145.640625 22.070312 144.867188 25.0625 143.109375 27.492188 L 116.171875 64.761719 L 131.269531 69.566406 L 107.597656 111.074219 L 155.890625 61.972656 L 142.300781 55.78125 L 155.789062 38.738281 C 157.789062 36.210938 160.71875 34.546875 163.925781 34.242188 C 168.367188 33.820312 172.640625 31.667969 175.648438 27.914062 C 179.03125 23.691406 180.082031 18.355469 178.980469 13.460938 "
            fill-opacity="1" fill-rule="nonzero" />
    </g>
    <g fill="#ef4444" fill-opacity="1">
        <g transform="translate(70.994248, 146.183024)">
            <g>
                <path
                    d="M 13.742188 0 C 11.238281 0 9.101562 -0.46875 7.328125 -1.402344 C 5.558594 -2.335938 4.210938 -3.683594 3.289062 -5.441406 C 2.367188 -7.199219 1.90625 -9.277344 1.90625 -11.679688 L 1.90625 -15.574219 L 5.625 -15.574219 L 5.625 -11.679688 C 5.625 -9.058594 6.316406 -7.074219 7.699219 -5.734375 C 9.082031 -4.390625 11.097656 -3.71875 13.742188 -3.71875 L 17.519531 -3.71875 L 17.519531 -8.894531 C 17.519531 -11.246094 17.929688 -13.203125 18.746094 -14.765625 C 19.5625 -16.328125 20.761719 -17.503906 22.335938 -18.289062 C 23.914062 -19.074219 25.839844 -19.464844 28.109375 -19.464844 L 32.957031 -19.464844 L 32.957031 -7.496094 C 32.957031 -6.3125 33.195312 -5.390625 33.675781 -4.71875 C 34.15625 -4.050781 34.890625 -3.71875 35.875 -3.71875 L 36.851562 -3.71875 L 36.851562 0 L 35.875 0 C 34.460938 0 33.253906 -0.308594 32.253906 -0.925781 C 31.257812 -1.542969 30.5 -2.410156 29.988281 -3.53125 C 29.476562 -4.65625 29.21875 -5.976562 29.21875 -7.496094 L 29.21875 -15.828125 L 28.167969 -15.828125 C 25.78125 -15.828125 24.027344 -15.273438 22.910156 -14.171875 C 21.796875 -13.070312 21.238281 -11.316406 21.238281 -8.914062 L 21.238281 0 Z M 11.878906 7.765625 C 11.269531 7.765625 10.746094 7.546875 10.300781 7.105469 C 9.859375 6.664062 9.636719 6.132812 9.636719 5.507812 C 9.636719 4.902344 9.855469 4.378906 10.300781 3.933594 C 10.742188 3.492188 11.269531 3.269531 11.875 3.269531 C 12.496094 3.269531 13.03125 3.492188 13.472656 3.9375 C 13.910156 4.378906 14.132812 4.90625 14.132812 5.511719 C 14.132812 6.121094 13.910156 6.648438 13.460938 7.09375 C 13.011719 7.542969 12.484375 7.765625 11.878906 7.765625 Z M 18.613281 7.765625 C 18.007812 7.765625 17.480469 7.546875 17.035156 7.105469 C 16.59375 6.664062 16.371094 6.132812 16.371094 5.507812 C 16.371094 4.902344 16.59375 4.378906 17.035156 3.933594 C 17.480469 3.492188 18.003906 3.269531 18.609375 3.269531 C 19.234375 3.269531 19.769531 3.492188 20.214844 3.9375 C 20.664062 4.378906 20.886719 4.90625 20.886719 5.511719 C 20.886719 6.121094 20.660156 6.648438 20.207031 7.09375 C 19.75 7.542969 19.222656 7.765625 18.613281 7.765625 Z M 18.613281 7.765625 " />
            </g>
        </g>
    </g>
    <g fill="#ef4444" fill-opacity="1">
        <g transform="translate(107.854403, 146.183024)">
            <g>
                <path
                    d="M -0.390625 -3.71875 L 8.703125 -3.71875 L 2.53125 -12.945312 L 2.53125 -19.464844 L 17.148438 -19.464844 C 18.734375 -19.464844 20.101562 -19.28125 21.257812 -18.910156 C 22.414062 -18.542969 23.316406 -17.949219 23.972656 -17.128906 C 24.628906 -16.3125 24.957031 -15.242188 24.957031 -13.917969 C 24.957031 -12.972656 24.722656 -12.003906 24.253906 -11.019531 C 23.789062 -10.03125 23.191406 -9.070312 22.464844 -8.136719 C 21.738281 -7.203125 20.804688 -6.125 19.660156 -4.90625 L 18.550781 -3.71875 L 27.875 -3.71875 L 27.894531 0 L -0.390625 0 Z M 14.269531 -3.71875 C 14.554688 -4.015625 14.839844 -4.316406 15.125 -4.613281 C 15.410156 -4.910156 15.691406 -5.21875 15.960938 -5.527344 C 17.597656 -7.28125 18.8125 -8.703125 19.613281 -9.800781 C 20.410156 -10.898438 20.808594 -11.894531 20.808594 -12.789062 C 20.808594 -13.59375 20.617188 -14.210938 20.234375 -14.640625 C 19.851562 -15.066406 19.3125 -15.359375 18.621094 -15.515625 C 17.925781 -15.671875 17.011719 -15.75 15.882812 -15.75 L 6.890625 -15.75 L 6.890625 -13.140625 L 13.121094 -3.71875 Z M 14.269531 -3.71875 " />
            </g>
        </g>
    </g>
    <g fill="#ef4444" fill-opacity="1">
        <g transform="translate(135.762295, 146.183024)">
            <g>
                <path
                    d="M -0.390625 -3.71875 L 1.90625 -3.71875 C 2.945312 -3.71875 3.734375 -4.070312 4.273438 -4.769531 C 4.8125 -5.46875 5.082031 -6.429688 5.082031 -7.648438 L 5.082031 -19.464844 L 8.816406 -19.464844 L 8.816406 -7.648438 C 8.816406 -6.132812 8.53125 -4.796875 7.960938 -3.640625 C 7.390625 -2.484375 6.585938 -1.589844 5.546875 -0.953125 C 4.507812 -0.316406 3.296875 0 1.90625 0 L -0.390625 0 Z M 3.585938 7.765625 C 2.976562 7.765625 2.453125 7.546875 2.007812 7.105469 C 1.566406 6.664062 1.34375 6.132812 1.34375 5.507812 C 1.34375 4.902344 1.566406 4.378906 2.007812 3.933594 C 2.453125 3.492188 2.976562 3.269531 3.585938 3.269531 C 4.191406 3.269531 4.71875 3.492188 5.167969 3.9375 C 5.617188 4.378906 5.839844 4.90625 5.839844 5.511719 C 5.839844 6.121094 5.617188 6.648438 5.167969 7.09375 C 4.71875 7.542969 4.191406 7.765625 3.585938 7.765625 Z M 10.183594 7.765625 C 9.578125 7.765625 9.050781 7.546875 8.609375 7.105469 C 8.164062 6.664062 7.941406 6.132812 7.941406 5.507812 C 7.941406 4.902344 8.164062 4.378906 8.609375 3.933594 C 9.050781 3.492188 9.578125 3.269531 10.183594 3.269531 C 10.792969 3.269531 11.320312 3.492188 11.765625 3.9375 C 12.214844 4.378906 12.4375 4.90625 12.4375 5.511719 C 12.4375 6.121094 12.214844 6.648438 11.765625 7.09375 C 11.320312 7.542969 10.792969 7.765625 10.183594 7.765625 Z M 10.183594 7.765625 " />
            </g>
        </g>
    </g>
    <g fill="#ef4444" fill-opacity="1">
        <g transform="translate(148.101021, 146.183024)">
            <g>
                <path
                    d="M 9.949219 0 C 8.558594 0 7.355469 -0.316406 6.335938 -0.953125 C 5.316406 -1.589844 4.535156 -2.480469 3.992188 -3.628906 C 3.445312 -4.777344 3.171875 -6.117188 3.171875 -7.648438 L 3.171875 -30.367188 L 6.890625 -30.367188 L 6.890625 -7.648438 C 6.890625 -6.417969 7.148438 -5.453125 7.660156 -4.757812 C 8.171875 -4.066406 8.933594 -3.71875 9.949219 -3.71875 L 10.921875 -3.71875 L 10.921875 0 Z M 9.949219 0 " />
            </g>
        </g>
    </g>
    <g fill="#ef4444" fill-opacity="1">
        <g transform="translate(159.038525, 146.183024)">
            <g>
                <path
                    d="M -0.390625 -3.71875 L 0.738281 -3.71875 C 1.753906 -3.71875 2.515625 -4.066406 3.027344 -4.757812 C 3.539062 -5.453125 3.796875 -6.417969 3.796875 -7.648438 L 3.796875 -19.464844 L 7.515625 -19.464844 L 7.515625 -7.648438 C 7.515625 -6.417969 7.769531 -5.453125 8.28125 -4.757812 C 8.796875 -4.066406 9.566406 -3.71875 10.589844 -3.71875 L 11.699219 -3.71875 L 11.699219 0 L 10.589844 0 C 8.371094 0 6.730469 -0.882812 5.664062 -2.648438 C 4.574219 -0.882812 2.933594 0 0.738281 0 L -0.390625 0 Z M 5.664062 -21.609375 C 5.027344 -21.609375 4.484375 -21.835938 4.03125 -22.289062 C 3.574219 -22.742188 3.347656 -23.289062 3.347656 -23.925781 C 3.347656 -24.574219 3.574219 -25.125 4.03125 -25.578125 C 4.484375 -26.03125 5.027344 -26.261719 5.664062 -26.261719 C 6.3125 -26.261719 6.863281 -26.03125 7.320312 -25.578125 C 7.773438 -25.125 8 -24.574219 8 -23.925781 C 8 -23.289062 7.773438 -22.742188 7.320312 -22.289062 C 6.863281 -21.835938 6.3125 -21.609375 5.664062 -21.609375 Z M 5.664062 -21.609375 " />
            </g>
        </g>
    </g>
    <g fill="#ef4444" fill-opacity="1">
        <g transform="translate(170.75449, 146.183024)">
            <g>
                <path
                    d="M -0.390625 -3.71875 L 3.40625 -3.71875 L 3.40625 -19.464844 L 7.125 -19.464844 L 7.125 -13.566406 C 8.667969 -15.347656 10.296875 -16.773438 12.011719 -17.851562 C 13.722656 -18.929688 15.539062 -19.464844 17.460938 -19.464844 C 19.265625 -19.464844 20.875 -19.035156 22.289062 -18.171875 C 23.703125 -17.308594 24.804688 -16.109375 25.589844 -14.570312 C 26.375 -13.03125 26.765625 -11.289062 26.765625 -9.34375 L 26.765625 -7.613281 C 26.765625 -5.222656 26.167969 -3.359375 24.964844 -2.015625 C 23.765625 -0.671875 22.0625 0 19.855469 0 L -0.390625 0 Z M 19.855469 -3.71875 C 20.917969 -3.71875 21.71875 -4.058594 22.25 -4.738281 C 22.78125 -5.421875 23.046875 -6.378906 23.046875 -7.613281 L 23.046875 -9.34375 C 23.046875 -10.617188 22.808594 -11.734375 22.328125 -12.703125 C 21.847656 -13.667969 21.15625 -14.417969 20.253906 -14.949219 C 19.351562 -15.480469 18.296875 -15.75 17.089844 -15.75 C 15.429688 -15.75 13.773438 -15.144531 12.117188 -13.9375 C 10.464844 -12.730469 8.796875 -11.101562 7.125 -9.050781 L 7.125 -3.71875 Z M 19.855469 -3.71875 " />
            </g>
        </g>
    </g>
    <g fill="#545454" fill-opacity="1">
        <g transform="translate(83.350761, 165.683973)">
            <g>
                <path
                    d="M 0.34375 -0.8125 L 3.191406 -0.8125 L 3.191406 -1.96875 C 3.191406 -2.261719 3.136719 -2.515625 3.027344 -2.738281 C 2.917969 -2.960938 2.765625 -3.132812 2.566406 -3.253906 C 2.367188 -3.378906 2.140625 -3.4375 1.882812 -3.4375 C 1.734375 -3.4375 1.597656 -3.417969 1.46875 -3.382812 C 1.34375 -3.34375 1.21875 -3.285156 1.097656 -3.214844 C 1.089844 -3.214844 1.085938 -3.210938 1.085938 -3.210938 C 1.085938 -3.207031 1.082031 -3.203125 1.074219 -3.199219 L 0.734375 -3.914062 C 1.078125 -4.136719 1.460938 -4.25 1.882812 -4.25 C 2.285156 -4.25 2.648438 -4.152344 2.972656 -3.957031 C 3.296875 -3.761719 3.550781 -3.492188 3.734375 -3.144531 C 3.917969 -2.796875 4.007812 -2.40625 4.007812 -1.96875 L 4.007812 -0.8125 L 4.804688 -0.8125 L 4.804688 0 L 0.34375 0 Z M 0.34375 -0.8125 " />
            </g>
        </g>
    </g>
    <g fill="#545454" fill-opacity="1">
        <g transform="translate(88.196235, 165.683973)">
            <g>
                <path
                    d="M -0.0859375 -0.8125 L 4.25 -0.8125 L 4.246094 -1.402344 C 4.242188 -1.8125 4.15625 -2.171875 3.988281 -2.476562 C 3.816406 -2.785156 3.578125 -3.019531 3.269531 -3.1875 C 2.964844 -3.355469 2.605469 -3.4375 2.203125 -3.4375 L 0.480469 -3.4375 L 0.480469 -4.25 L 2.238281 -4.25 C 2.773438 -4.25 3.253906 -4.132812 3.679688 -3.894531 C 4.109375 -3.660156 4.445312 -3.328125 4.6875 -2.898438 C 4.933594 -2.472656 5.054688 -1.984375 5.058594 -1.441406 L 5.066406 -0.8125 L 5.066406 0 L -0.0859375 0 Z M -0.0859375 -0.8125 " />
            </g>
        </g>
    </g>
    <g fill="#545454" fill-opacity="1">
        <g transform="translate(93.80678, 165.683973)">
            <g>
                <path
                    d="M 0.691406 -6.628906 L 1.503906 -6.628906 L 1.503906 0 L 0.691406 0 Z M 0.691406 -6.628906 " />
            </g>
        </g>
    </g>
    <g fill="#545454" fill-opacity="1">
        <g transform="translate(96.127506, 165.683973)">
            <g>
                <path
                    d="M 2.589844 1.933594 C 2.230469 1.933594 1.890625 1.859375 1.566406 1.710938 C 1.242188 1.5625 0.980469 1.355469 0.777344 1.09375 L 1.351562 0.558594 C 1.484375 0.730469 1.664062 0.867188 1.886719 0.96875 C 2.109375 1.070312 2.335938 1.121094 2.574219 1.121094 C 2.949219 1.121094 3.25 1.015625 3.480469 0.800781 C 3.710938 0.582031 3.839844 0.316406 3.867188 0 L 2.65625 0 C 2.234375 0 1.851562 -0.09375 1.511719 -0.277344 C 1.167969 -0.464844 0.902344 -0.71875 0.707031 -1.046875 C 0.511719 -1.375 0.417969 -1.742188 0.417969 -2.144531 C 0.417969 -2.53125 0.511719 -2.886719 0.703125 -3.214844 C 0.890625 -3.542969 1.148438 -3.800781 1.476562 -3.992188 C 1.804688 -4.179688 2.160156 -4.277344 2.550781 -4.277344 C 2.964844 -4.277344 3.335938 -4.179688 3.660156 -3.984375 C 3.984375 -3.785156 4.234375 -3.515625 4.417969 -3.167969 C 4.597656 -2.816406 4.6875 -2.421875 4.6875 -1.976562 L 4.6875 -0.230469 C 4.6875 0.171875 4.605469 0.539062 4.433594 0.867188 C 4.265625 1.195312 4.023438 1.457031 3.707031 1.648438 C 3.390625 1.839844 3.015625 1.933594 2.589844 1.933594 Z M 3.871094 -0.8125 L 3.871094 -2.039062 C 3.871094 -2.316406 3.816406 -2.5625 3.707031 -2.78125 C 3.597656 -2.996094 3.441406 -3.164062 3.242188 -3.285156 C 3.042969 -3.402344 2.8125 -3.464844 2.550781 -3.464844 C 2.308594 -3.464844 2.089844 -3.40625 1.886719 -3.289062 C 1.6875 -3.171875 1.527344 -3.011719 1.40625 -2.808594 C 1.289062 -2.605469 1.226562 -2.382812 1.226562 -2.144531 C 1.226562 -1.882812 1.289062 -1.652344 1.410156 -1.449219 C 1.53125 -1.25 1.699219 -1.089844 1.914062 -0.980469 C 2.132812 -0.867188 2.378906 -0.8125 2.65625 -0.8125 Z M 3.871094 -0.8125 " />
            </g>
        </g>
    </g>
    <g fill="#545454" fill-opacity="1">
        <g transform="translate(101.355521, 165.683973)">
            <g />
        </g>
    </g>
    <g fill="#545454" fill-opacity="1">
        <g transform="translate(103.803754, 165.683973)">
            <g>
                <path
                    d="M 2.695312 1.929688 C 2.265625 1.929688 1.875 1.828125 1.53125 1.621094 C 1.183594 1.417969 0.914062 1.136719 0.714844 0.78125 C 0.515625 0.425781 0.417969 0.03125 0.417969 -0.402344 L 0.417969 -3.398438 L 1.226562 -3.398438 L 1.226562 -0.402344 C 1.226562 -0.117188 1.289062 0.140625 1.414062 0.375 C 1.539062 0.605469 1.714844 0.789062 1.9375 0.921875 C 2.160156 1.050781 2.410156 1.117188 2.695312 1.117188 C 3.132812 1.117188 3.484375 0.972656 3.753906 0.6875 C 4.027344 0.398438 4.160156 -0.046875 4.160156 -0.648438 L 4.160156 -4.25 L 4.972656 -4.25 L 4.972656 -0.648438 C 4.972656 -0.0898438 4.871094 0.382812 4.671875 0.769531 C 4.46875 1.160156 4.195312 1.449219 3.851562 1.640625 C 3.507812 1.832031 3.121094 1.929688 2.695312 1.929688 Z M 2.695312 -4.78125 C 2.554688 -4.78125 2.4375 -4.832031 2.335938 -4.929688 C 2.238281 -5.03125 2.1875 -5.148438 2.1875 -5.292969 C 2.1875 -5.429688 2.238281 -5.550781 2.335938 -5.648438 C 2.4375 -5.746094 2.554688 -5.796875 2.695312 -5.796875 C 2.832031 -5.796875 2.953125 -5.746094 3.054688 -5.648438 C 3.15625 -5.550781 3.203125 -5.429688 3.203125 -5.292969 C 3.203125 -5.152344 3.15625 -5.03125 3.054688 -4.933594 C 2.953125 -4.832031 2.832031 -4.78125 2.695312 -4.78125 Z M 2.695312 -4.78125 " />
            </g>
        </g>
    </g>
    <g fill="#545454" fill-opacity="1">
        <g transform="translate(109.4568, 165.683973)">
            <g>
                <path
                    d="M 2.171875 0 C 1.867188 0 1.605469 -0.0703125 1.382812 -0.207031 C 1.160156 -0.347656 0.992188 -0.542969 0.871094 -0.792969 C 0.753906 -1.042969 0.691406 -1.335938 0.691406 -1.671875 L 0.691406 -6.628906 L 1.503906 -6.628906 L 1.503906 -1.671875 C 1.503906 -1.402344 1.5625 -1.191406 1.671875 -1.039062 C 1.785156 -0.886719 1.949219 -0.8125 2.171875 -0.8125 L 2.382812 -0.8125 L 2.382812 0 Z M 2.171875 0 " />
            </g>
        </g>
    </g>
    <g fill="#545454" fill-opacity="1">
        <g transform="translate(111.888041, 165.683973)">
            <g>
                <path
                    d="M -0.0859375 -0.8125 L 4.324219 -0.8125 L 4.320312 -1.402344 C 4.316406 -1.8125 4.226562 -2.171875 4.058594 -2.476562 C 3.886719 -2.785156 3.648438 -3.019531 3.339844 -3.1875 C 3.035156 -3.355469 2.679688 -3.4375 2.269531 -3.4375 L 0.609375 -3.4375 L 0.609375 -4.25 L 3.292969 -6.628906 L 4.390625 -6.628906 L 1.671875 -4.25 L 2.3125 -4.25 C 2.84375 -4.25 3.324219 -4.132812 3.75 -3.894531 C 4.175781 -3.660156 4.511719 -3.328125 4.757812 -2.898438 C 5.003906 -2.472656 5.128906 -1.984375 5.128906 -1.441406 L 5.132812 -0.8125 L 5.933594 -0.8125 L 5.933594 0 L -0.0859375 0 Z M -0.0859375 -0.8125 " />
            </g>
        </g>
    </g>
    <g fill="#545454" fill-opacity="1">
        <g transform="translate(117.864124, 165.683973)">
            <g>
                <path
                    d="M -0.0859375 -0.8125 L 1.1875 -0.8125 C 0.980469 -0.953125 0.8125 -1.140625 0.6875 -1.371094 C 0.5625 -1.601562 0.5 -1.851562 0.5 -2.121094 C 0.5 -2.507812 0.597656 -2.863281 0.785156 -3.1875 C 0.976562 -3.511719 1.234375 -3.773438 1.558594 -3.964844 C 1.886719 -4.15625 2.242188 -4.25 2.625 -4.25 C 3.011719 -4.25 3.367188 -4.15625 3.695312 -3.964844 C 4.019531 -3.773438 4.277344 -3.511719 4.46875 -3.1875 C 4.65625 -2.863281 4.75 -2.507812 4.75 -2.121094 C 4.75 -1.734375 4.65625 -1.378906 4.46875 -1.054688 C 4.277344 -0.726562 4.019531 -0.472656 3.695312 -0.28125 C 3.367188 -0.09375 3.011719 0 2.625 0 L -0.0859375 0 Z M 2.625 -0.8125 C 2.863281 -0.8125 3.082031 -0.871094 3.28125 -0.992188 C 3.480469 -1.109375 3.640625 -1.269531 3.757812 -1.46875 C 3.875 -1.667969 3.9375 -1.886719 3.9375 -2.125 C 3.9375 -2.363281 3.875 -2.582031 3.757812 -2.78125 C 3.640625 -2.980469 3.480469 -3.140625 3.28125 -3.261719 C 3.082031 -3.378906 2.863281 -3.4375 2.625 -3.4375 C 2.386719 -3.4375 2.167969 -3.378906 1.96875 -3.261719 C 1.769531 -3.140625 1.609375 -2.980469 1.492188 -2.78125 C 1.371094 -2.582031 1.3125 -2.363281 1.3125 -2.125 C 1.3125 -1.886719 1.371094 -1.667969 1.492188 -1.46875 C 1.609375 -1.269531 1.769531 -1.109375 1.96875 -0.992188 C 2.167969 -0.871094 2.386719 -0.8125 2.625 -0.8125 Z M 2.625 -0.8125 " />
            </g>
        </g>
    </g>
    <g fill="#545454" fill-opacity="1">
        <g transform="translate(123.16014, 165.683973)">
            <g />
        </g>
    </g>
    <g fill="#545454" fill-opacity="1">
        <g transform="translate(125.608373, 165.683973)">
            <g>
                <path
                    d="M 3 0 C 2.453125 0 1.988281 -0.101562 1.601562 -0.304688 C 1.214844 -0.511719 0.917969 -0.804688 0.71875 -1.1875 C 0.515625 -1.570312 0.417969 -2.027344 0.417969 -2.550781 L 0.417969 -3.398438 L 1.226562 -3.398438 L 1.226562 -2.550781 C 1.226562 -1.976562 1.378906 -1.546875 1.679688 -1.25 C 1.984375 -0.957031 2.421875 -0.8125 3 -0.8125 L 3.824219 -0.8125 L 3.824219 -1.941406 C 3.824219 -2.457031 3.914062 -2.882812 4.09375 -3.222656 C 4.273438 -3.566406 4.53125 -3.820312 4.878906 -3.992188 C 5.222656 -4.164062 5.640625 -4.25 6.136719 -4.25 L 7.195312 -4.25 L 7.195312 -1.636719 C 7.195312 -1.378906 7.25 -1.175781 7.351562 -1.03125 C 7.457031 -0.886719 7.617188 -0.8125 7.832031 -0.8125 L 8.046875 -0.8125 L 8.046875 0 L 7.832031 0 C 7.523438 0 7.261719 -0.0664062 7.042969 -0.203125 C 6.824219 -0.335938 6.660156 -0.527344 6.546875 -0.769531 C 6.4375 -1.015625 6.378906 -1.304688 6.378906 -1.636719 L 6.378906 -3.457031 L 6.148438 -3.457031 C 5.628906 -3.457031 5.246094 -3.335938 5.003906 -3.09375 C 4.757812 -2.851562 4.636719 -2.472656 4.636719 -1.945312 L 4.636719 0 Z M 2.59375 1.695312 C 2.460938 1.695312 2.347656 1.648438 2.25 1.550781 C 2.152344 1.453125 2.105469 1.339844 2.105469 1.203125 C 2.105469 1.070312 2.152344 0.957031 2.25 0.859375 C 2.347656 0.761719 2.460938 0.714844 2.59375 0.714844 C 2.730469 0.714844 2.84375 0.761719 2.941406 0.859375 C 3.039062 0.957031 3.085938 1.070312 3.085938 1.203125 C 3.085938 1.335938 3.035156 1.453125 2.9375 1.550781 C 2.839844 1.648438 2.726562 1.695312 2.59375 1.695312 Z M 4.0625 1.695312 C 3.929688 1.695312 3.816406 1.648438 3.71875 1.550781 C 3.621094 1.453125 3.574219 1.339844 3.574219 1.203125 C 3.574219 1.070312 3.621094 0.957031 3.71875 0.859375 C 3.816406 0.761719 3.929688 0.714844 4.0625 0.714844 C 4.199219 0.714844 4.316406 0.761719 4.414062 0.859375 C 4.511719 0.957031 4.5625 1.070312 4.5625 1.203125 C 4.5625 1.335938 4.511719 1.453125 4.410156 1.550781 C 4.3125 1.648438 4.195312 1.695312 4.0625 1.695312 Z M 4.0625 1.695312 " />
            </g>
        </g>
    </g>
    <g fill="#545454" fill-opacity="1">
        <g transform="translate(133.70116, 165.683973)">
            <g>
                <path
                    d="M -0.0859375 -0.8125 L 1.351562 -0.8125 C 1.125 -0.96875 0.945312 -1.175781 0.808594 -1.429688 C 0.675781 -1.679688 0.609375 -1.957031 0.609375 -2.253906 C 0.609375 -2.613281 0.699219 -2.945312 0.878906 -3.25 C 1.058594 -3.558594 1.304688 -3.800781 1.621094 -3.980469 C 1.9375 -4.160156 2.285156 -4.25 2.667969 -4.25 C 3.066406 -4.25 3.425781 -4.152344 3.75 -3.960938 C 4.074219 -3.769531 4.332031 -3.503906 4.515625 -3.171875 C 4.703125 -2.839844 4.792969 -2.46875 4.792969 -2.0625 L 4.792969 0 L -0.0859375 0 Z M 3.976562 -0.8125 L 3.976562 -2.125 C 3.976562 -2.363281 3.921875 -2.582031 3.804688 -2.785156 C 3.6875 -2.984375 3.527344 -3.144531 3.328125 -3.261719 C 3.125 -3.378906 2.90625 -3.4375 2.667969 -3.4375 C 2.429688 -3.4375 2.210938 -3.378906 2.011719 -3.261719 C 1.808594 -3.144531 1.648438 -2.984375 1.53125 -2.785156 C 1.414062 -2.582031 1.355469 -2.363281 1.355469 -2.125 C 1.355469 -1.886719 1.414062 -1.667969 1.53125 -1.464844 C 1.648438 -1.265625 1.808594 -1.105469 2.011719 -0.988281 C 2.210938 -0.871094 2.429688 -0.8125 2.667969 -0.8125 Z M 2.644531 -4.71875 C 2.503906 -4.71875 2.386719 -4.765625 2.285156 -4.867188 C 2.1875 -4.964844 2.136719 -5.085938 2.136719 -5.222656 C 2.136719 -5.367188 2.1875 -5.484375 2.285156 -5.585938 C 2.386719 -5.683594 2.503906 -5.734375 2.644531 -5.734375 C 2.785156 -5.734375 2.90625 -5.683594 3.003906 -5.585938 C 3.105469 -5.484375 3.152344 -5.367188 3.152344 -5.222656 C 3.152344 -5.085938 3.105469 -4.964844 3.003906 -4.867188 C 2.90625 -4.765625 2.785156 -4.71875 2.644531 -4.71875 Z M 2.644531 -4.71875 " />
            </g>
        </g>
    </g>
    <g fill="#545454" fill-opacity="1">
        <g transform="translate(139.039678, 165.683973)">
            <g />
        </g>
    </g>
    <g fill="#545454" fill-opacity="1">
        <g transform="translate(141.487912, 165.683973)">
            <g>
                <path
                    d="M 2.542969 0 C 2.15625 0 1.800781 -0.09375 1.476562 -0.28125 C 1.148438 -0.472656 0.890625 -0.726562 0.703125 -1.054688 C 0.511719 -1.378906 0.417969 -1.734375 0.417969 -2.121094 C 0.417969 -2.507812 0.511719 -2.863281 0.703125 -3.1875 C 0.890625 -3.511719 1.148438 -3.773438 1.476562 -3.964844 C 1.800781 -4.15625 2.15625 -4.25 2.542969 -4.25 L 4.5625 -4.25 L 4.5625 -1.671875 C 4.5625 -1.402344 4.617188 -1.191406 4.726562 -1.039062 C 4.835938 -0.886719 5.003906 -0.8125 5.226562 -0.8125 L 5.472656 -0.8125 L 5.472656 0 L 5.226562 0 C 4.9375 0 4.691406 -0.0703125 4.5 -0.207031 C 4.304688 -0.34375 4.164062 -0.542969 4.070312 -0.800781 C 3.90625 -0.542969 3.6875 -0.347656 3.421875 -0.207031 C 3.15625 -0.0703125 2.863281 0 2.542969 0 Z M 2.542969 -0.8125 C 2.765625 -0.8125 2.96875 -0.863281 3.152344 -0.972656 C 3.335938 -1.078125 3.480469 -1.230469 3.585938 -1.429688 C 3.691406 -1.628906 3.746094 -1.863281 3.746094 -2.125 L 3.746094 -3.4375 L 2.542969 -3.4375 C 2.304688 -3.4375 2.085938 -3.378906 1.886719 -3.261719 C 1.683594 -3.140625 1.527344 -2.980469 1.40625 -2.78125 C 1.289062 -2.582031 1.226562 -2.363281 1.226562 -2.125 C 1.226562 -1.886719 1.289062 -1.667969 1.40625 -1.46875 C 1.527344 -1.269531 1.683594 -1.109375 1.886719 -0.992188 C 2.085938 -0.871094 2.304688 -0.8125 2.542969 -0.8125 Z M 1.9375 -4.71875 C 1.804688 -4.71875 1.691406 -4.765625 1.59375 -4.863281 C 1.496094 -4.960938 1.449219 -5.074219 1.449219 -5.207031 C 1.449219 -5.34375 1.496094 -5.457031 1.59375 -5.554688 C 1.691406 -5.652344 1.804688 -5.699219 1.9375 -5.699219 C 2.078125 -5.699219 2.195312 -5.652344 2.289062 -5.554688 C 2.386719 -5.457031 2.433594 -5.34375 2.433594 -5.207031 C 2.433594 -5.074219 2.386719 -4.960938 2.289062 -4.863281 C 2.195312 -4.765625 2.078125 -4.71875 1.9375 -4.71875 Z M 3.375 -4.71875 C 3.242188 -4.71875 3.128906 -4.765625 3.03125 -4.863281 C 2.933594 -4.960938 2.886719 -5.074219 2.886719 -5.207031 C 2.886719 -5.347656 2.933594 -5.464844 3.03125 -5.558594 C 3.128906 -5.652344 3.242188 -5.699219 3.375 -5.699219 C 3.515625 -5.699219 3.632812 -5.652344 3.726562 -5.558594 C 3.820312 -5.464844 3.867188 -5.347656 3.867188 -5.207031 C 3.867188 -5.074219 3.820312 -4.960938 3.726562 -4.863281 C 3.632812 -4.765625 3.515625 -4.71875 3.375 -4.71875 Z M 3.375 -4.71875 " />
            </g>
        </g>
    </g>
    <g fill="#545454" fill-opacity="1">
        <g transform="translate(147.004945, 165.683973)">
            <g>
                <path
                    d="M -0.0859375 -0.8125 L 0.472656 -0.8125 C 0.691406 -0.8125 0.859375 -0.886719 0.972656 -1.039062 C 1.082031 -1.191406 1.140625 -1.402344 1.140625 -1.671875 L 1.140625 -4.246094 L 1.949219 -4.25 L 1.949219 -1.671875 C 1.949219 -1.402344 2.007812 -1.191406 2.117188 -1.039062 C 2.230469 -0.886719 2.398438 -0.8125 2.621094 -0.8125 L 3.183594 -0.8125 L 3.183594 0 L 2.621094 0 C 2.136719 0 1.78125 -0.191406 1.546875 -0.578125 C 1.308594 -0.191406 0.949219 0 0.472656 0 L -0.0859375 0 Z M 0.828125 1.695312 C 0.695312 1.695312 0.582031 1.648438 0.484375 1.550781 C 0.386719 1.453125 0.339844 1.339844 0.339844 1.203125 C 0.339844 1.070312 0.386719 0.957031 0.484375 0.859375 C 0.582031 0.761719 0.695312 0.714844 0.828125 0.714844 C 0.964844 0.714844 1.082031 0.761719 1.175781 0.859375 C 1.273438 0.957031 1.320312 1.070312 1.320312 1.203125 C 1.320312 1.335938 1.273438 1.453125 1.175781 1.550781 C 1.078125 1.648438 0.960938 1.695312 0.828125 1.695312 Z M 2.269531 1.695312 C 2.136719 1.695312 2.023438 1.648438 1.925781 1.550781 C 1.828125 1.453125 1.78125 1.339844 1.78125 1.203125 C 1.78125 1.070312 1.828125 0.957031 1.925781 0.859375 C 2.023438 0.761719 2.136719 0.714844 2.269531 0.714844 C 2.402344 0.714844 2.519531 0.761719 2.617188 0.859375 C 2.714844 0.957031 2.761719 1.070312 2.761719 1.203125 C 2.761719 1.335938 2.714844 1.453125 2.617188 1.550781 C 2.519531 1.648438 2.402344 1.695312 2.269531 1.695312 Z M 2.269531 1.695312 " />
            </g>
        </g>
    </g>
    <g fill="#545454" fill-opacity="1">
        <g transform="translate(150.235263, 165.683973)">
            <g>
                <path
                    d="M -0.0859375 -0.8125 L 1.898438 -0.8125 L 0.550781 -2.828125 L 0.550781 -4.25 L 3.746094 -4.25 C 4.089844 -4.25 4.390625 -4.210938 4.640625 -4.128906 C 4.894531 -4.046875 5.089844 -3.917969 5.234375 -3.742188 C 5.378906 -3.5625 5.449219 -3.328125 5.449219 -3.039062 C 5.449219 -2.832031 5.398438 -2.621094 5.296875 -2.40625 C 5.195312 -2.191406 5.0625 -1.980469 4.90625 -1.777344 C 4.746094 -1.574219 4.542969 -1.335938 4.292969 -1.070312 L 4.050781 -0.8125 L 6.085938 -0.8125 L 6.089844 0 L -0.0859375 0 Z M 3.117188 -0.8125 C 3.179688 -0.878906 3.238281 -0.941406 3.300781 -1.007812 C 3.363281 -1.074219 3.425781 -1.140625 3.484375 -1.207031 C 3.84375 -1.589844 4.109375 -1.902344 4.28125 -2.140625 C 4.457031 -2.378906 4.542969 -2.597656 4.542969 -2.792969 C 4.542969 -2.96875 4.5 -3.101562 4.417969 -3.195312 C 4.335938 -3.289062 4.21875 -3.355469 4.066406 -3.386719 C 3.914062 -3.421875 3.714844 -3.4375 3.46875 -3.4375 L 1.503906 -3.4375 L 1.503906 -2.867188 L 2.863281 -0.8125 Z M 3.117188 -0.8125 " />
            </g>
        </g>
    </g>
    <g fill="#545454" fill-opacity="1">
        <g transform="translate(156.372858, 165.683973)">
            <g>
                <path
                    d="M -0.0859375 -0.8125 L 0.417969 -0.8125 C 0.644531 -0.8125 0.816406 -0.886719 0.933594 -1.042969 C 1.050781 -1.195312 1.109375 -1.402344 1.109375 -1.671875 L 1.109375 -4.25 L 1.925781 -4.25 L 1.925781 -1.671875 C 1.925781 -1.339844 1.863281 -1.046875 1.738281 -0.792969 C 1.613281 -0.542969 1.4375 -0.347656 1.210938 -0.207031 C 0.984375 -0.0703125 0.71875 0 0.417969 0 L -0.0859375 0 Z M 0.78125 1.695312 C 0.648438 1.695312 0.535156 1.648438 0.4375 1.550781 C 0.339844 1.453125 0.292969 1.339844 0.292969 1.203125 C 0.292969 1.070312 0.339844 0.957031 0.4375 0.859375 C 0.535156 0.761719 0.648438 0.714844 0.78125 0.714844 C 0.914062 0.714844 1.03125 0.761719 1.128906 0.859375 C 1.226562 0.957031 1.273438 1.070312 1.273438 1.203125 C 1.273438 1.335938 1.226562 1.453125 1.128906 1.550781 C 1.03125 1.648438 0.914062 1.695312 0.78125 1.695312 Z M 2.222656 1.695312 C 2.089844 1.695312 1.976562 1.648438 1.878906 1.550781 C 1.78125 1.453125 1.734375 1.339844 1.734375 1.203125 C 1.734375 1.070312 1.78125 0.957031 1.878906 0.859375 C 1.976562 0.761719 2.089844 0.714844 2.222656 0.714844 C 2.355469 0.714844 2.472656 0.761719 2.570312 0.859375 C 2.667969 0.957031 2.714844 1.070312 2.714844 1.203125 C 2.714844 1.335938 2.667969 1.453125 2.570312 1.550781 C 2.472656 1.648438 2.355469 1.695312 2.222656 1.695312 Z M 2.222656 1.695312 " />
            </g>
        </g>
    </g>
    <g fill="#545454" fill-opacity="1">
        <g transform="translate(159.110121, 165.683973)">
            <g>
                <path
                    d="M 2.171875 0 C 1.867188 0 1.605469 -0.0703125 1.382812 -0.207031 C 1.160156 -0.347656 0.992188 -0.542969 0.871094 -0.792969 C 0.753906 -1.042969 0.691406 -1.335938 0.691406 -1.671875 L 0.691406 -6.628906 L 1.503906 -6.628906 L 1.503906 -1.671875 C 1.503906 -1.402344 1.5625 -1.191406 1.671875 -1.039062 C 1.785156 -0.886719 1.949219 -0.8125 2.171875 -0.8125 L 2.382812 -0.8125 L 2.382812 0 Z M 2.171875 0 " />
            </g>
        </g>
    </g>
    <g fill="#545454" fill-opacity="1">
        <g transform="translate(161.541362, 165.683973)">
            <g>
                <path
                    d="M -0.0859375 -0.8125 L 0.160156 -0.8125 C 0.382812 -0.8125 0.550781 -0.886719 0.660156 -1.039062 C 0.773438 -1.191406 0.828125 -1.402344 0.828125 -1.671875 L 0.828125 -4.25 L 1.640625 -4.25 L 1.640625 -1.671875 C 1.640625 -1.402344 1.695312 -1.191406 1.808594 -1.039062 C 1.921875 -0.886719 2.089844 -0.8125 2.3125 -0.8125 L 2.554688 -0.8125 L 2.554688 0 L 2.3125 0 C 1.828125 0 1.46875 -0.191406 1.238281 -0.578125 C 1 -0.191406 0.640625 0 0.160156 0 L -0.0859375 0 Z M 1.238281 -4.71875 C 1.097656 -4.71875 0.980469 -4.765625 0.878906 -4.867188 C 0.78125 -4.964844 0.730469 -5.085938 0.730469 -5.222656 C 0.730469 -5.367188 0.78125 -5.484375 0.878906 -5.585938 C 0.980469 -5.683594 1.097656 -5.734375 1.238281 -5.734375 C 1.378906 -5.734375 1.5 -5.683594 1.597656 -5.585938 C 1.699219 -5.484375 1.746094 -5.367188 1.746094 -5.222656 C 1.746094 -5.085938 1.699219 -4.964844 1.597656 -4.867188 C 1.5 -4.765625 1.378906 -4.71875 1.238281 -4.71875 Z M 1.238281 -4.71875 " />
            </g>
        </g>
    </g>
    <g fill="#545454" fill-opacity="1">
        <g transform="translate(164.142612, 165.683973)">
            <g>
                <path
                    d="M -0.0859375 -0.8125 L 0.742188 -0.8125 L 0.742188 -4.25 L 1.554688 -4.25 L 1.554688 -2.960938 C 1.894531 -3.351562 2.25 -3.664062 2.621094 -3.898438 C 2.996094 -4.132812 3.394531 -4.25 3.8125 -4.25 C 4.210938 -4.25 4.5625 -4.15625 4.871094 -3.96875 C 5.179688 -3.78125 5.417969 -3.515625 5.589844 -3.179688 C 5.757812 -2.84375 5.84375 -2.457031 5.84375 -2.023438 L 5.84375 -1.65625 C 5.84375 -1.386719 5.894531 -1.175781 5.996094 -1.03125 C 6.097656 -0.886719 6.261719 -0.8125 6.480469 -0.8125 L 6.710938 -0.8125 L 6.710938 0 L 6.480469 0 C 6.222656 0 6.007812 -0.0546875 5.835938 -0.160156 C 5.664062 -0.269531 5.523438 -0.425781 5.414062 -0.632812 C 5.285156 -0.425781 5.121094 -0.269531 4.917969 -0.160156 C 4.71875 -0.0546875 4.496094 0 4.246094 0 L -0.0859375 0 Z M 4.246094 -0.8125 C 4.476562 -0.8125 4.664062 -0.894531 4.8125 -1.054688 C 4.957031 -1.21875 5.03125 -1.453125 5.03125 -1.757812 L 5.03125 -2.011719 C 5.03125 -2.292969 4.980469 -2.542969 4.875 -2.757812 C 4.769531 -2.972656 4.621094 -3.140625 4.421875 -3.261719 C 4.226562 -3.378906 3.996094 -3.4375 3.730469 -3.4375 C 3.367188 -3.4375 3.007812 -3.308594 2.644531 -3.042969 C 2.285156 -2.78125 1.921875 -2.425781 1.554688 -1.976562 L 1.554688 -0.8125 Z M 4.246094 -0.8125 " />
            </g>
        </g>
    </g>
    <g fill="#545454" fill-opacity="1">
        <g transform="translate(170.900768, 165.683973)">
            <g>
                <path
                    d="M -0.0859375 -0.8125 L 0.144531 -0.8125 C 0.367188 -0.8125 0.535156 -0.886719 0.644531 -1.039062 C 0.757812 -1.191406 0.8125 -1.402344 0.8125 -1.671875 L 0.8125 -6.628906 L 1.628906 -6.628906 L 1.628906 -1.671875 C 1.628906 -1.335938 1.570312 -1.042969 1.449219 -0.792969 C 1.332031 -0.542969 1.160156 -0.347656 0.933594 -0.207031 C 0.710938 -0.0703125 0.449219 0 0.144531 0 L -0.0859375 0 Z M -0.0859375 -0.8125 " />
            </g>
        </g>
    </g>
    <g fill="#545454" fill-opacity="1">
        <g transform="translate(173.383008, 165.683973)">
            <g>
                <path
                    d="M 0.691406 -6.628906 L 1.503906 -6.628906 L 1.503906 0 L 0.691406 0 Z M 0.691406 -6.628906 " />
            </g>
        </g>
    </g>
    <g fill="#545454" fill-opacity="1">
        <g transform="translate(175.70373, 165.683973)">
            <g />
        </g>
    </g>
    <g fill="#545454" fill-opacity="1">
        <g transform="translate(178.151958, 165.683973)">
            <g>
                <path
                    d="M 2.695312 1.929688 C 2.273438 1.929688 1.890625 1.824219 1.546875 1.613281 C 1.199219 1.40625 0.921875 1.113281 0.71875 0.734375 C 0.519531 0.355469 0.417969 -0.078125 0.417969 -0.5625 L 0.417969 -3.398438 L 1.226562 -3.398438 L 1.226562 -0.5625 C 1.226562 -0.222656 1.292969 0.0742188 1.425781 0.328125 C 1.554688 0.578125 1.730469 0.773438 1.953125 0.910156 C 2.175781 1.050781 2.421875 1.117188 2.695312 1.117188 C 2.964844 1.117188 3.214844 1.050781 3.4375 0.910156 C 3.660156 0.773438 3.835938 0.578125 3.964844 0.328125 C 4.097656 0.0742188 4.160156 -0.222656 4.160156 -0.5625 L 4.160156 -6.628906 L 4.972656 -6.628906 L 4.972656 -1.671875 C 4.972656 -1.402344 5.027344 -1.191406 5.140625 -1.039062 C 5.253906 -0.886719 5.421875 -0.8125 5.644531 -0.8125 L 5.886719 -0.8125 L 5.886719 0 L 5.644531 0 C 5.351562 0 5.125 -0.0976562 4.964844 -0.296875 C 4.925781 0.140625 4.800781 0.53125 4.589844 0.871094 C 4.378906 1.207031 4.109375 1.46875 3.777344 1.652344 C 3.445312 1.835938 3.085938 1.929688 2.695312 1.929688 Z M 2.695312 1.929688 " />
            </g>
        </g>
    </g>
    <g fill="#545454" fill-opacity="1">
        <g transform="translate(184.085543, 165.683973)">
            <g>
                <path
                    d="M -0.0859375 -0.8125 L 4.324219 -0.8125 L 4.320312 -1.402344 C 4.316406 -1.8125 4.226562 -2.171875 4.058594 -2.476562 C 3.886719 -2.785156 3.648438 -3.019531 3.339844 -3.1875 C 3.035156 -3.355469 2.679688 -3.4375 2.269531 -3.4375 L 0.609375 -3.4375 L 0.609375 -4.25 L 3.292969 -6.628906 L 4.390625 -6.628906 L 1.671875 -4.25 L 2.3125 -4.25 C 2.84375 -4.25 3.324219 -4.132812 3.75 -3.894531 C 4.175781 -3.660156 4.511719 -3.328125 4.757812 -2.898438 C 5.003906 -2.472656 5.128906 -1.984375 5.128906 -1.441406 L 5.132812 0 L -0.0859375 0 Z M -0.0859375 -0.8125 " />
            </g>
        </g>
    </g>
</svg>