<svg xmlns="http://www.w3.org/2000/svg" xmlns:xlink="http://www.w3.org/1999/xlink" width="545" zoomAndPan="magnify" viewBox="0 0 408.75 176.249993" height="235" preserveAspectRatio="xMidYMid meet" version="1.0"><defs><g/><clipPath id="1c45ef02eb"><path d="M 89 54 L 159 54 L 159 112.769531 L 89 112.769531 Z M 89 54 " clip-rule="nonzero"/></clipPath><clipPath id="1770e55c38"><path d="M 80.066406 12.089844 L 167.460938 12.089844 L 167.460938 58 L 80.066406 58 Z M 80.066406 12.089844 " clip-rule="nonzero"/></clipPath><clipPath id="c14d71c959"><path d="M 80.066406 15 L 114 15 L 114 56 L 80.066406 56 Z M 80.066406 15 " clip-rule="nonzero"/></clipPath></defs><g fill="#ef4444" fill-opacity="1"><g transform="translate(114.689946, 125.260045)"><g><path d="M 48.03125 -2.9375 L 54.234375 -2.9375 C 54.679688 -2.9375 54.90625 -2.648438 54.90625 -2.078125 L 54.90625 -0.90625 C 54.90625 -0.300781 54.679688 0 54.234375 0 L 46 0 C 45.394531 0 45.09375 -0.300781 45.09375 -0.90625 L 45.09375 -22.15625 L 38.28125 -22.15625 C 36.175781 -22.15625 34.53125 -21.535156 33.34375 -20.296875 C 32.15625 -19.054688 31.5625 -17.328125 31.5625 -15.109375 L 31.5625 2.9375 C 31.5625 5.789062 30.722656 8.023438 29.046875 9.640625 C 27.378906 11.253906 24.875 12.0625 21.53125 12.0625 L 15.5625 12.0625 C 11.945312 12.0625 9.191406 11.007812 7.296875 8.90625 C 5.398438 6.800781 4.453125 4.113281 4.453125 0.84375 C 4.453125 -1.144531 4.78125 -3.050781 5.4375 -4.875 C 6.09375 -6.695312 6.945312 -8.304688 8 -9.703125 C 8.300781 -10.179688 8.695312 -10.273438 9.1875 -9.984375 L 10.09375 -9.359375 C 10.582031 -9.054688 10.65625 -8.660156 10.3125 -8.171875 C 9.414062 -6.785156 8.710938 -5.359375 8.203125 -3.890625 C 7.691406 -2.421875 7.4375 -0.957031 7.4375 0.5 C 7.4375 3.25 8.160156 5.375 9.609375 6.875 C 11.054688 8.375 13.039062 9.125 15.5625 9.125 L 21.59375 9.125 C 23.8125 9.125 25.539062 8.585938 26.78125 7.515625 C 28.019531 6.453125 28.640625 4.941406 28.640625 2.984375 L 28.640625 -15.046875 C 28.640625 -18.171875 29.445312 -20.625 31.0625 -22.40625 C 32.675781 -24.195312 35.082031 -25.09375 38.28125 -25.09375 L 47.1875 -25.09375 C 47.75 -25.09375 48.03125 -24.789062 48.03125 -24.1875 Z M 13.359375 17.140625 L 15.046875 17.140625 C 15.503906 17.140625 15.734375 17.363281 15.734375 17.8125 L 15.734375 20.96875 C 15.734375 21.414062 15.503906 21.640625 15.046875 21.640625 L 13.359375 21.640625 C 12.910156 21.640625 12.6875 21.414062 12.6875 20.96875 L 12.6875 17.8125 C 12.6875 17.363281 12.910156 17.140625 13.359375 17.140625 Z M 20.96875 17.140625 L 22.71875 17.140625 C 23.164062 17.140625 23.390625 17.363281 23.390625 17.8125 L 23.390625 20.96875 C 23.390625 21.414062 23.164062 21.640625 22.71875 21.640625 L 20.96875 21.640625 C 20.519531 21.640625 20.296875 21.414062 20.296875 20.96875 L 20.296875 17.8125 C 20.296875 17.363281 20.519531 17.140625 20.96875 17.140625 Z M 20.96875 17.140625 "/></g></g></g><g fill="#ef4444" fill-opacity="1"><g transform="translate(168.909943, 125.260045)"><g><path d="M 20.96875 -2.9375 L 28.640625 -2.9375 C 29.085938 -2.9375 29.3125 -2.707031 29.3125 -2.25 L 29.3125 -0.671875 C 29.3125 -0.222656 29.085938 0 28.640625 0 L 0 0 C -0.445312 0 -0.671875 -0.222656 -0.671875 -0.671875 L -0.671875 -2.25 C -0.671875 -2.707031 -0.445312 -2.9375 0 -2.9375 L 7.671875 -2.9375 L 2.53125 -16.234375 C 2.53125 -19.054688 3.335938 -21.332031 4.953125 -23.0625 C 6.578125 -24.789062 8.832031 -25.65625 11.71875 -25.65625 L 16.859375 -25.65625 C 19.753906 -25.65625 22.007812 -24.78125 23.625 -23.03125 C 25.238281 -21.28125 26.046875 -19.015625 26.046875 -16.234375 Z M 5.578125 -16.0625 L 10.421875 -2.9375 L 18.265625 -2.9375 L 23.0625 -16.0625 C 22.945312 -18.164062 22.316406 -19.800781 21.171875 -20.96875 C 20.023438 -22.132812 18.414062 -22.71875 16.34375 -22.71875 L 12.40625 -22.71875 C 10.300781 -22.71875 8.65625 -22.132812 7.46875 -20.96875 C 6.28125 -19.800781 5.648438 -18.164062 5.578125 -16.0625 Z M 5.578125 -16.0625 "/></g></g></g><g fill="#ef4444" fill-opacity="1"><g transform="translate(197.541705, 125.260045)"><g><path d="M 4.0625 0 L 0 0 C -0.445312 0 -0.671875 -0.222656 -0.671875 -0.671875 L -0.671875 -2.25 C -0.671875 -2.707031 -0.445312 -2.9375 0 -2.9375 L 4.109375 -2.9375 C 8.285156 -2.9375 10.375 -4.851562 10.375 -8.6875 L 10.375 -24.1875 C 10.375 -24.789062 10.632812 -25.09375 11.15625 -25.09375 L 12.453125 -25.09375 C 13.015625 -25.09375 13.296875 -24.789062 13.296875 -24.1875 L 13.296875 -8.734375 C 13.296875 -5.878906 12.570312 -3.707031 11.125 -2.21875 C 9.6875 -0.738281 7.332031 0 4.0625 0 Z M 3.671875 9.46875 L 1.96875 9.46875 C 1.519531 9.46875 1.296875 9.242188 1.296875 8.796875 L 1.296875 5.640625 C 1.296875 5.191406 1.519531 4.96875 1.96875 4.96875 L 3.671875 4.96875 C 4.117188 4.96875 4.34375 5.191406 4.34375 5.640625 L 4.34375 8.796875 C 4.34375 9.242188 4.117188 9.46875 3.671875 9.46875 Z M 11.328125 9.46875 L 9.578125 9.46875 C 9.128906 9.46875 8.90625 9.242188 8.90625 8.796875 L 8.90625 5.640625 C 8.90625 5.191406 9.128906 4.96875 9.578125 4.96875 L 11.328125 4.96875 C 11.785156 4.96875 12.015625 5.191406 12.015625 5.640625 L 12.015625 8.796875 C 12.015625 9.242188 11.785156 9.46875 11.328125 9.46875 Z M 11.328125 9.46875 "/></g></g></g><g fill="#ef4444" fill-opacity="1"><g transform="translate(215.915638, 125.260045)"><g><path d="M 3.328125 -38.046875 L 3.328125 -39.234375 C 3.328125 -39.835938 3.609375 -40.140625 4.171875 -40.140625 L 9.015625 -40.140625 C 9.578125 -40.140625 9.859375 -39.835938 9.859375 -39.234375 L 9.859375 -9.296875 C 9.859375 -7.046875 10.347656 -5.421875 11.328125 -4.421875 C 12.304688 -3.429688 13.847656 -2.9375 15.953125 -2.9375 L 17.640625 -2.9375 C 18.097656 -2.9375 18.328125 -2.707031 18.328125 -2.25 L 18.328125 -0.671875 C 18.328125 -0.222656 18.097656 0 17.640625 0 L 15.5625 0 C 9.8125 0 6.9375 -3.097656 6.9375 -9.296875 L 6.9375 -37.203125 L 4.171875 -37.203125 C 3.609375 -37.203125 3.328125 -37.484375 3.328125 -38.046875 Z M 3.328125 -38.046875 "/></g></g></g><g fill="#ef4444" fill-opacity="1"><g transform="translate(233.556869, 125.260045)"><g><path d="M 10.9375 -30.109375 L 9.1875 -30.109375 C 8.695312 -30.109375 8.453125 -30.332031 8.453125 -30.78125 L 8.453125 -34.046875 C 8.453125 -34.460938 8.695312 -34.671875 9.1875 -34.671875 L 10.9375 -34.671875 C 11.382812 -34.671875 11.609375 -34.460938 11.609375 -34.046875 L 11.609375 -30.78125 C 11.609375 -30.332031 11.382812 -30.109375 10.9375 -30.109375 Z M 17.765625 -2.9375 L 18.9375 -2.9375 C 19.394531 -2.9375 19.625 -2.707031 19.625 -2.25 L 19.625 -0.671875 C 19.625 -0.222656 19.394531 0 18.9375 0 L 17.703125 0 C 15.742188 0 14.179688 -0.304688 13.015625 -0.921875 C 11.859375 -1.546875 10.976562 -2.476562 10.375 -3.71875 C 9.09375 -1.238281 6.382812 0 2.25 0 L 0 0 C -0.445312 0 -0.671875 -0.222656 -0.671875 -0.671875 L -0.671875 -2.25 C -0.671875 -2.707031 -0.445312 -2.9375 0 -2.9375 L 2.25 -2.9375 C 4.394531 -2.9375 5.972656 -3.40625 6.984375 -4.34375 C 8.003906 -5.28125 8.515625 -6.726562 8.515625 -8.6875 L 8.515625 -24.1875 C 8.515625 -24.789062 8.796875 -25.09375 9.359375 -25.09375 L 10.59375 -25.09375 C 11.15625 -25.09375 11.4375 -24.789062 11.4375 -24.1875 L 11.4375 -10.09375 C 11.4375 -7.570312 11.9375 -5.75 12.9375 -4.625 C 13.9375 -3.5 15.546875 -2.9375 17.765625 -2.9375 Z M 17.765625 -2.9375 "/></g></g></g><g fill="#ef4444" fill-opacity="1"><g transform="translate(252.494417, 125.260045)"><g><path d="M 17.3125 -25.25 L 27.390625 -25.25 C 30.398438 -25.25 32.710938 -24.410156 34.328125 -22.734375 C 35.941406 -21.066406 36.75 -18.785156 36.75 -15.890625 L 36.75 -9.859375 C 36.75 -6.785156 35.96875 -4.375 34.40625 -2.625 C 32.851562 -0.875 30.515625 0 27.390625 0 L 0 0 C -0.445312 0 -0.671875 -0.300781 -0.671875 -0.90625 L -0.671875 -2.078125 C -0.671875 -2.648438 -0.445312 -2.9375 0 -2.9375 L 6.546875 -2.9375 L 6.546875 -24.359375 C 6.546875 -24.953125 6.828125 -25.25 7.390625 -25.25 L 8.234375 -25.25 C 8.796875 -25.25 9.078125 -24.953125 9.078125 -24.359375 L 9.078125 -21.53125 C 10.054688 -22.65625 11.238281 -23.554688 12.625 -24.234375 C 14.019531 -24.910156 15.582031 -25.25 17.3125 -25.25 Z M 33.828125 -9.8125 L 33.828125 -15.890625 C 33.828125 -17.890625 33.253906 -19.453125 32.109375 -20.578125 C 30.960938 -21.703125 29.410156 -22.265625 27.453125 -22.265625 L 17.03125 -22.265625 C 14.84375 -22.265625 13.035156 -21.691406 11.609375 -20.546875 C 10.179688 -19.398438 9.46875 -17.660156 9.46875 -15.328125 L 9.46875 -2.9375 L 27.453125 -2.9375 C 29.441406 -2.9375 31 -3.523438 32.125 -4.703125 C 33.257812 -5.890625 33.828125 -7.59375 33.828125 -9.8125 Z M 33.828125 -9.8125 "/></g></g></g><path fill="#800000" d="M 124.207031 54.25 L 127.714844 57.15625 C 125.230469 57.210938 122.855469 57.238281 120.574219 57.246094 Z M 124.207031 54.25 " fill-opacity="1" fill-rule="nonzero"/><g clip-path="url(#1c45ef02eb)"><path fill="#525252" d="M 158.480469 58.28125 C 151.039062 58.859375 143.773438 59.277344 136.832031 59.554688 L 139.902344 62.09375 L 146.070312 67.210938 L 149.933594 70.414062 L 143.71875 70.414062 L 139.855469 67.210938 L 133.964844 62.328125 L 127.714844 57.15625 L 124.207031 54.25 L 120.574219 57.246094 L 114.113281 62.578125 L 108.488281 67.210938 L 104.605469 70.414062 L 98.234375 70.414062 L 102.113281 67.210938 L 107.828125 62.496094 L 107.828125 59.785156 L 107.757812 59.785156 C 100.921875 59.589844 94.65625 59.214844 89.109375 58.691406 C 89.109375 59.039062 89.101562 59.386719 89.101562 59.734375 C 89.101562 60.277344 89.109375 60.8125 89.136719 61.347656 C 89.222656 63.351562 89.492188 65.3125 89.910156 67.210938 C 89.917969 67.285156 89.9375 67.347656 89.953125 67.410156 C 90.175781 68.433594 90.453125 69.441406 90.773438 70.429688 C 91.992188 74.230469 93.863281 77.730469 96.222656 80.824219 L 96.265625 80.878906 C 96.816406 81.601562 97.386719 82.289062 97.992188 82.957031 L 121.644531 111.457031 C 122.765625 112.804688 124.839844 112.804688 125.960938 111.457031 L 149.871094 82.652344 C 150.261719 82.207031 150.636719 81.753906 151.003906 81.289062 L 151.386719 80.824219 L 151.367188 80.824219 C 153.039062 78.632812 154.484375 76.242188 155.605469 73.675781 C 156.511719 71.617188 157.214844 69.460938 157.707031 67.210938 C 158.160156 65.1875 158.425781 63.085938 158.496094 60.945312 C 158.496094 60.542969 158.515625 60.132812 158.515625 59.734375 C 158.515625 59.242188 158.507812 58.761719 158.480469 58.28125 Z M 124.984375 64.984375 L 129.246094 64.984375 L 129.246094 69.433594 L 124.984375 69.433594 Z M 129.328125 71.261719 L 129.328125 75.707031 L 125.0625 75.707031 L 125.0625 71.261719 Z M 118.75 64.984375 L 123.015625 64.984375 L 123.015625 69.433594 L 118.75 69.433594 Z M 123.105469 71.261719 L 123.105469 75.707031 L 118.832031 75.707031 L 118.832031 71.261719 Z M 143.125 77.75 L 139.207031 77.75 C 139.03125 78.425781 138.851562 79.070312 138.664062 79.78125 C 138.726562 79.816406 138.78125 79.855469 138.84375 79.890625 C 139.910156 80.511719 141.003906 81.15625 142.089844 81.796875 C 141.832031 82.242188 141.585938 82.679688 141.351562 83.109375 C 141.09375 83.554688 140.84375 83.992188 140.597656 84.425781 C 140.117188 85.265625 139.625 86.09375 139.128906 86.949219 C 137.96875 86.28125 136.839844 85.621094 135.710938 84.972656 C 135.21875 85.46875 134.746094 85.960938 134.230469 86.496094 C 134.402344 86.78125 134.5625 87.074219 134.730469 87.371094 C 135.203125 88.1875 135.691406 89.035156 136.191406 89.902344 C 135.894531 90.070312 135.609375 90.230469 135.328125 90.398438 C 133.894531 91.230469 132.476562 92.050781 131.035156 92.886719 C 130.375 91.746094 129.71875 90.605469 129.050781 89.445312 C 128.402344 89.617188 127.769531 89.777344 127.09375 89.953125 C 126.996094 90.460938 127.03125 90.988281 127.039062 91.523438 C 127.046875 91.640625 127.046875 91.765625 127.046875 91.878906 C 127.03125 92.539062 127.039062 93.199219 127.039062 93.851562 C 126.996094 93.859375 126.921875 93.878906 126.816406 93.886719 C 125.765625 93.992188 121.804688 94.011719 121.046875 93.894531 L 121.046875 89.980469 C 120.414062 89.8125 119.773438 89.640625 119.054688 89.457031 C 118.332031 90.542969 117.753906 91.746094 117.015625 92.871094 C 115.476562 91.976562 113.960938 91.105469 112.40625 90.214844 C 112.226562 90.105469 112.046875 90.007812 111.871094 89.902344 C 112.296875 89.152344 112.734375 88.402344 113.152344 87.679688 C 113.382812 87.28125 113.605469 86.886719 113.828125 86.503906 C 113.320312 86.015625 112.847656 85.558594 112.289062 85.023438 C 111.273438 85.613281 110.125 86.273438 108.933594 86.949219 C 108.160156 85.59375 107.382812 84.257812 106.601562 82.902344 C 106.386719 82.527344 106.171875 82.164062 105.960938 81.789062 C 106.949219 81.21875 107.882812 80.675781 108.835938 80.113281 C 109.023438 80.003906 109.199219 79.898438 109.386719 79.792969 C 109.21875 79.113281 109.046875 78.472656 108.863281 77.75 C 107.570312 77.722656 106.269531 77.714844 104.925781 77.75 L 104.925781 74.90625 C 105.355469 74.789062 113.207031 74.746094 114.34375 74.863281 C 114.46875 77.980469 115.707031 80.585938 118.21875 82.5 C 120.113281 83.953125 122.3125 84.613281 124.6875 84.445312 C 128.765625 84.152344 132.503906 81.28125 133.464844 76.832031 C 133.492188 76.726562 133.519531 76.617188 133.535156 76.511719 C 133.625 75.992188 133.6875 75.457031 133.707031 74.90625 C 134.152344 74.789062 142.117188 74.746094 143.125 74.871094 Z M 143.125 77.75 " fill-opacity="1" fill-rule="nonzero"/></g><g clip-path="url(#1770e55c38)"><path fill="#ef4444" d="M 167.460938 52.726562 L 167.460938 54.839844 C 164.308594 55.125 161.246094 55.382812 158.273438 55.613281 C 149.292969 56.308594 141.121094 56.746094 133.734375 56.988281 L 124.144531 49.042969 L 114.21875 57.226562 C 113.5625 57.226562 112.910156 57.21875 112.269531 57.199219 L 112.269531 52.386719 L 107.828125 52.386719 L 107.828125 57.113281 C 99.941406 56.890625 93.78125 56.453125 89.296875 56.015625 C 86.5 55.746094 84.363281 55.480469 82.851562 55.265625 C 81.042969 55.015625 80.144531 54.839844 80.144531 54.839844 L 80.144531 52.726562 C 80.144531 49.125 83.0625 46.199219 86.660156 46.199219 C 88.28125 31.9375 97.914062 20.113281 110.945312 15.335938 C 111.558594 15.113281 112.246094 15.390625 112.554688 15.96875 L 113.160156 17.144531 L 117.46875 25.554688 L 119.730469 29.964844 L 119.660156 25.222656 L 119.5 14.570312 C 119.5 13.597656 120.132812 12.742188 121.066406 12.476562 C 121.832031 12.253906 122.765625 12.089844 123.84375 12.089844 C 124.894531 12.089844 125.808594 12.261719 126.558594 12.476562 C 127.492188 12.742188 128.117188 13.597656 128.117188 14.570312 L 128.117188 29.726562 L 130.226562 25.570312 L 135.066406 16.003906 C 135.371094 15.40625 136.066406 15.121094 136.6875 15.34375 C 149.710938 20.132812 159.335938 31.945312 160.953125 46.199219 C 164.550781 46.199219 167.460938 49.125 167.460938 52.726562 Z M 167.460938 52.726562 " fill-opacity="1" fill-rule="nonzero"/><path fill="#ef4444" d="M 167.460938 52.726562 L 167.460938 54.839844 C 164.308594 55.125 161.246094 55.382812 158.273438 55.613281 C 149.292969 56.308594 141.121094 56.746094 133.734375 56.988281 L 124.144531 49.042969 L 114.21875 57.226562 C 113.5625 57.226562 112.910156 57.21875 112.269531 57.199219 L 112.269531 52.386719 L 107.828125 52.386719 L 107.828125 57.113281 C 99.941406 56.890625 93.78125 56.453125 89.296875 56.015625 C 86.5 55.746094 84.363281 55.480469 82.851562 55.265625 C 81.042969 55.015625 80.144531 54.839844 80.144531 54.839844 L 80.144531 52.726562 C 80.144531 49.125 83.0625 46.199219 86.660156 46.199219 C 88.28125 31.9375 97.914062 20.113281 110.945312 15.335938 C 111.558594 15.113281 112.246094 15.390625 112.554688 15.96875 L 113.160156 17.144531 L 117.46875 25.554688 L 119.730469 29.964844 L 119.660156 25.222656 L 119.5 14.570312 C 119.5 13.597656 120.132812 12.742188 121.066406 12.476562 C 121.832031 12.253906 122.765625 12.089844 123.84375 12.089844 C 124.894531 12.089844 125.808594 12.261719 126.558594 12.476562 C 127.492188 12.742188 128.117188 13.597656 128.117188 14.570312 L 128.117188 29.726562 L 130.226562 25.570312 L 135.066406 16.003906 C 135.371094 15.40625 136.066406 15.121094 136.6875 15.34375 C 149.710938 20.132812 159.335938 31.945312 160.953125 46.199219 C 164.550781 46.199219 167.460938 49.125 167.460938 52.726562 Z M 167.460938 52.726562 " fill-opacity="1" fill-rule="nonzero"/></g><path fill="#000000" d="M 107.757812 59.785156 L 107.828125 59.785156 L 107.828125 62.460938 C 99.941406 62.238281 93.78125 61.800781 89.296875 61.363281 C 89.242188 61.363281 89.1875 61.363281 89.136719 61.347656 C 89.109375 60.8125 89.101562 60.277344 89.101562 59.734375 C 89.101562 59.386719 89.109375 59.039062 89.109375 58.691406 C 94.65625 59.214844 100.921875 59.589844 107.757812 59.785156 Z M 107.757812 59.785156 " fill-opacity="1" fill-rule="nonzero"/><path fill="#000000" d="M 158.515625 59.734375 C 158.515625 60.132812 158.507812 60.542969 158.496094 60.945312 C 158.425781 60.953125 158.347656 60.953125 158.273438 60.964844 C 151.722656 61.472656 145.597656 61.835938 139.902344 62.09375 L 136.832031 59.554688 C 143.773438 59.277344 151.039062 58.859375 158.480469 58.28125 C 158.507812 58.761719 158.515625 59.242188 158.515625 59.734375 Z M 158.515625 59.734375 " fill-opacity="1" fill-rule="nonzero"/><path fill="#000000" d="M 109.386719 79.792969 C 109.199219 79.898438 109.023438 80.003906 108.835938 80.113281 C 108.773438 79.871094 108.710938 79.621094 108.648438 79.363281 C 107.347656 79.335938 106.046875 79.328125 104.703125 79.363281 L 104.703125 76.519531 C 104.703125 76.519531 104.8125 76.5 104.925781 76.492188 L 104.925781 77.75 C 106.269531 77.714844 107.570312 77.722656 108.863281 77.75 C 109.046875 78.472656 109.21875 79.113281 109.386719 79.792969 Z M 109.386719 79.792969 " fill-opacity="1" fill-rule="nonzero"/><path fill="#000000" d="M 113.828125 86.503906 C 113.605469 86.886719 113.382812 87.28125 113.152344 87.679688 C 112.804688 87.34375 112.457031 87.011719 112.066406 86.636719 C 111.058594 87.21875 109.902344 87.886719 108.71875 88.5625 C 107.722656 86.84375 106.742188 85.140625 105.738281 83.402344 C 106.03125 83.234375 106.316406 83.0625 106.601562 82.902344 C 107.382812 84.257812 108.160156 85.59375 108.933594 86.949219 C 110.125 86.273438 111.273438 85.613281 112.289062 85.023438 C 112.847656 85.558594 113.320312 86.015625 113.828125 86.503906 Z M 113.828125 86.503906 " fill-opacity="1" fill-rule="nonzero"/><path fill="#000000" d="M 126.824219 95.464844 C 126.363281 95.605469 121.652344 95.632812 120.824219 95.507812 L 120.824219 91.59375 C 120.203125 91.425781 119.550781 91.257812 118.832031 91.058594 C 118.109375 92.15625 117.53125 93.359375 116.792969 94.484375 C 115.082031 93.492188 113.390625 92.523438 111.648438 91.515625 C 111.90625 91.078125 112.15625 90.640625 112.40625 90.214844 C 113.960938 91.105469 115.476562 91.976562 117.015625 92.871094 C 117.753906 91.746094 118.332031 90.542969 119.054688 89.457031 C 119.773438 89.640625 120.414062 89.8125 121.046875 89.980469 L 121.046875 93.894531 C 121.804688 94.011719 125.765625 93.992188 126.816406 93.886719 C 126.816406 94.410156 126.824219 94.9375 126.824219 95.464844 Z M 126.824219 95.464844 " fill-opacity="1" fill-rule="nonzero"/><path fill="#000000" d="M 133.535156 76.511719 C 133.519531 76.617188 133.492188 76.726562 133.464844 76.832031 C 133.476562 76.726562 133.484375 76.625 133.484375 76.519531 C 133.492188 76.519531 133.511719 76.519531 133.535156 76.519531 Z M 133.535156 76.511719 " fill-opacity="1" fill-rule="nonzero"/><path fill="#000000" d="M 135.96875 91.515625 C 134.242188 92.511719 132.550781 93.492188 130.8125 94.5 C 130.15625 93.359375 129.496094 92.21875 128.828125 91.058594 C 128.230469 91.210938 127.652344 91.363281 127.039062 91.523438 C 127.03125 90.988281 126.996094 90.460938 127.09375 89.953125 C 127.769531 89.777344 128.402344 89.617188 129.050781 89.445312 C 129.71875 90.605469 130.375 91.746094 131.035156 92.886719 C 132.476562 92.050781 133.894531 91.230469 135.328125 90.398438 C 135.539062 90.765625 135.753906 91.140625 135.96875 91.515625 Z M 135.96875 91.515625 " fill-opacity="1" fill-rule="nonzero"/><path fill="#000000" d="M 141.867188 83.410156 C 141.351562 84.328125 140.863281 85.183594 140.375 86.039062 C 139.894531 86.878906 139.402344 87.707031 138.90625 88.5625 C 137.746094 87.894531 136.617188 87.234375 135.488281 86.585938 C 135.226562 86.84375 134.980469 87.101562 134.730469 87.371094 C 134.5625 87.074219 134.402344 86.78125 134.230469 86.496094 C 134.746094 85.960938 135.21875 85.46875 135.710938 84.972656 C 136.839844 85.621094 137.96875 86.28125 139.128906 86.949219 C 139.625 86.09375 140.117188 85.265625 140.597656 84.425781 C 140.84375 83.992188 141.09375 83.554688 141.351562 83.109375 C 141.523438 83.207031 141.699219 83.3125 141.867188 83.410156 Z M 141.867188 83.410156 " fill-opacity="1" fill-rule="nonzero"/><path fill="#000000" d="M 142.910156 77.75 L 142.910156 79.363281 L 138.984375 79.363281 C 138.941406 79.542969 138.886719 79.71875 138.84375 79.890625 C 138.78125 79.855469 138.726562 79.816406 138.664062 79.78125 C 138.851562 79.070312 139.03125 78.425781 139.207031 77.75 Z M 142.910156 77.75 " fill-opacity="1" fill-rule="nonzero"/><g clip-path="url(#c14d71c959)"><path fill="#bf0000" d="M 109.253906 48.207031 C 107.667969 48.3125 90.941406 49.382812 85.199219 48.652344 C 79.175781 47.894531 81.410156 55.035156 81.410156 55.035156 C 79.601562 54.785156 80.144531 54.839844 80.144531 54.839844 L 80.144531 52.726562 C 80.144531 49.125 83.0625 46.199219 86.660156 46.199219 C 88.28125 31.9375 97.914062 20.113281 110.945312 15.335938 C 111.558594 15.113281 112.246094 15.390625 112.554688 15.96875 L 113.160156 17.144531 C 113.160156 17.144531 99.390625 22.914062 95.554688 40.164062 C 94.789062 43.597656 97.148438 46.929688 100.617188 47.449219 C 103.644531 47.902344 107.125 48.3125 109.253906 48.195312 Z M 109.253906 48.207031 " fill-opacity="1" fill-rule="nonzero"/></g><path fill="#000000" d="M 104.605469 70.414062 L 105.914062 70.414062 L 124.144531 55.410156 L 142.472656 70.414062 L 143.71875 70.414062 L 124.207031 54.25 Z M 104.605469 70.414062 " fill-opacity="1" fill-rule="nonzero"/><g fill="#000000" fill-opacity="1"><g transform="translate(155.686044, 145.292391)"><g><path d="M 0.375 -0.453125 C 0.382812 -0.523438 0.410156 -0.578125 0.453125 -0.609375 C 0.503906 -0.648438 0.566406 -0.671875 0.640625 -0.671875 L 3.125 -0.671875 C 3.289062 -0.671875 3.421875 -0.71875 3.515625 -0.8125 C 3.609375 -0.90625 3.65625 -1.039062 3.65625 -1.21875 C 3.65625 -1.425781 3.632812 -1.628906 3.59375 -1.828125 C 3.5625 -2.023438 3.53125 -2.234375 3.5 -2.453125 C 3.40625 -2.960938 3.207031 -3.375 2.90625 -3.6875 C 2.601562 -4.007812 2.1875 -4.210938 1.65625 -4.296875 C 1.582031 -4.304688 1.519531 -4.335938 1.46875 -4.390625 C 1.425781 -4.441406 1.414062 -4.507812 1.4375 -4.59375 C 1.445312 -4.632812 1.457031 -4.679688 1.46875 -4.734375 C 1.476562 -4.785156 1.488281 -4.835938 1.5 -4.890625 C 1.507812 -4.941406 1.523438 -4.992188 1.546875 -5.046875 C 2.347656 -4.953125 2.976562 -4.691406 3.4375 -4.265625 C 3.90625 -3.847656 4.195312 -3.265625 4.3125 -2.515625 C 4.3125 -2.492188 4.320312 -2.429688 4.34375 -2.328125 C 4.363281 -2.222656 4.382812 -2.101562 4.40625 -1.96875 C 4.425781 -1.832031 4.445312 -1.695312 4.46875 -1.5625 C 4.488281 -1.425781 4.503906 -1.316406 4.515625 -1.234375 C 4.523438 -1.054688 4.566406 -0.914062 4.640625 -0.8125 C 4.710938 -0.71875 4.816406 -0.671875 4.953125 -0.671875 L 5.25 -0.671875 L 5.25 0 L 5 0 C 4.851562 0 4.710938 -0.03125 4.578125 -0.09375 C 4.441406 -0.164062 4.316406 -0.269531 4.203125 -0.40625 C 4.023438 -0.132812 3.753906 0 3.390625 0 L 0.921875 0 C 0.828125 0 0.734375 -0.00390625 0.640625 -0.015625 C 0.546875 -0.0351562 0.445312 -0.0625 0.34375 -0.09375 Z M 0.375 -0.453125 "/></g></g></g><g fill="#000000" fill-opacity="1"><g transform="translate(160.891827, 145.292391)"><g><path d="M 4.578125 -0.671875 C 4.367188 -1.410156 4.191406 -2.019531 4.046875 -2.5 C 3.910156 -2.976562 3.820312 -3.273438 3.78125 -3.390625 C 3.664062 -3.722656 3.488281 -3.984375 3.25 -4.171875 C 3.007812 -4.359375 2.707031 -4.453125 2.34375 -4.453125 C 2.144531 -4.453125 1.96875 -4.425781 1.8125 -4.375 C 1.664062 -4.320312 1.507812 -4.238281 1.34375 -4.125 C 1.300781 -4.082031 1.242188 -4.0625 1.171875 -4.0625 C 1.085938 -4.0625 1.019531 -4.09375 0.96875 -4.15625 C 0.96875 -4.175781 0.957031 -4.195312 0.9375 -4.21875 C 0.914062 -4.25 0.890625 -4.28125 0.859375 -4.3125 C 0.835938 -4.351562 0.816406 -4.382812 0.796875 -4.40625 C 0.773438 -4.4375 0.757812 -4.457031 0.75 -4.46875 C 1 -4.695312 1.257812 -4.859375 1.53125 -4.953125 C 1.800781 -5.054688 2.085938 -5.109375 2.390625 -5.109375 C 2.910156 -5.109375 3.367188 -4.976562 3.765625 -4.71875 C 4.171875 -4.457031 4.457031 -4.0625 4.625 -3.53125 C 4.65625 -3.4375 4.691406 -3.304688 4.734375 -3.140625 C 4.785156 -2.984375 4.835938 -2.8125 4.890625 -2.625 C 4.941406 -2.445312 5 -2.257812 5.0625 -2.0625 C 5.132812 -1.863281 5.195312 -1.675781 5.25 -1.5 C 5.300781 -1.320312 5.347656 -1.160156 5.390625 -1.015625 C 5.429688 -0.878906 5.46875 -0.769531 5.5 -0.6875 L 5.5 -0.1875 C 5.5 -0.132812 5.476562 -0.0859375 5.4375 -0.046875 C 5.40625 -0.015625 5.363281 0 5.3125 0 L -0.046875 0 C -0.0976562 0 -0.15625 -0.00390625 -0.21875 -0.015625 C -0.28125 -0.0351562 -0.3125 -0.0703125 -0.3125 -0.125 L -0.3125 -0.5625 C -0.3125 -0.613281 -0.28125 -0.644531 -0.21875 -0.65625 C -0.15625 -0.664062 -0.0976562 -0.671875 -0.046875 -0.671875 Z M 4.578125 -0.671875 "/></g></g></g><g fill="#000000" fill-opacity="1"><g transform="translate(166.834188, 145.292391)"><g><path d="M 1.578125 0 L 0.703125 0 L 0.703125 -7.328125 L 1.578125 -7.328125 Z M 1.578125 0 "/></g></g></g><g fill="#000000" fill-opacity="1"><g transform="translate(169.123541, 145.292391)"><g><path d="M 2.71875 -4.4375 C 2.4375 -4.4375 2.195312 -4.382812 2 -4.28125 C 1.8125 -4.175781 1.65625 -4.035156 1.53125 -3.859375 C 1.414062 -3.691406 1.332031 -3.488281 1.28125 -3.25 C 1.226562 -3.019531 1.203125 -2.773438 1.203125 -2.515625 C 1.203125 -2.265625 1.226562 -2.019531 1.28125 -1.78125 C 1.332031 -1.550781 1.414062 -1.347656 1.53125 -1.171875 C 1.65625 -1.003906 1.8125 -0.867188 2 -0.765625 C 2.195312 -0.660156 2.4375 -0.609375 2.71875 -0.609375 C 3.070312 -0.609375 3.347656 -0.640625 3.546875 -0.703125 C 3.753906 -0.773438 3.90625 -0.875 4 -1 C 4.101562 -1.125 4.164062 -1.28125 4.1875 -1.46875 C 4.207031 -1.65625 4.21875 -1.867188 4.21875 -2.109375 L 4.21875 -2.515625 C 4.21875 -2.773438 4.191406 -3.019531 4.140625 -3.25 C 4.097656 -3.488281 4.019531 -3.691406 3.90625 -3.859375 C 3.789062 -4.035156 3.632812 -4.175781 3.4375 -4.28125 C 3.25 -4.382812 3.007812 -4.4375 2.71875 -4.4375 Z M 0.3125 -2.515625 C 0.3125 -2.890625 0.359375 -3.234375 0.453125 -3.546875 C 0.554688 -3.859375 0.707031 -4.128906 0.90625 -4.359375 C 1.113281 -4.597656 1.367188 -4.78125 1.671875 -4.90625 C 1.972656 -5.039062 2.320312 -5.109375 2.71875 -5.109375 C 3.101562 -5.109375 3.441406 -5.046875 3.734375 -4.921875 C 4.035156 -4.796875 4.289062 -4.617188 4.5 -4.390625 C 4.707031 -4.160156 4.863281 -3.882812 4.96875 -3.5625 C 5.070312 -3.25 5.125 -2.898438 5.125 -2.515625 L 5.125 -0.484375 C 5.125 -0.00390625 5.054688 0.382812 4.921875 0.6875 C 4.796875 1 4.625 1.238281 4.40625 1.40625 C 4.1875 1.570312 3.929688 1.6875 3.640625 1.75 C 3.347656 1.8125 3.039062 1.84375 2.71875 1.84375 C 2.507812 1.84375 2.328125 1.832031 2.171875 1.8125 C 2.015625 1.800781 1.890625 1.773438 1.796875 1.734375 L 1.84375 1.40625 C 1.851562 1.332031 1.878906 1.273438 1.921875 1.234375 C 1.960938 1.191406 2.03125 1.171875 2.125 1.171875 C 2.425781 1.171875 2.707031 1.160156 2.96875 1.140625 C 3.226562 1.117188 3.453125 1.054688 3.640625 0.953125 C 3.835938 0.859375 3.988281 0.707031 4.09375 0.5 C 4.207031 0.289062 4.265625 0.00390625 4.265625 -0.359375 L 4.265625 -0.40625 C 4.128906 -0.25 3.929688 -0.128906 3.671875 -0.046875 C 3.410156 0.0234375 3.097656 0.0625 2.734375 0.0625 C 2.347656 0.0625 2.003906 0 1.703125 -0.125 C 1.398438 -0.25 1.144531 -0.425781 0.9375 -0.65625 C 0.738281 -0.882812 0.582031 -1.15625 0.46875 -1.46875 C 0.363281 -1.78125 0.3125 -2.128906 0.3125 -2.515625 Z M 0.3125 -2.515625 "/></g></g></g><g fill="#000000" fill-opacity="1"><g transform="translate(174.747383, 145.292391)"><g/></g></g><g fill="#000000" fill-opacity="1"><g transform="translate(177.036736, 145.292391)"><g><path d="M 3.4375 1.3125 C 2.90625 1.3125 2.457031 1.234375 2.09375 1.078125 C 1.726562 0.921875 1.429688 0.707031 1.203125 0.4375 C 0.972656 0.175781 0.804688 -0.117188 0.703125 -0.453125 C 0.609375 -0.796875 0.5625 -1.140625 0.5625 -1.484375 C 0.5625 -1.648438 0.570312 -1.832031 0.59375 -2.03125 C 0.625 -2.226562 0.664062 -2.421875 0.71875 -2.609375 C 0.78125 -2.796875 0.851562 -2.972656 0.9375 -3.140625 C 1.019531 -3.304688 1.109375 -3.445312 1.203125 -3.5625 L 1.34375 -3.5625 L 1.625 -3.28125 C 1.6875 -3.21875 1.71875 -3.148438 1.71875 -3.078125 C 1.726562 -3.003906 1.71875 -2.929688 1.6875 -2.859375 C 1.644531 -2.765625 1.609375 -2.660156 1.578125 -2.546875 C 1.546875 -2.429688 1.519531 -2.304688 1.5 -2.171875 C 1.476562 -2.046875 1.460938 -1.921875 1.453125 -1.796875 C 1.441406 -1.679688 1.4375 -1.578125 1.4375 -1.484375 C 1.4375 -1.242188 1.460938 -1 1.515625 -0.75 C 1.578125 -0.5 1.679688 -0.269531 1.828125 -0.0625 C 1.972656 0.132812 2.175781 0.300781 2.4375 0.4375 C 2.695312 0.570312 3.03125 0.640625 3.4375 0.640625 C 3.800781 0.640625 4.085938 0.601562 4.296875 0.53125 C 4.515625 0.46875 4.675781 0.378906 4.78125 0.265625 C 4.894531 0.160156 4.960938 0.0390625 4.984375 -0.09375 C 5.015625 -0.238281 5.03125 -0.382812 5.03125 -0.53125 L 5.03125 -5.046875 L 5.90625 -5.046875 L 5.90625 -0.453125 C 5.90625 -0.242188 5.867188 -0.0351562 5.796875 0.171875 C 5.722656 0.390625 5.59375 0.582031 5.40625 0.75 C 5.226562 0.914062 4.976562 1.050781 4.65625 1.15625 C 4.34375 1.257812 3.9375 1.3125 3.4375 1.3125 Z M 3.328125 -4.96875 C 3.171875 -4.96875 3.039062 -5.019531 2.9375 -5.125 C 2.832031 -5.226562 2.78125 -5.351562 2.78125 -5.5 C 2.78125 -5.644531 2.832031 -5.769531 2.9375 -5.875 C 3.039062 -5.976562 3.171875 -6.03125 3.328125 -6.03125 C 3.460938 -6.03125 3.582031 -5.976562 3.6875 -5.875 C 3.789062 -5.769531 3.84375 -5.644531 3.84375 -5.5 C 3.84375 -5.351562 3.789062 -5.226562 3.6875 -5.125 C 3.582031 -5.019531 3.460938 -4.96875 3.328125 -4.96875 Z M 3.328125 -4.96875 "/></g></g></g><g fill="#000000" fill-opacity="1"><g transform="translate(183.586265, 145.292391)"><g><path d="M 2.46875 0 L 1.734375 0 C 1.585938 0 1.453125 -0.0234375 1.328125 -0.078125 C 1.203125 -0.128906 1.09375 -0.203125 1 -0.296875 C 0.90625 -0.398438 0.832031 -0.507812 0.78125 -0.625 C 0.726562 -0.75 0.703125 -0.882812 0.703125 -1.03125 L 0.703125 -7.328125 L 1.578125 -7.328125 L 1.578125 -1.03125 C 1.578125 -0.9375 1.613281 -0.851562 1.6875 -0.78125 C 1.757812 -0.707031 1.84375 -0.671875 1.9375 -0.671875 L 2.46875 -0.671875 Z M 2.46875 0 "/></g></g></g><g fill="#000000" fill-opacity="1"><g transform="translate(185.875618, 145.292391)"><g><path d="M -0.046875 -0.671875 L 4.375 -0.671875 C 4.46875 -0.671875 4.550781 -0.707031 4.625 -0.78125 C 4.695312 -0.851562 4.734375 -0.9375 4.734375 -1.03125 L 4.734375 -2.4375 C 4.734375 -2.675781 4.707031 -2.910156 4.65625 -3.140625 C 4.601562 -3.378906 4.515625 -3.585938 4.390625 -3.765625 C 4.265625 -3.941406 4.101562 -4.082031 3.90625 -4.1875 C 3.707031 -4.300781 3.46875 -4.359375 3.1875 -4.359375 L 0.90625 -4.359375 L 0.90625 -5.03125 L 2.890625 -7.140625 C 2.941406 -7.191406 2.992188 -7.234375 3.046875 -7.265625 C 3.109375 -7.304688 3.175781 -7.328125 3.25 -7.328125 L 4.015625 -7.328125 L 2.234375 -5.421875 C 2.203125 -5.390625 2.148438 -5.335938 2.078125 -5.265625 C 2.015625 -5.203125 1.921875 -5.125 1.796875 -5.03125 L 3.21875 -5.03125 C 3.601562 -5.03125 3.941406 -4.960938 4.234375 -4.828125 C 4.523438 -4.703125 4.769531 -4.523438 4.96875 -4.296875 C 5.175781 -4.078125 5.332031 -3.804688 5.4375 -3.484375 C 5.550781 -3.160156 5.609375 -2.8125 5.609375 -2.4375 L 5.609375 -1.0625 C 5.609375 -0.945312 5.640625 -0.851562 5.703125 -0.78125 C 5.773438 -0.707031 5.867188 -0.671875 5.984375 -0.671875 L 6.453125 -0.671875 L 6.453125 0 L 6.125 0 C 6 0 5.863281 -0.03125 5.71875 -0.09375 C 5.582031 -0.15625 5.460938 -0.253906 5.359375 -0.390625 C 5.109375 -0.128906 4.84375 0 4.5625 0 L -0.046875 0 C -0.0976562 0 -0.15625 -0.00390625 -0.21875 -0.015625 C -0.28125 -0.0351562 -0.3125 -0.0703125 -0.3125 -0.125 L -0.3125 -0.5625 C -0.3125 -0.613281 -0.28125 -0.644531 -0.21875 -0.65625 C -0.15625 -0.664062 -0.0976562 -0.671875 -0.046875 -0.671875 Z M -0.046875 -0.671875 "/></g></g></g><g fill="#000000" fill-opacity="1"><g transform="translate(192.285802, 145.292391)"><g><path d="M 5.203125 -0.671875 C 5.410156 -0.671875 5.523438 -0.78125 5.546875 -1 L 5.546875 -2.5625 C 5.546875 -2.820312 5.519531 -3.0625 5.46875 -3.28125 C 5.414062 -3.507812 5.332031 -3.707031 5.21875 -3.875 C 5.113281 -4.050781 4.960938 -4.1875 4.765625 -4.28125 C 4.578125 -4.382812 4.335938 -4.4375 4.046875 -4.4375 C 3.753906 -4.4375 3.507812 -4.390625 3.3125 -4.296875 C 3.125 -4.203125 2.96875 -4.070312 2.84375 -3.90625 C 2.726562 -3.738281 2.644531 -3.539062 2.59375 -3.3125 C 2.539062 -3.082031 2.515625 -2.832031 2.515625 -2.5625 L 2.515625 -2.359375 C 2.515625 -2.117188 2.539062 -1.894531 2.59375 -1.6875 C 2.65625 -1.488281 2.75 -1.3125 2.875 -1.15625 C 3 -1.007812 3.15625 -0.890625 3.34375 -0.796875 C 3.539062 -0.710938 3.769531 -0.671875 4.03125 -0.671875 Z M 4.03125 0 C 3.726562 0 3.4375 -0.0390625 3.15625 -0.125 C 2.882812 -0.21875 2.632812 -0.375 2.40625 -0.59375 C 2.3125 -0.382812 2.175781 -0.234375 2 -0.140625 C 1.832031 -0.046875 1.664062 0 1.5 0 L -0.046875 0 C -0.0976562 0 -0.15625 -0.00390625 -0.21875 -0.015625 C -0.28125 -0.0351562 -0.3125 -0.0703125 -0.3125 -0.125 L -0.3125 -0.5625 C -0.3125 -0.613281 -0.28125 -0.644531 -0.21875 -0.65625 C -0.15625 -0.664062 -0.0976562 -0.671875 -0.046875 -0.671875 L 1.28125 -0.671875 C 1.363281 -0.671875 1.441406 -0.707031 1.515625 -0.78125 C 1.585938 -0.851562 1.625 -0.9375 1.625 -1.03125 L 1.625 -2.5625 C 1.625 -2.925781 1.675781 -3.265625 1.78125 -3.578125 C 1.882812 -3.890625 2.035156 -4.160156 2.234375 -4.390625 C 2.441406 -4.617188 2.695312 -4.796875 3 -4.921875 C 3.300781 -5.046875 3.648438 -5.109375 4.046875 -5.109375 C 4.421875 -5.109375 4.753906 -5.046875 5.046875 -4.921875 C 5.347656 -4.796875 5.597656 -4.617188 5.796875 -4.390625 C 6.003906 -4.171875 6.160156 -3.898438 6.265625 -3.578125 C 6.378906 -3.265625 6.4375 -2.921875 6.4375 -2.546875 L 6.4375 -1.03125 C 6.4375 -0.71875 6.34375 -0.46875 6.15625 -0.28125 C 5.96875 -0.09375 5.71875 0 5.40625 0 Z M 4.03125 0 "/></g></g></g><g fill="#000000" fill-opacity="1"><g transform="translate(199.293207, 145.292391)"><g/></g></g><g fill="#000000" fill-opacity="1"><g transform="translate(201.58256, 145.292391)"><g><path d="M 10.375 0 L 9.65625 0 C 9.519531 0 9.382812 -0.0234375 9.25 -0.078125 C 9.125 -0.128906 9.015625 -0.203125 8.921875 -0.296875 C 8.828125 -0.398438 8.753906 -0.507812 8.703125 -0.625 C 8.648438 -0.75 8.625 -0.882812 8.625 -1.03125 L 8.625 -4.375 L 7.84375 -4.375 C 7.75 -4.375 7.664062 -4.335938 7.59375 -4.265625 C 7.53125 -4.191406 7.5 -4.109375 7.5 -4.015625 L 7.5 -1.03125 C 7.5 -0.894531 7.46875 -0.765625 7.40625 -0.640625 C 7.351562 -0.515625 7.28125 -0.398438 7.1875 -0.296875 C 7.101562 -0.203125 6.992188 -0.128906 6.859375 -0.078125 C 6.734375 -0.0234375 6.597656 0 6.453125 0 L 2.75 0 C 2.382812 0 2.066406 -0.0664062 1.796875 -0.203125 C 1.523438 -0.347656 1.296875 -0.539062 1.109375 -0.78125 C 0.929688 -1.019531 0.796875 -1.296875 0.703125 -1.609375 C 0.609375 -1.921875 0.5625 -2.25 0.5625 -2.59375 C 0.5625 -2.945312 0.613281 -3.289062 0.71875 -3.625 C 0.832031 -3.957031 1 -4.242188 1.21875 -4.484375 L 1.328125 -4.484375 L 1.625 -4.1875 C 1.738281 -4.070312 1.757812 -3.9375 1.6875 -3.78125 C 1.519531 -3.445312 1.4375 -3.050781 1.4375 -2.59375 C 1.4375 -2.351562 1.460938 -2.117188 1.515625 -1.890625 C 1.566406 -1.660156 1.648438 -1.457031 1.765625 -1.28125 C 1.878906 -1.101562 2.03125 -0.957031 2.21875 -0.84375 C 2.414062 -0.726562 2.648438 -0.671875 2.921875 -0.671875 L 6.265625 -0.671875 C 6.359375 -0.671875 6.441406 -0.707031 6.515625 -0.78125 C 6.585938 -0.851562 6.625 -0.9375 6.625 -1.03125 L 6.625 -4.015625 C 6.625 -4.160156 6.648438 -4.296875 6.703125 -4.421875 C 6.753906 -4.546875 6.828125 -4.65625 6.921875 -4.75 C 7.015625 -4.84375 7.125 -4.914062 7.25 -4.96875 C 7.375 -5.019531 7.507812 -5.046875 7.65625 -5.046875 L 9.5 -5.046875 L 9.5 -1.03125 C 9.5 -0.9375 9.535156 -0.851562 9.609375 -0.78125 C 9.679688 -0.707031 9.765625 -0.671875 9.859375 -0.671875 L 10.375 -0.671875 Z M 5.21875 1.921875 C 5.070312 1.921875 4.945312 1.867188 4.84375 1.765625 C 4.738281 1.660156 4.6875 1.535156 4.6875 1.390625 C 4.6875 1.242188 4.738281 1.117188 4.84375 1.015625 C 4.945312 0.910156 5.070312 0.859375 5.21875 0.859375 C 5.363281 0.859375 5.488281 0.910156 5.59375 1.015625 C 5.695312 1.117188 5.75 1.242188 5.75 1.390625 C 5.75 1.535156 5.695312 1.660156 5.59375 1.765625 C 5.488281 1.867188 5.363281 1.921875 5.21875 1.921875 Z M 3.65625 1.921875 C 3.5 1.921875 3.367188 1.867188 3.265625 1.765625 C 3.160156 1.660156 3.109375 1.535156 3.109375 1.390625 C 3.109375 1.242188 3.160156 1.117188 3.265625 1.015625 C 3.367188 0.910156 3.5 0.859375 3.65625 0.859375 C 3.789062 0.859375 3.910156 0.910156 4.015625 1.015625 C 4.117188 1.117188 4.171875 1.242188 4.171875 1.390625 C 4.171875 1.535156 4.117188 1.660156 4.015625 1.765625 C 3.910156 1.867188 3.789062 1.921875 3.65625 1.921875 Z M 3.65625 1.921875 "/></g></g></g><g fill="#000000" fill-opacity="1"><g transform="translate(211.924453, 145.292391)"><g><path d="M 4.890625 -0.671875 C 4.984375 -0.671875 5.066406 -0.707031 5.140625 -0.78125 C 5.210938 -0.851562 5.25 -0.9375 5.25 -1.03125 L 5.25 -2.5625 C 5.25 -2.8125 5.222656 -3.046875 5.171875 -3.265625 C 5.117188 -3.492188 5.035156 -3.691406 4.921875 -3.859375 C 4.804688 -4.035156 4.65625 -4.175781 4.46875 -4.28125 C 4.28125 -4.382812 4.039062 -4.4375 3.75 -4.4375 C 3.46875 -4.4375 3.226562 -4.390625 3.03125 -4.296875 C 2.832031 -4.203125 2.671875 -4.066406 2.546875 -3.890625 C 2.429688 -3.722656 2.347656 -3.523438 2.296875 -3.296875 C 2.242188 -3.066406 2.21875 -2.820312 2.21875 -2.5625 C 2.21875 -2.300781 2.242188 -2.054688 2.296875 -1.828125 C 2.347656 -1.609375 2.429688 -1.410156 2.546875 -1.234375 C 2.671875 -1.054688 2.832031 -0.914062 3.03125 -0.8125 C 3.226562 -0.71875 3.46875 -0.671875 3.75 -0.671875 Z M -0.046875 0 C -0.0976562 0 -0.15625 -0.00390625 -0.21875 -0.015625 C -0.28125 -0.0351562 -0.3125 -0.0703125 -0.3125 -0.125 L -0.3125 -0.5625 C -0.3125 -0.613281 -0.28125 -0.644531 -0.21875 -0.65625 C -0.15625 -0.664062 -0.0976562 -0.671875 -0.046875 -0.671875 L 2.03125 -0.671875 C 1.8125 -0.867188 1.640625 -1.140625 1.515625 -1.484375 C 1.390625 -1.828125 1.328125 -2.1875 1.328125 -2.5625 C 1.328125 -2.925781 1.378906 -3.265625 1.484375 -3.578125 C 1.585938 -3.890625 1.738281 -4.160156 1.9375 -4.390625 C 2.144531 -4.617188 2.398438 -4.796875 2.703125 -4.921875 C 3.003906 -5.046875 3.351562 -5.109375 3.75 -5.109375 C 4.125 -5.109375 4.457031 -5.046875 4.75 -4.921875 C 5.050781 -4.804688 5.300781 -4.632812 5.5 -4.40625 C 5.707031 -4.1875 5.863281 -3.921875 5.96875 -3.609375 C 6.082031 -3.296875 6.140625 -2.945312 6.140625 -2.5625 L 6.140625 -1.03125 C 6.140625 -0.882812 6.113281 -0.75 6.0625 -0.625 C 6.007812 -0.507812 5.9375 -0.398438 5.84375 -0.296875 C 5.75 -0.203125 5.640625 -0.128906 5.515625 -0.078125 C 5.390625 -0.0234375 5.253906 0 5.109375 0 Z M 3.75 -6.1875 C 3.59375 -6.1875 3.460938 -6.234375 3.359375 -6.328125 C 3.265625 -6.429688 3.21875 -6.554688 3.21875 -6.703125 C 3.21875 -6.859375 3.265625 -6.988281 3.359375 -7.09375 C 3.460938 -7.195312 3.59375 -7.25 3.75 -7.25 C 3.894531 -7.25 4.015625 -7.195312 4.109375 -7.09375 C 4.210938 -6.988281 4.265625 -6.859375 4.265625 -6.703125 C 4.265625 -6.554688 4.210938 -6.429688 4.109375 -6.328125 C 4.015625 -6.234375 3.894531 -6.1875 3.75 -6.1875 Z M 3.75 -6.1875 "/></g></g></g><g fill="#000000" fill-opacity="1"><g transform="translate(218.633247, 145.292391)"><g/></g></g><g fill="#000000" fill-opacity="1"><g transform="translate(220.922601, 145.292391)"><g><path d="M 2.78125 -4.453125 C 2.519531 -4.453125 2.296875 -4.398438 2.109375 -4.296875 C 1.929688 -4.203125 1.785156 -4.066406 1.671875 -3.890625 C 1.566406 -3.710938 1.492188 -3.503906 1.453125 -3.265625 C 1.410156 -3.035156 1.390625 -2.796875 1.390625 -2.546875 C 1.390625 -2.347656 1.40625 -2.140625 1.4375 -1.921875 C 1.46875 -1.703125 1.53125 -1.5 1.625 -1.3125 C 1.71875 -1.125 1.847656 -0.96875 2.015625 -0.84375 C 2.179688 -0.726562 2.398438 -0.671875 2.671875 -0.671875 L 3.703125 -0.671875 C 3.796875 -0.671875 3.878906 -0.707031 3.953125 -0.78125 C 4.023438 -0.851562 4.0625 -0.9375 4.0625 -1.03125 L 4.0625 -3.796875 C 3.90625 -3.992188 3.71875 -4.148438 3.5 -4.265625 C 3.28125 -4.390625 3.039062 -4.453125 2.78125 -4.453125 Z M 4.671875 -0.390625 C 4.578125 -0.273438 4.460938 -0.179688 4.328125 -0.109375 C 4.203125 -0.0351562 4.054688 0 3.890625 0 L 2.375 0 C 2.019531 0 1.722656 -0.0703125 1.484375 -0.21875 C 1.242188 -0.375 1.046875 -0.570312 0.890625 -0.8125 C 0.742188 -1.0625 0.640625 -1.332031 0.578125 -1.625 C 0.515625 -1.925781 0.484375 -2.222656 0.484375 -2.515625 C 0.484375 -2.859375 0.523438 -3.1875 0.609375 -3.5 C 0.703125 -3.8125 0.835938 -4.085938 1.015625 -4.328125 C 1.191406 -4.578125 1.414062 -4.769531 1.6875 -4.90625 C 1.957031 -5.050781 2.28125 -5.125 2.65625 -5.125 C 3 -5.125 3.300781 -5.054688 3.5625 -4.921875 C 3.820312 -4.796875 4.03125 -4.648438 4.1875 -4.484375 C 4.195312 -4.515625 4.21875 -4.582031 4.25 -4.6875 C 4.289062 -4.789062 4.332031 -4.878906 4.375 -4.953125 C 4.394531 -4.960938 4.414062 -4.976562 4.4375 -5 C 4.457031 -5.019531 4.484375 -5.03125 4.515625 -5.03125 L 4.921875 -5.03125 L 4.921875 -1.0625 C 4.921875 -0.945312 4.957031 -0.851562 5.03125 -0.78125 C 5.101562 -0.707031 5.195312 -0.671875 5.3125 -0.671875 L 5.828125 -0.671875 L 5.828125 0 L 5.453125 0 C 5.316406 0 5.175781 -0.03125 5.03125 -0.09375 C 4.894531 -0.164062 4.773438 -0.265625 4.671875 -0.390625 Z M 2.078125 -6 C 1.921875 -6 1.789062 -6.050781 1.6875 -6.15625 C 1.59375 -6.257812 1.546875 -6.378906 1.546875 -6.515625 C 1.546875 -6.671875 1.59375 -6.800781 1.6875 -6.90625 C 1.789062 -7.007812 1.921875 -7.0625 2.078125 -7.0625 C 2.222656 -7.0625 2.34375 -7.007812 2.4375 -6.90625 C 2.539062 -6.800781 2.59375 -6.671875 2.59375 -6.515625 C 2.59375 -6.378906 2.539062 -6.257812 2.4375 -6.15625 C 2.34375 -6.050781 2.222656 -6 2.078125 -6 Z M 3.65625 -6 C 3.5 -6 3.367188 -6.050781 3.265625 -6.15625 C 3.160156 -6.257812 3.109375 -6.378906 3.109375 -6.515625 C 3.109375 -6.671875 3.160156 -6.800781 3.265625 -6.90625 C 3.367188 -7.007812 3.5 -7.0625 3.65625 -7.0625 C 3.800781 -7.0625 3.921875 -7.007812 4.015625 -6.90625 C 4.117188 -6.800781 4.171875 -6.671875 4.171875 -6.515625 C 4.171875 -6.378906 4.117188 -6.257812 4.015625 -6.15625 C 3.921875 -6.050781 3.800781 -6 3.65625 -6 Z M 3.65625 -6 "/></g></g></g><g fill="#000000" fill-opacity="1"><g transform="translate(226.685788, 145.292391)"><g><path d="M -0.046875 0 C -0.0976562 0 -0.15625 -0.00390625 -0.21875 -0.015625 C -0.28125 -0.0351562 -0.3125 -0.0703125 -0.3125 -0.125 L -0.3125 -0.5625 C -0.3125 -0.601562 -0.28125 -0.628906 -0.21875 -0.640625 C -0.15625 -0.660156 -0.0976562 -0.671875 -0.046875 -0.671875 L 1.390625 -0.671875 C 1.484375 -0.671875 1.5625 -0.707031 1.625 -0.78125 C 1.695312 -0.851562 1.734375 -0.9375 1.734375 -1.03125 L 1.734375 -5.046875 L 2.625 -5.046875 L 2.625 -1.0625 C 2.625 -0.945312 2.65625 -0.851562 2.71875 -0.78125 C 2.789062 -0.707031 2.882812 -0.671875 3 -0.671875 L 3.5 -0.671875 L 3.5 0 L 3.140625 0 C 2.992188 0 2.84375 -0.0351562 2.6875 -0.109375 C 2.539062 -0.191406 2.414062 -0.304688 2.3125 -0.453125 C 2.125 -0.148438 1.878906 0 1.578125 0 Z M 2.828125 1.9375 C 2.671875 1.9375 2.539062 1.882812 2.4375 1.78125 C 2.34375 1.675781 2.296875 1.550781 2.296875 1.40625 C 2.296875 1.25 2.34375 1.117188 2.4375 1.015625 C 2.539062 0.910156 2.671875 0.859375 2.828125 0.859375 C 2.960938 0.859375 3.082031 0.910156 3.1875 1.015625 C 3.289062 1.117188 3.34375 1.25 3.34375 1.40625 C 3.34375 1.550781 3.289062 1.675781 3.1875 1.78125 C 3.082031 1.882812 2.960938 1.9375 2.828125 1.9375 Z M 1.25 1.9375 C 1.101562 1.9375 0.976562 1.882812 0.875 1.78125 C 0.769531 1.675781 0.71875 1.550781 0.71875 1.40625 C 0.71875 1.25 0.769531 1.117188 0.875 1.015625 C 0.976562 0.910156 1.101562 0.859375 1.25 0.859375 C 1.394531 0.859375 1.515625 0.910156 1.609375 1.015625 C 1.710938 1.117188 1.765625 1.25 1.765625 1.40625 C 1.765625 1.550781 1.710938 1.675781 1.609375 1.78125 C 1.515625 1.882812 1.394531 1.9375 1.25 1.9375 Z M 1.25 1.9375 "/></g></g></g><g fill="#000000" fill-opacity="1"><g transform="translate(230.129766, 145.292391)"><g><path d="M 3.28125 -0.671875 C 3.550781 -0.671875 3.789062 -0.71875 4 -0.8125 C 4.207031 -0.90625 4.382812 -1.035156 4.53125 -1.203125 C 4.675781 -1.378906 4.78125 -1.582031 4.84375 -1.8125 C 4.914062 -2.050781 4.953125 -2.3125 4.953125 -2.59375 C 4.953125 -2.832031 4.925781 -3.066406 4.875 -3.296875 C 4.832031 -3.523438 4.742188 -3.722656 4.609375 -3.890625 C 4.484375 -4.054688 4.320312 -4.191406 4.125 -4.296875 C 3.925781 -4.398438 3.671875 -4.453125 3.359375 -4.453125 C 2.992188 -4.453125 2.664062 -4.347656 2.375 -4.140625 C 2.082031 -3.941406 1.882812 -3.660156 1.78125 -3.296875 C 2.195312 -2.929688 2.535156 -2.539062 2.796875 -2.125 C 3.054688 -1.707031 3.21875 -1.222656 3.28125 -0.671875 Z M 2.34375 -0.671875 C 2.332031 -0.929688 2.28125 -1.175781 2.1875 -1.40625 C 2.09375 -1.632812 1.972656 -1.851562 1.828125 -2.0625 C 1.691406 -2.269531 1.535156 -2.460938 1.359375 -2.640625 C 1.191406 -2.828125 1.019531 -2.992188 0.84375 -3.140625 C 0.894531 -3.472656 0.992188 -3.757812 1.140625 -4 C 1.296875 -4.25 1.484375 -4.453125 1.703125 -4.609375 C 1.929688 -4.773438 2.1875 -4.898438 2.46875 -4.984375 C 2.75 -5.066406 3.050781 -5.109375 3.375 -5.109375 C 3.769531 -5.109375 4.113281 -5.050781 4.40625 -4.9375 C 4.707031 -4.820312 4.960938 -4.65625 5.171875 -4.4375 C 5.378906 -4.226562 5.535156 -3.972656 5.640625 -3.671875 C 5.742188 -3.378906 5.796875 -3.046875 5.796875 -2.671875 C 5.796875 -2.441406 5.769531 -2.21875 5.71875 -2 C 5.675781 -1.789062 5.609375 -1.597656 5.515625 -1.421875 C 5.429688 -1.242188 5.328125 -1.085938 5.203125 -0.953125 C 5.085938 -0.828125 4.960938 -0.734375 4.828125 -0.671875 L 6.140625 -0.671875 L 6.140625 0 L -0.046875 0 C -0.0976562 0 -0.148438 -0.00390625 -0.203125 -0.015625 C -0.265625 -0.0351562 -0.296875 -0.0703125 -0.296875 -0.125 L -0.296875 -0.5625 C -0.296875 -0.613281 -0.265625 -0.644531 -0.203125 -0.65625 C -0.148438 -0.664062 -0.0976562 -0.671875 -0.046875 -0.671875 Z M 2.34375 -0.671875 "/></g></g></g><g fill="#000000" fill-opacity="1"><g transform="translate(236.23138, 145.292391)"><g><path d="M -0.046875 0 C -0.0976562 0 -0.148438 -0.00390625 -0.203125 -0.015625 C -0.265625 -0.0351562 -0.296875 -0.0703125 -0.296875 -0.125 L -0.296875 -0.5625 C -0.296875 -0.613281 -0.265625 -0.644531 -0.203125 -0.65625 C -0.148438 -0.664062 -0.0976562 -0.671875 -0.046875 -0.671875 L 1.390625 -0.671875 C 1.484375 -0.671875 1.5625 -0.707031 1.625 -0.78125 C 1.695312 -0.851562 1.734375 -0.9375 1.734375 -1.03125 L 1.734375 -5.046875 L 2.609375 -5.046875 L 2.609375 -1.03125 C 2.609375 -0.882812 2.582031 -0.75 2.53125 -0.625 C 2.476562 -0.507812 2.40625 -0.398438 2.3125 -0.296875 C 2.21875 -0.203125 2.109375 -0.128906 1.984375 -0.078125 C 1.859375 -0.0234375 1.722656 0 1.578125 0 Z M 2.53125 1.9375 C 2.375 1.9375 2.242188 1.882812 2.140625 1.78125 C 2.035156 1.675781 1.984375 1.550781 1.984375 1.40625 C 1.984375 1.25 2.035156 1.117188 2.140625 1.015625 C 2.242188 0.910156 2.375 0.859375 2.53125 0.859375 C 2.664062 0.859375 2.785156 0.910156 2.890625 1.015625 C 2.992188 1.117188 3.046875 1.25 3.046875 1.40625 C 3.046875 1.550781 2.992188 1.675781 2.890625 1.78125 C 2.785156 1.882812 2.664062 1.9375 2.53125 1.9375 Z M 0.953125 1.9375 C 0.804688 1.9375 0.679688 1.882812 0.578125 1.78125 C 0.472656 1.675781 0.421875 1.550781 0.421875 1.40625 C 0.421875 1.25 0.472656 1.117188 0.578125 1.015625 C 0.679688 0.910156 0.804688 0.859375 0.953125 0.859375 C 1.097656 0.859375 1.21875 0.910156 1.3125 1.015625 C 1.414062 1.117188 1.46875 1.25 1.46875 1.40625 C 1.46875 1.550781 1.414062 1.675781 1.3125 1.78125 C 1.21875 1.882812 1.097656 1.9375 0.953125 1.9375 Z M 0.953125 1.9375 "/></g></g></g><g fill="#000000" fill-opacity="1"><g transform="translate(239.55592, 145.292391)"><g><path d="M 2.46875 0 L 1.734375 0 C 1.585938 0 1.453125 -0.0234375 1.328125 -0.078125 C 1.203125 -0.128906 1.09375 -0.203125 1 -0.296875 C 0.90625 -0.398438 0.832031 -0.507812 0.78125 -0.625 C 0.726562 -0.75 0.703125 -0.882812 0.703125 -1.03125 L 0.703125 -7.328125 L 1.578125 -7.328125 L 1.578125 -1.03125 C 1.578125 -0.9375 1.613281 -0.851562 1.6875 -0.78125 C 1.757812 -0.707031 1.84375 -0.671875 1.9375 -0.671875 L 2.46875 -0.671875 Z M 2.46875 0 "/></g></g></g><g fill="#000000" fill-opacity="1"><g transform="translate(241.845274, 145.292391)"><g><path d="M -0.046875 0 C -0.0976562 0 -0.15625 -0.00390625 -0.21875 -0.015625 C -0.28125 -0.0351562 -0.3125 -0.0703125 -0.3125 -0.125 L -0.3125 -0.5625 C -0.3125 -0.601562 -0.28125 -0.628906 -0.21875 -0.640625 C -0.15625 -0.660156 -0.0976562 -0.671875 -0.046875 -0.671875 L 1.390625 -0.671875 C 1.484375 -0.671875 1.5625 -0.707031 1.625 -0.78125 C 1.695312 -0.851562 1.734375 -0.9375 1.734375 -1.03125 L 1.734375 -5.03125 L 2.625 -5.03125 L 2.625 -1.0625 C 2.625 -0.945312 2.65625 -0.851562 2.71875 -0.78125 C 2.789062 -0.707031 2.882812 -0.671875 3 -0.671875 L 3.515625 -0.671875 L 3.515625 0 L 3.140625 0 C 2.992188 0 2.847656 -0.0351562 2.703125 -0.109375 C 2.554688 -0.191406 2.429688 -0.304688 2.328125 -0.453125 C 2.234375 -0.304688 2.117188 -0.191406 1.984375 -0.109375 C 1.859375 -0.0351562 1.722656 0 1.578125 0 Z M 2.1875 -6.1875 C 2.03125 -6.1875 1.898438 -6.238281 1.796875 -6.34375 C 1.691406 -6.445312 1.640625 -6.570312 1.640625 -6.71875 C 1.640625 -6.875 1.691406 -7 1.796875 -7.09375 C 1.898438 -7.195312 2.03125 -7.25 2.1875 -7.25 C 2.320312 -7.25 2.441406 -7.195312 2.546875 -7.09375 C 2.648438 -7 2.703125 -6.875 2.703125 -6.71875 C 2.703125 -6.570312 2.648438 -6.445312 2.546875 -6.34375 C 2.441406 -6.238281 2.320312 -6.1875 2.1875 -6.1875 Z M 2.1875 -6.1875 "/></g></g></g><g fill="#000000" fill-opacity="1"><g transform="translate(245.30916, 145.292391)"><g><path d="M 6.484375 -0.671875 C 6.578125 -0.671875 6.660156 -0.707031 6.734375 -0.78125 C 6.804688 -0.851562 6.84375 -0.9375 6.84375 -1.03125 L 6.84375 -2.53125 C 6.84375 -2.769531 6.8125 -3.003906 6.75 -3.234375 C 6.695312 -3.460938 6.597656 -3.664062 6.453125 -3.84375 C 6.316406 -4.03125 6.132812 -4.175781 5.90625 -4.28125 C 5.675781 -4.394531 5.390625 -4.453125 5.046875 -4.453125 C 4.773438 -4.453125 4.515625 -4.414062 4.265625 -4.34375 C 4.023438 -4.28125 3.796875 -4.195312 3.578125 -4.09375 C 3.367188 -4 3.179688 -3.890625 3.015625 -3.765625 C 2.847656 -3.648438 2.71875 -3.535156 2.625 -3.421875 L 2.625 -1.046875 C 2.625 -0.941406 2.65625 -0.851562 2.71875 -0.78125 C 2.789062 -0.707031 2.878906 -0.671875 2.984375 -0.671875 Z M 8.5625 -0.671875 L 8.5625 0 L 8.3125 0 C 8.019531 0 7.75 -0.140625 7.5 -0.421875 C 7.25 -0.140625 6.972656 0 6.671875 0 L 2.890625 0 C 2.734375 0 2.570312 -0.0703125 2.40625 -0.21875 C 2.238281 -0.0703125 2.070312 0 1.90625 0 L -0.046875 0 C -0.0976562 0 -0.148438 -0.00390625 -0.203125 -0.015625 C -0.265625 -0.0351562 -0.296875 -0.0703125 -0.296875 -0.125 L -0.296875 -0.5625 C -0.296875 -0.613281 -0.265625 -0.644531 -0.203125 -0.65625 C -0.148438 -0.664062 -0.0976562 -0.671875 -0.046875 -0.671875 L 1.390625 -0.671875 C 1.484375 -0.671875 1.5625 -0.707031 1.625 -0.78125 C 1.695312 -0.851562 1.734375 -0.9375 1.734375 -1.03125 L 1.734375 -5.03125 L 2.625 -5.03125 L 2.625 -4.140625 C 2.789062 -4.285156 2.976562 -4.414062 3.1875 -4.53125 C 3.394531 -4.65625 3.613281 -4.757812 3.84375 -4.84375 C 4.070312 -4.925781 4.300781 -4.988281 4.53125 -5.03125 C 4.757812 -5.082031 4.984375 -5.109375 5.203125 -5.109375 C 5.617188 -5.109375 5.984375 -5.046875 6.296875 -4.921875 C 6.609375 -4.796875 6.867188 -4.617188 7.078125 -4.390625 C 7.285156 -4.160156 7.441406 -3.882812 7.546875 -3.5625 C 7.648438 -3.25 7.703125 -2.90625 7.703125 -2.53125 L 7.703125 -1.046875 C 7.703125 -0.941406 7.738281 -0.851562 7.8125 -0.78125 C 7.882812 -0.707031 7.972656 -0.671875 8.078125 -0.671875 Z M 8.5625 -0.671875 "/></g></g></g><g fill="#000000" fill-opacity="1"><g transform="translate(253.819575, 145.292391)"><g><path d="M 1.078125 -0.671875 C 1.171875 -0.671875 1.253906 -0.707031 1.328125 -0.78125 C 1.398438 -0.851562 1.4375 -0.9375 1.4375 -1.03125 L 1.4375 -7.328125 L 2.3125 -7.328125 L 2.3125 -1.03125 C 2.3125 -0.882812 2.285156 -0.75 2.234375 -0.625 C 2.179688 -0.507812 2.109375 -0.398438 2.015625 -0.296875 C 1.921875 -0.203125 1.8125 -0.128906 1.6875 -0.078125 C 1.5625 -0.0234375 1.425781 0 1.28125 0 L -0.046875 0 C -0.0976562 0 -0.148438 -0.00390625 -0.203125 -0.015625 C -0.265625 -0.0351562 -0.296875 -0.0703125 -0.296875 -0.125 L -0.296875 -0.5625 C -0.296875 -0.613281 -0.265625 -0.644531 -0.203125 -0.65625 C -0.148438 -0.664062 -0.0976562 -0.671875 -0.046875 -0.671875 Z M 1.078125 -0.671875 "/></g></g></g><g fill="#000000" fill-opacity="1"><g transform="translate(256.775821, 145.292391)"><g><path d="M 1.578125 0 L 0.703125 0 L 0.703125 -7.328125 L 1.578125 -7.328125 Z M 1.578125 0 "/></g></g></g><g fill="#000000" fill-opacity="1"><g transform="translate(259.065174, 145.292391)"><g/></g></g><g fill="#000000" fill-opacity="1"><g transform="translate(261.354528, 145.292391)"><g><path d="M 5.6875 -0.234375 C 5.644531 0.265625 5.425781 0.644531 5.03125 0.90625 C 4.632812 1.175781 4.054688 1.3125 3.296875 1.3125 C 2.753906 1.3125 2.304688 1.234375 1.953125 1.078125 C 1.609375 0.921875 1.332031 0.71875 1.125 0.46875 C 0.914062 0.21875 0.769531 -0.0625 0.6875 -0.375 C 0.601562 -0.6875 0.5625 -0.992188 0.5625 -1.296875 C 0.5625 -1.484375 0.578125 -1.6875 0.609375 -1.90625 C 0.640625 -2.125 0.6875 -2.332031 0.75 -2.53125 C 0.8125 -2.738281 0.882812 -2.929688 0.96875 -3.109375 C 1.050781 -3.296875 1.144531 -3.453125 1.25 -3.578125 L 1.375 -3.578125 L 1.671875 -3.265625 C 1.785156 -3.140625 1.804688 -3.003906 1.734375 -2.859375 C 1.628906 -2.628906 1.550781 -2.367188 1.5 -2.078125 C 1.457031 -1.796875 1.4375 -1.53125 1.4375 -1.28125 C 1.4375 -0.675781 1.59375 -0.207031 1.90625 0.125 C 2.21875 0.46875 2.679688 0.640625 3.296875 0.640625 C 3.648438 0.640625 3.929688 0.613281 4.140625 0.5625 C 4.347656 0.507812 4.5 0.4375 4.59375 0.34375 C 4.695312 0.25 4.765625 0.140625 4.796875 0.015625 C 4.828125 -0.109375 4.84375 -0.242188 4.84375 -0.390625 L 4.84375 -7.328125 L 5.703125 -7.328125 L 5.703125 -1.0625 C 5.703125 -0.945312 5.738281 -0.851562 5.8125 -0.78125 C 5.882812 -0.707031 5.976562 -0.671875 6.09375 -0.671875 L 6.59375 -0.671875 L 6.59375 0 L 6.234375 0 C 6.035156 0 5.851562 -0.078125 5.6875 -0.234375 Z M 5.6875 -0.234375 "/></g></g></g><g fill="#000000" fill-opacity="1"><g transform="translate(267.904057, 145.292391)"><g><path d="M -0.296875 -0.5625 C -0.296875 -0.613281 -0.265625 -0.644531 -0.203125 -0.65625 C -0.148438 -0.664062 -0.0976562 -0.671875 -0.046875 -0.671875 L 4.375 -0.671875 C 4.46875 -0.671875 4.550781 -0.707031 4.625 -0.78125 C 4.695312 -0.851562 4.734375 -0.9375 4.734375 -1.03125 L 4.734375 -2.4375 C 4.734375 -2.675781 4.707031 -2.910156 4.65625 -3.140625 C 4.601562 -3.378906 4.515625 -3.585938 4.390625 -3.765625 C 4.265625 -3.941406 4.101562 -4.082031 3.90625 -4.1875 C 3.707031 -4.300781 3.46875 -4.359375 3.1875 -4.359375 L 0.90625 -4.359375 L 0.90625 -5.03125 L 2.890625 -7.140625 C 2.941406 -7.191406 2.992188 -7.234375 3.046875 -7.265625 C 3.109375 -7.304688 3.175781 -7.328125 3.25 -7.328125 L 4.015625 -7.328125 L 2.234375 -5.421875 C 2.203125 -5.390625 2.148438 -5.335938 2.078125 -5.265625 C 2.015625 -5.203125 1.921875 -5.125 1.796875 -5.03125 L 3.21875 -5.03125 C 3.601562 -5.03125 3.941406 -4.960938 4.234375 -4.828125 C 4.523438 -4.703125 4.769531 -4.523438 4.96875 -4.296875 C 5.175781 -4.078125 5.332031 -3.804688 5.4375 -3.484375 C 5.550781 -3.160156 5.609375 -2.8125 5.609375 -2.4375 L 5.609375 -1.1875 C 5.609375 -0.851562 5.523438 -0.570312 5.359375 -0.34375 C 5.191406 -0.113281 4.925781 0 4.5625 0 L -0.046875 0 C -0.0976562 0 -0.148438 -0.00390625 -0.203125 -0.015625 C -0.265625 -0.0351562 -0.296875 -0.0703125 -0.296875 -0.125 Z M -0.296875 -0.5625 "/></g></g></g></svg>