<?xml version="1.0" encoding="UTF-8" standalone="no"?>
<!DOCTYPE svg PUBLIC "-//W3C//DTD SVG 1.1//EN"
 "http://www.w3.org/Graphics/SVG/1.1/DTD/svg11.dtd">
<!-- Generated by graphviz version 2.47.0 (20210316.0004)
 -->
<!-- Title: dependencies Pages: 1 -->
<svg width="504pt" height="211pt"
 viewBox="0.00 0.00 504.00 211.00" xmlns="http://www.w3.org/2000/svg" xmlns:xlink="http://www.w3.org/1999/xlink">
<g id="graph0" class="graph" transform="scale(1 1) rotate(0) translate(4 207)">
<title>dependencies</title>
<polygon fill="white" stroke="transparent" points="-4,4 -4,-207 500,-207 500,4 -4,4"/>
<text text-anchor="start" x="227.01" y="-42.4" font-family="Times-12" font-weight="bold" font-size="14.00">Legend</text>
<polygon fill="#ffffb3" stroke="transparent" points="14,-10 14,-30 34,-30 34,-10 14,-10"/>
<text text-anchor="start" x="37.63" y="-15.4" font-family="Times-12" font-size="14.00"> &#160;Declarations</text>
<polygon fill="#8dd3c7" stroke="transparent" points="127,-10 127,-30 147,-30 147,-10 127,-10"/>
<text text-anchor="start" x="150.73" y="-15.4" font-family="Times-12" font-size="14.00"> &#160;Module</text>
<polygon fill="#80b1d3" stroke="transparent" points="213,-10 213,-30 233,-30 233,-10 213,-10"/>
<text text-anchor="start" x="236.78" y="-15.4" font-family="Times-12" font-size="14.00"> &#160;Bootstrap</text>
<polygon fill="#fdb462" stroke="transparent" points="310,-10 310,-30 330,-30 330,-10 310,-10"/>
<text text-anchor="start" x="333.67" y="-15.4" font-family="Times-12" font-size="14.00"> &#160;Providers</text>
<polygon fill="#fb8072" stroke="transparent" points="406,-10 406,-30 426,-30 426,-10 406,-10"/>
<text text-anchor="start" x="429.73" y="-15.4" font-family="Times-12" font-size="14.00"> &#160;Exports</text>
<g id="clust1" class="cluster">
<title>cluster_HomeModule</title>
<polygon fill="none" stroke="black" stroke-dasharray="1,5" points="22,-70 22,-195 474,-195 474,-70 22,-70"/>
</g>
<g id="clust5" class="cluster">
<title>cluster_HomeModule_imports</title>
<polygon fill="none" stroke="black" points="352,-78 352,-130 466,-130 466,-78 352,-78"/>
</g>
<g id="clust2" class="cluster">
<title>cluster_HomeModule_declarations</title>
<polygon fill="none" stroke="black" points="30,-78 30,-130 344,-130 344,-78 30,-78"/>
</g>
<!-- HomeComponent -->
<g id="node1" class="node">
<title>HomeComponent</title>
<polygon fill="#ffffb3" stroke="black" points="335.55,-122 220.45,-122 220.45,-86 335.55,-86 335.55,-122"/>
<text text-anchor="middle" x="278" y="-99.8" font-family="Times,serif" font-size="14.00">HomeComponent</text>
</g>
<!-- HomeModule -->
<g id="node3" class="node">
<title>HomeModule</title>
<polygon fill="#8dd3c7" stroke="black" points="324.76,-187 321.76,-191 300.76,-191 297.76,-187 231.24,-187 231.24,-151 324.76,-151 324.76,-187"/>
<text text-anchor="middle" x="278" y="-164.8" font-family="Times,serif" font-size="14.00">HomeModule</text>
</g>
<!-- HomeComponent&#45;&gt;HomeModule -->
<g id="edge1" class="edge">
<title>HomeComponent&#45;&gt;HomeModule</title>
<path fill="none" stroke="black" d="M278,-122.11C278,-122.11 278,-140.99 278,-140.99"/>
<polygon fill="black" stroke="black" points="274.5,-140.99 278,-150.99 281.5,-140.99 274.5,-140.99"/>
</g>
<!-- WorkerDetailsComponent -->
<g id="node2" class="node">
<title>WorkerDetailsComponent</title>
<polygon fill="#ffffb3" stroke="black" points="201.74,-122 38.26,-122 38.26,-86 201.74,-86 201.74,-122"/>
<text text-anchor="middle" x="120" y="-99.8" font-family="Times,serif" font-size="14.00">WorkerDetailsComponent</text>
</g>
<!-- WorkerDetailsComponent&#45;&gt;HomeModule -->
<g id="edge2" class="edge">
<title>WorkerDetailsComponent&#45;&gt;HomeModule</title>
<path fill="none" stroke="black" d="M120,-122.11C120,-141.34 120,-169 120,-169 120,-169 221.02,-169 221.02,-169"/>
<polygon fill="black" stroke="black" points="221.02,-172.5 231.02,-169 221.02,-165.5 221.02,-172.5"/>
</g>
<!-- SharedModule -->
<g id="node4" class="node">
<title>SharedModule</title>
<polygon fill="#8dd3c7" stroke="black" points="458.42,-122 455.42,-126 434.42,-126 431.42,-122 359.58,-122 359.58,-86 458.42,-86 458.42,-122"/>
<text text-anchor="middle" x="409" y="-99.8" font-family="Times,serif" font-size="14.00">SharedModule</text>
</g>
<!-- SharedModule&#45;&gt;HomeModule -->
<g id="edge3" class="edge">
<title>SharedModule&#45;&gt;HomeModule</title>
<path fill="none" stroke="black" d="M409,-122.11C409,-141.34 409,-169 409,-169 409,-169 334.92,-169 334.92,-169"/>
<polygon fill="black" stroke="black" points="334.92,-165.5 324.92,-169 334.92,-172.5 334.92,-165.5"/>
</g>
</g>
</svg>
