<?xml version="1.0" encoding="UTF-8" standalone="no"?>
<!DOCTYPE svg PUBLIC "-//W3C//DTD SVG 1.1//EN"
 "http://www.w3.org/Graphics/SVG/1.1/DTD/svg11.dtd">
<!-- Generated by graphviz version 2.47.0 (20210316.0004)
 -->
<!-- Title: dependencies Pages: 1 -->
<svg width="881pt" height="284pt"
 viewBox="0.00 0.00 881.00 284.00" xmlns="http://www.w3.org/2000/svg" xmlns:xlink="http://www.w3.org/1999/xlink">
<g id="graph0" class="graph" transform="scale(1 1) rotate(0) translate(4 280)">
<title>dependencies</title>
<polygon fill="white" stroke="transparent" points="-4,4 -4,-280 877,-280 877,4 -4,4"/>
<text text-anchor="start" x="415.51" y="-42.4" font-family="Times-12" font-weight="bold" font-size="14.00">Legend</text>
<polygon fill="#ffffb3" stroke="transparent" points="202.5,-10 202.5,-30 222.5,-30 222.5,-10 202.5,-10"/>
<text text-anchor="start" x="226.13" y="-15.4" font-family="Times-12" font-size="14.00"> &#160;Declarations</text>
<polygon fill="#8dd3c7" stroke="transparent" points="315.5,-10 315.5,-30 335.5,-30 335.5,-10 315.5,-10"/>
<text text-anchor="start" x="339.23" y="-15.4" font-family="Times-12" font-size="14.00"> &#160;Module</text>
<polygon fill="#80b1d3" stroke="transparent" points="401.5,-10 401.5,-30 421.5,-30 421.5,-10 401.5,-10"/>
<text text-anchor="start" x="425.28" y="-15.4" font-family="Times-12" font-size="14.00"> &#160;Bootstrap</text>
<polygon fill="#fdb462" stroke="transparent" points="498.5,-10 498.5,-30 518.5,-30 518.5,-10 498.5,-10"/>
<text text-anchor="start" x="522.17" y="-15.4" font-family="Times-12" font-size="14.00"> &#160;Providers</text>
<polygon fill="#fb8072" stroke="transparent" points="594.5,-10 594.5,-30 614.5,-30 614.5,-10 594.5,-10"/>
<text text-anchor="start" x="618.23" y="-15.4" font-family="Times-12" font-size="14.00"> &#160;Exports</text>
<g id="clust1" class="cluster">
<title>cluster_AppModule</title>
<polygon fill="none" stroke="black" stroke-dasharray="1,5" points="8,-70 8,-268 865,-268 865,-70 8,-70"/>
</g>
<g id="clust2" class="cluster">
<title>cluster_AppModule_declarations</title>
<polygon fill="none" stroke="black" points="735,-78 735,-130 857,-130 857,-78 735,-78"/>
</g>
<g id="clust4" class="cluster">
<title>cluster_AppModule_imports</title>
<polygon fill="none" stroke="black" points="234,-78 234,-130 727,-130 727,-78 234,-78"/>
</g>
<g id="clust7" class="cluster">
<title>cluster_AppModule_providers</title>
<polygon fill="none" stroke="black" points="16,-78 16,-130 226,-130 226,-78 16,-78"/>
</g>
<g id="clust6" class="cluster">
<title>cluster_AppModule_bootstrap</title>
<polygon fill="none" stroke="black" points="409,-208 409,-260 533,-260 533,-208 409,-208"/>
</g>
<!-- AppComponent -->
<g id="node1" class="node">
<title>AppComponent</title>
<polygon fill="#ffffb3" stroke="black" points="848.94,-122 743.06,-122 743.06,-86 848.94,-86 848.94,-122"/>
<text text-anchor="middle" x="796" y="-99.8" font-family="Times,serif" font-size="14.00">AppComponent</text>
</g>
<!-- AppModule -->
<g id="node2" class="node">
<title>AppModule</title>
<polygon fill="#8dd3c7" stroke="black" points="512.66,-187 509.66,-191 488.66,-191 485.66,-187 429.34,-187 429.34,-151 512.66,-151 512.66,-187"/>
<text text-anchor="middle" x="471" y="-164.8" font-family="Times,serif" font-size="14.00">AppModule</text>
</g>
<!-- AppComponent&#45;&gt;AppModule -->
<g id="edge1" class="edge">
<title>AppComponent&#45;&gt;AppModule</title>
<path fill="none" stroke="black" d="M796,-122.28C796,-143.32 796,-175 796,-175 796,-175 522.82,-175 522.82,-175"/>
<polygon fill="black" stroke="black" points="522.82,-171.5 512.82,-175 522.82,-178.5 522.82,-171.5"/>
</g>
<!-- AppComponent  -->
<g id="node7" class="node">
<title>AppComponent </title>
<polygon fill="#80b1d3" stroke="black" points="525.44,-252 416.56,-252 416.56,-216 525.44,-216 525.44,-252"/>
<text text-anchor="middle" x="471" y="-229.8" font-family="Times,serif" font-size="14.00">AppComponent </text>
</g>
<!-- AppModule&#45;&gt;AppComponent  -->
<g id="edge6" class="edge">
<title>AppModule&#45;&gt;AppComponent </title>
<path fill="none" stroke="black" stroke-dasharray="1,5" d="M471,-187.11C471,-187.11 471,-205.99 471,-205.99"/>
<polygon fill="black" stroke="black" points="467.5,-205.99 471,-215.99 474.5,-205.99 467.5,-205.99"/>
</g>
<!-- AppRoutingModule -->
<g id="node3" class="node">
<title>AppRoutingModule</title>
<polygon fill="#8dd3c7" stroke="black" points="719.27,-122 716.27,-126 695.27,-126 692.27,-122 590.73,-122 590.73,-86 719.27,-86 719.27,-122"/>
<text text-anchor="middle" x="655" y="-99.8" font-family="Times,serif" font-size="14.00">AppRoutingModule</text>
</g>
<!-- AppRoutingModule&#45;&gt;AppModule -->
<g id="edge2" class="edge">
<title>AppRoutingModule&#45;&gt;AppModule</title>
<path fill="none" stroke="black" d="M655,-122.02C655,-139.37 655,-163 655,-163 655,-163 522.75,-163 522.75,-163"/>
<polygon fill="black" stroke="black" points="522.75,-159.5 512.75,-163 522.75,-166.5 522.75,-159.5"/>
</g>
<!-- CoreModule -->
<g id="node4" class="node">
<title>CoreModule</title>
<polygon fill="#8dd3c7" stroke="black" points="572.26,-122 569.26,-126 548.26,-126 545.26,-122 485.74,-122 485.74,-86 572.26,-86 572.26,-122"/>
<text text-anchor="middle" x="529" y="-99.8" font-family="Times,serif" font-size="14.00">CoreModule</text>
</g>
<!-- CoreModule&#45;&gt;AppModule -->
<g id="edge3" class="edge">
<title>CoreModule&#45;&gt;AppModule</title>
<path fill="none" stroke="black" d="M499.22,-122.11C499.22,-122.11 499.22,-140.99 499.22,-140.99"/>
<polygon fill="black" stroke="black" points="495.72,-140.99 499.22,-150.99 502.72,-140.99 495.72,-140.99"/>
</g>
<!-- DiscoverModule -->
<g id="node5" class="node">
<title>DiscoverModule</title>
<polygon fill="#8dd3c7" stroke="black" points="468.08,-122 465.08,-126 444.08,-126 441.08,-122 357.92,-122 357.92,-86 468.08,-86 468.08,-122"/>
<text text-anchor="middle" x="413" y="-99.8" font-family="Times,serif" font-size="14.00">DiscoverModule</text>
</g>
<!-- DiscoverModule&#45;&gt;AppModule -->
<g id="edge4" class="edge">
<title>DiscoverModule&#45;&gt;AppModule</title>
<path fill="none" stroke="black" d="M448.61,-122.11C448.61,-122.11 448.61,-140.99 448.61,-140.99"/>
<polygon fill="black" stroke="black" points="445.11,-140.99 448.61,-150.99 452.11,-140.99 445.11,-140.99"/>
</g>
<!-- SharedModule -->
<g id="node6" class="node">
<title>SharedModule</title>
<polygon fill="#8dd3c7" stroke="black" points="340.42,-122 337.42,-126 316.42,-126 313.42,-122 241.58,-122 241.58,-86 340.42,-86 340.42,-122"/>
<text text-anchor="middle" x="291" y="-99.8" font-family="Times,serif" font-size="14.00">SharedModule</text>
</g>
<!-- SharedModule&#45;&gt;AppModule -->
<g id="edge5" class="edge">
<title>SharedModule&#45;&gt;AppModule</title>
<path fill="none" stroke="black" d="M291,-122.02C291,-139.37 291,-163 291,-163 291,-163 419.25,-163 419.25,-163"/>
<polygon fill="black" stroke="black" points="419.25,-166.5 429.25,-163 419.25,-159.5 419.25,-166.5"/>
</g>
<!-- HttpConfigInterceptor -->
<g id="node8" class="node">
<title>HttpConfigInterceptor</title>
<ellipse fill="#fdb462" stroke="black" cx="121" cy="-104" rx="97.27" ry="18"/>
<text text-anchor="middle" x="121" y="-99.8" font-family="Times,serif" font-size="14.00">HttpConfigInterceptor</text>
</g>
<!-- HttpConfigInterceptor&#45;&gt;AppModule -->
<g id="edge7" class="edge">
<title>HttpConfigInterceptor&#45;&gt;AppModule</title>
<path fill="none" stroke="black" d="M121,-122.28C121,-143.32 121,-175 121,-175 121,-175 419.13,-175 419.13,-175"/>
<polygon fill="black" stroke="black" points="419.13,-178.5 429.13,-175 419.13,-171.5 419.13,-178.5"/>
</g>
</g>
</svg>
