<?xml version="1.0" encoding="UTF-8" standalone="no"?>
<!DOCTYPE svg PUBLIC "-//W3C//DTD SVG 1.1//EN"
 "http://www.w3.org/Graphics/SVG/1.1/DTD/svg11.dtd">
<!-- Generated by graphviz version 2.47.0 (20210316.0004)
 -->
<!-- Title: dependencies Pages: 1 -->
<svg width="504pt" height="211pt"
 viewBox="0.00 0.00 504.00 211.00" xmlns="http://www.w3.org/2000/svg" xmlns:xlink="http://www.w3.org/1999/xlink">
<g id="graph0" class="graph" transform="scale(1 1) rotate(0) translate(4 207)">
<title>dependencies</title>
<polygon fill="white" stroke="transparent" points="-4,4 -4,-207 500,-207 500,4 -4,4"/>
<text text-anchor="start" x="227.01" y="-42.4" font-family="Times-12" font-weight="bold" font-size="14.00">Legend</text>
<polygon fill="#ffffb3" stroke="transparent" points="14,-10 14,-30 34,-30 34,-10 14,-10"/>
<text text-anchor="start" x="37.63" y="-15.4" font-family="Times-12" font-size="14.00"> &#160;Declarations</text>
<polygon fill="#8dd3c7" stroke="transparent" points="127,-10 127,-30 147,-30 147,-10 127,-10"/>
<text text-anchor="start" x="150.73" y="-15.4" font-family="Times-12" font-size="14.00"> &#160;Module</text>
<polygon fill="#80b1d3" stroke="transparent" points="213,-10 213,-30 233,-30 233,-10 213,-10"/>
<text text-anchor="start" x="236.78" y="-15.4" font-family="Times-12" font-size="14.00"> &#160;Bootstrap</text>
<polygon fill="#fdb462" stroke="transparent" points="310,-10 310,-30 330,-30 330,-10 310,-10"/>
<text text-anchor="start" x="333.67" y="-15.4" font-family="Times-12" font-size="14.00"> &#160;Providers</text>
<polygon fill="#fb8072" stroke="transparent" points="406,-10 406,-30 426,-30 426,-10 406,-10"/>
<text text-anchor="start" x="429.73" y="-15.4" font-family="Times-12" font-size="14.00"> &#160;Exports</text>
<g id="clust1" class="cluster">
<title>cluster_MessagesModule</title>
<polygon fill="none" stroke="black" stroke-dasharray="1,5" points="12,-70 12,-195 484,-195 484,-70 12,-70"/>
</g>
<g id="clust5" class="cluster">
<title>cluster_MessagesModule_imports</title>
<polygon fill="none" stroke="black" points="362,-78 362,-130 476,-130 476,-78 362,-78"/>
</g>
<g id="clust2" class="cluster">
<title>cluster_MessagesModule_declarations</title>
<polygon fill="none" stroke="black" points="20,-78 20,-130 354,-130 354,-78 20,-78"/>
</g>
<!-- MessageDetailComponent -->
<g id="node1" class="node">
<title>MessageDetailComponent</title>
<polygon fill="#ffffb3" stroke="black" points="346.02,-122 181.98,-122 181.98,-86 346.02,-86 346.02,-122"/>
<text text-anchor="middle" x="264" y="-99.8" font-family="Times,serif" font-size="14.00">MessageDetailComponent</text>
</g>
<!-- MessagesModule -->
<g id="node3" class="node">
<title>MessagesModule</title>
<polygon fill="#8dd3c7" stroke="black" points="320.97,-187 317.97,-191 296.97,-191 293.97,-187 207.03,-187 207.03,-151 320.97,-151 320.97,-187"/>
<text text-anchor="middle" x="264" y="-164.8" font-family="Times,serif" font-size="14.00">MessagesModule</text>
</g>
<!-- MessageDetailComponent&#45;&gt;MessagesModule -->
<g id="edge1" class="edge">
<title>MessageDetailComponent&#45;&gt;MessagesModule</title>
<path fill="none" stroke="black" d="M264,-122.11C264,-122.11 264,-140.99 264,-140.99"/>
<polygon fill="black" stroke="black" points="260.5,-140.99 264,-150.99 267.5,-140.99 260.5,-140.99"/>
</g>
<!-- MessagesComponent -->
<g id="node2" class="node">
<title>MessagesComponent</title>
<polygon fill="#ffffb3" stroke="black" points="163.75,-122 28.25,-122 28.25,-86 163.75,-86 163.75,-122"/>
<text text-anchor="middle" x="96" y="-99.8" font-family="Times,serif" font-size="14.00">MessagesComponent</text>
</g>
<!-- MessagesComponent&#45;&gt;MessagesModule -->
<g id="edge2" class="edge">
<title>MessagesComponent&#45;&gt;MessagesModule</title>
<path fill="none" stroke="black" d="M96,-122.11C96,-141.34 96,-169 96,-169 96,-169 196.65,-169 196.65,-169"/>
<polygon fill="black" stroke="black" points="196.65,-172.5 206.65,-169 196.65,-165.5 196.65,-172.5"/>
</g>
<!-- SharedModule -->
<g id="node4" class="node">
<title>SharedModule</title>
<polygon fill="#8dd3c7" stroke="black" points="468.42,-122 465.42,-126 444.42,-126 441.42,-122 369.58,-122 369.58,-86 468.42,-86 468.42,-122"/>
<text text-anchor="middle" x="419" y="-99.8" font-family="Times,serif" font-size="14.00">SharedModule</text>
</g>
<!-- SharedModule&#45;&gt;MessagesModule -->
<g id="edge3" class="edge">
<title>SharedModule&#45;&gt;MessagesModule</title>
<path fill="none" stroke="black" d="M419,-122.11C419,-141.34 419,-169 419,-169 419,-169 331.28,-169 331.28,-169"/>
<polygon fill="black" stroke="black" points="331.28,-165.5 321.28,-169 331.28,-172.5 331.28,-165.5"/>
</g>
</g>
</svg>
