<svg xmlns="http://www.w3.org/2000/svg" xmlns:xlink="http://www.w3.org/1999/xlink" version="1.1" viewBox="0 0 17.860277885337936 17.440538654034743"><g transform="matrix(1,0,0,1,1.4707425803642806,14.640796073670462)"><g clip-path="url(#SvgjsClipPath1001)"><g clip-path="url(#SvgjsClipPath1000a3cb9a70-24b4-4f60-bac4-c0372c53e695)"><path d=" M 7.513394774457368 -8.042153118161831 L 7.940629443056834 -7.68865438221405 C 7.638095248794776 -7.68214827050949 7.348573277941838 -7.678895214657209 7.070979178547261 -7.677810862706449 L 7.513394774457368 -8.042153118161831 Z" fill="#800000" transform="matrix(1,0,0,1,0,0)" fill-rule="nonzero"/></g><g clip-path="url(#SvgjsClipPath1000a3cb9a70-24b4-4f60-bac4-c0372c53e695)"><path d=" M 11.68814978488362 -7.552026036418281 C 10.781631554048206 -7.4815431596188775 9.896800362227992 -7.430578617933154 9.051005840635142 -7.396963707459592 L 9.425107263647362 -7.087923401492973 L 10.176563165524088 -6.465505381756696 L 10.647171912153958 -6.076223031433832 L 9.890294250523432 -6.076223031433832 L 9.419685503893563 -6.465505381756696 L 8.7018445124904 -7.059730250773213 L 7.940629443056834 -7.68865438221405 L 7.513394774457368 -8.042153118161831 L 7.070979178547261 -7.677810862706449 L 6.283739662295455 -7.029368396151931 L 5.598429229415093 -6.465505381756696 L 5.125651778883705 -6.076223031433832 L 4.3492557821394975 -6.076223031433832 L 4.822033232670886 -6.465505381756696 L 5.5181871850588475 -7.039127563708771 L 5.5181871850588475 -7.36877055673983 L 5.509512369452768 -7.36877055673983 C 4.676730071269038 -7.392626299656552 3.913346297933951 -7.438169081588475 3.23779503261043 -7.502145846683318 C 3.23779503261043 -7.459856120603676 3.2367106806596704 -7.417566394524033 3.2367106806596704 -7.37527666844439 C 3.2367106806596704 -7.309131199448027 3.23779503261043 -7.2440700824024225 3.24104808846271 -7.179008965356818 C 3.251891607970311 -6.935029776435804 3.2844221664931132 -6.696472347268589 3.335386708178836 -6.465505381756696 C 3.336471060129596 -6.456830566150615 3.3386397640311163 -6.449240102495295 3.3408084679326366 -6.441649638839975 C 3.367917266701638 -6.316949164502566 3.4015321771752003 -6.194417394066679 3.440568847402562 -6.074054327532313 C 3.5891250646566917 -5.612120396508524 3.8168389743163056 -5.1859700798598185 4.1041922412677225 -4.809699952946076 L 4.109614001021523 -4.803193841241516 C 4.176843821968648 -4.71536133322995 4.246242346817292 -4.631866233021427 4.319978279468976 -4.550539836714421 L 7.20110141263847 -1.0838666501344925 C 7.3377297584342385 -0.9201295055697205 7.590383762961333 -0.9201295055697205 7.727012108757102 -1.0838666501344925 L 10.639581448498639 -4.587407803040264 C 10.687292934332081 -4.641625400578267 10.732835716264004 -4.69692735006703 10.777294146245167 -4.753313651506554 L 10.82392128012785 -4.809699952946076 L 10.82175257622633 -4.809699952946076 C 11.025610742969222 -5.076450532833052 11.201275758992352 -5.367056855636751 11.337904104788121 -5.6793502174556485 C 11.448508003765648 -5.929835518081225 11.534171807875694 -6.19224869016516 11.593811165167498 -6.465505381756696 C 11.649113114656261 -6.711653274579231 11.681643673179064 -6.967560334958606 11.690318488785143 -7.227804803141023 C 11.690318488785143 -7.276600640925225 11.692487192686663 -7.326480830660188 11.692487192686663 -7.375276668444391 C 11.692487192686663 -7.434916025736194 11.691402840735902 -7.493471031077239 11.688149784883622 -7.552026036418282 Z M 7.6077333941734935 -6.736593369446712 L 8.127137978587566 -6.736593369446712 L 8.127137978587566 -6.195501746017441 L 7.6077333941734935 -6.195501746017441 L 7.6077333941734935 -6.736593369446713 Z M 8.136897146144406 -5.973209596111626 L 8.136897146144406 -5.432117972682354 L 7.617492561730335 -5.432117972682354 L 7.617492561730335 -5.973209596111626 L 8.136897146144406 -5.973209596111626 Z M 6.848687028641447 -6.7365933694467115 L 7.368091613055519 -6.7365933694467115 L 7.368091613055519 -6.195501746017438 L 6.848687028641447 -6.195501746017438 L 6.848687028641447 -6.7365933694467115 Z M 7.37893513256312 -5.973209596111626 L 7.37893513256312 -5.432117972682354 L 6.8584461961982885 -5.432117972682354 L 6.8584461961982885 -5.973209596111626 L 7.37893513256312 -5.973209596111626 Z M 9.817642669822508 -5.183801375958298 L 9.340527811488077 -5.183801375958298 C 9.318840772472877 -5.101390627700532 9.297153733457675 -5.023317287245808 9.274382342491714 -4.936569131185003 C 9.281972806147035 -4.932231723381962 9.288478917851595 -4.927894315578923 9.296069381506914 -4.923556907775881 C 9.426191615598125 -4.847652271222676 9.559566905541612 -4.769578930767953 9.69185784353434 -4.691505590313227 C 9.660411636962298 -4.637287992775224 9.630049782341016 -4.584154747187982 9.601856631621256 -4.5321058535514975 C 9.570410425049213 -4.477888256013495 9.540048570427931 -4.424755010426251 9.509686715806652 -4.371621764839007 C 9.451131710465607 -4.269692681467561 9.391492353173803 -4.168847950046876 9.330768643931238 -4.06475016277391 C 9.18980289033243 -4.146076559080916 9.0520901925859 -4.226318603437159 8.914377494839373 -4.305476295842643 C 8.854738137547569 -4.244752586600081 8.797267484157285 -4.1851132293082784 8.734375071013204 -4.120052112262675 C 8.754977758077644 -4.085352849838351 8.774496093191324 -4.049569235463268 8.795098780255767 -4.0137856210881875 C 8.85256943364605 -3.91402524161826 8.912208790937854 -3.8110118062960545 8.972932500180416 -3.7058296670723276 C 8.937148885805335 -3.6852269800078865 8.902449623381013 -3.6657086448942042 8.867750360956691 -3.645105957829763 C 8.693169696884322 -3.544261226409077 8.52075773671347 -3.4445008469391514 8.345092720690339 -3.3425717635677046 C 8.264850676334095 -3.481368813264993 8.18460863197785 -3.6201658629622813 8.103282235670846 -3.761131616561089 C 8.024124543265362 -3.740528929496648 7.947135554761396 -3.7210105943829657 7.86472480650363 -3.6993235553677675 C 7.852796935045269 -3.637515494174444 7.857134342848309 -3.5735387290795995 7.858218694799071 -3.508477612033994 C 7.85930304674983 -3.4943810366741133 7.85930304674983 -3.4792001093634735 7.85930304674983 -3.4651035340035925 C 7.857134342848309 -3.3848614896473475 7.858218694799071 -3.3046194452911024 7.858218694799071 -3.225461752885618 C 7.852796935045269 -3.2243774009348574 7.844122119439189 -3.222208697033338 7.8311098960300685 -3.2211243450825773 C 7.703156365840381 -3.208112121673455 7.220619747752151 -3.2059434177719357 7.128449831937545 -3.2200399931318167 L 7.128449831937545 -3.696070499515484 C 7.051460843433581 -3.716673186579925 6.973387502978857 -3.737275873644366 6.885554994967291 -3.7600472646103285 C 6.797722486955725 -3.6277563266176003 6.72723961015632 -3.481368813264993 6.637238398243235 -3.344740467469226 C 6.449645510761744 -3.453175662545231 6.265305679132533 -3.5594421537197167 6.075544087749522 -3.6678773487957237 C 6.05385704873432 -3.680889572204846 6.032170009719119 -3.6928174436632055 6.010482970703918 -3.705829667072326 C 6.0625318643404 -3.796915230936172 6.115665109927644 -3.8880007948000177 6.166629651613366 -3.9758333028115818 C 6.194822802333128 -4.024629140595785 6.2219316011021295 -4.072340626429227 6.249040399871132 -4.118967760311909 C 6.187232338677807 -4.178607117603713 6.129761685287525 -4.233909067092478 6.061447512389641 -4.298970184138081 C 5.937831390002993 -4.227402955387916 5.797949988354945 -4.147160911031671 5.652646826953095 -4.064750162773906 C 5.558308207236969 -4.2295716592894355 5.463969587520845 -4.392224451903447 5.368546615853958 -4.557045948418976 C 5.342522169035717 -4.602588730350899 5.316497722217475 -4.647047160332061 5.290473275399233 -4.692589942263984 C 5.410836341933601 -4.761988467112628 5.524693296763408 -4.828133936108992 5.6407189554947355 -4.896448109006876 C 5.663490346460696 -4.909460332415998 5.685177385475898 -4.922472555825118 5.707948776441858 -4.935484779234239 C 5.687346089377417 -5.017895527492005 5.666743402312976 -5.0959688679467305 5.643972011347014 -5.183801375958295 C 5.4867409784868055 -5.187054431810575 5.328425593675835 -5.188138783761335 5.164688449111065 -5.183801375958295 L 5.164688449111065 -5.529709648250756 C 5.216737342747548 -5.543806223610636 6.173135763317926 -5.549227983364437 6.311932813015214 -5.535131408004556 C 6.3271137403258555 -5.155608225238533 6.4778386614815044 -4.838977455616593 6.783625911595842 -4.605841786203177 C 7.014592877107737 -4.429092418229288 7.282427808945473 -4.348850373873043 7.571949779798412 -4.369453060937484 C 8.06858297324652 -4.405236675312565 8.524010792565749 -4.7543980034573075 8.641120803247835 -5.295489626886579 C 8.644373859100115 -5.3085018502957 8.647626914952397 -5.32151407370482 8.649795618853915 -5.334526297113941 C 8.660639138361518 -5.397418710258025 8.668229602016837 -5.462479827303629 8.670398305918358 -5.529709648250752 C 8.72461590345636 -5.543806223610632 9.69511089938662 -5.5492279833644345 9.817642669822506 -5.534047056053793 L 9.817642669822506 -5.183801375958292 Z" fill="#525252" transform="matrix(1,0,0,1,0,0)" fill-rule="nonzero"/></g><g clip-path="url(#SvgjsClipPath1000a3cb9a70-24b4-4f60-bac4-c0372c53e695)"><path d=" M 12.782260903200527 -8.227577301741803 L 12.782260903200527 -7.970585889411668 C 12.398400312631463 -7.935886626987346 12.025383241570001 -7.904440420415304 11.66320969001614 -7.876247269695542 C 10.569098571699234 -7.791667817536257 9.573663480901494 -7.738534571949013 8.67365136177064 -7.709257069278491 L 7.5058043108020485 -8.67541465740571 L 6.296751885704576 -7.679979566607971 C 6.216509841348331 -7.679979566607971 6.137352148942846 -7.68106391855873 6.059278808488122 -7.683232622460251 L 6.059278808488122 -8.268782675870685 L 5.518187185058849 -8.268782675870685 L 5.518187185058849 -7.694076141967852 C 4.55745135668543 -7.721184940736853 3.8070798067594653 -7.774318186324097 3.260566423576392 -7.8274514319113395 C 2.9200799110377313 -7.859981990434141 2.659835442855316 -7.892512548956944 2.475495611226105 -7.918536995775185 C 2.2553721652218113 -7.948898850396468 2.145852618195045 -7.970585889411669 2.145852618195045 -7.970585889411669 L 2.145852618195045 -8.227577301741803 C 2.145852618195045 -8.66565548984887 2.5015200580443464 -9.021322929698172 2.9395982461514127 -9.021322929698172 C 3.136950301189743 -10.756286050914275 4.310219111912135 -12.194136737622122 5.89771036782487 -12.775349383229518 C 5.972530652427315 -12.802458181998519 6.05602575263584 -12.768843271524958 6.093978070912442 -12.698360394725553 L 6.167714003564126 -12.555225937225224 L 6.692540347731998 -11.532682047658483 L 6.967965743225054 -10.99592783203225 L 6.959290927618974 -11.572803069836604 L 6.939772592505293 -12.868603650994883 C 6.939772592505293 -12.98679801362773 7.016761581009258 -13.090895800900697 7.130618535839065 -13.123426359423497 C 7.22387280360443 -13.1505351581925 7.337729758434238 -13.170053493306181 7.468936344476205 -13.170053493306181 C 7.596889874665893 -13.170053493306181 7.70857812559418 -13.14945080624174 7.799663689458025 -13.123426359423497 C 7.913520644287831 -13.090895800900697 7.989425280841036 -12.98679801362773 7.989425280841036 -12.868603650994883 L 7.989425280841036 -11.025205334702772 L 8.24641669317117 -11.530513343756962 L 8.836304154384647 -12.694022986922512 C 8.873172120710489 -12.766674567623436 8.957751572869775 -12.801373830047758 9.033656209422979 -12.774265031278757 C 10.620063113384955 -12.191968033720602 11.792247572156587 -10.755201698963514 11.989599627194918 -9.02132292969817 C 12.427677815301983 -9.02132292969817 12.782260903200525 -8.665655489848868 12.782260903200525 -8.227577301741803 Z" fill="#ef4444" transform="matrix(1,0,0,1,0,0)" fill-rule="nonzero"/></g><g clip-path="url(#SvgjsClipPath1000a3cb9a70-24b4-4f60-bac4-c0372c53e695)"><path d=" M 12.782260903200527 -8.227577301741803 L 12.782260903200527 -7.970585889411668 C 12.398400312631463 -7.935886626987346 12.025383241570001 -7.904440420415304 11.66320969001614 -7.876247269695542 C 10.569098571699234 -7.791667817536257 9.573663480901494 -7.738534571949013 8.67365136177064 -7.709257069278491 L 7.5058043108020485 -8.67541465740571 L 6.296751885704576 -7.679979566607971 C 6.216509841348331 -7.679979566607971 6.137352148942846 -7.68106391855873 6.059278808488122 -7.683232622460251 L 6.059278808488122 -8.268782675870685 L 5.518187185058849 -8.268782675870685 L 5.518187185058849 -7.694076141967852 C 4.55745135668543 -7.721184940736853 3.8070798067594653 -7.774318186324097 3.260566423576392 -7.8274514319113395 C 2.9200799110377313 -7.859981990434141 2.659835442855316 -7.892512548956944 2.475495611226105 -7.918536995775185 C 2.2553721652218113 -7.948898850396468 2.145852618195045 -7.970585889411669 2.145852618195045 -7.970585889411669 L 2.145852618195045 -8.227577301741803 C 2.145852618195045 -8.66565548984887 2.5015200580443464 -9.021322929698172 2.9395982461514127 -9.021322929698172 C 3.136950301189743 -10.756286050914275 4.310219111912135 -12.194136737622122 5.89771036782487 -12.775349383229518 C 5.972530652427315 -12.802458181998519 6.05602575263584 -12.768843271524958 6.093978070912442 -12.698360394725553 L 6.167714003564126 -12.555225937225224 L 6.692540347731998 -11.532682047658483 L 6.967965743225054 -10.99592783203225 L 6.959290927618974 -11.572803069836604 L 6.939772592505293 -12.868603650994883 C 6.939772592505293 -12.98679801362773 7.016761581009258 -13.090895800900697 7.130618535839065 -13.123426359423497 C 7.22387280360443 -13.1505351581925 7.337729758434238 -13.170053493306181 7.468936344476205 -13.170053493306181 C 7.596889874665893 -13.170053493306181 7.70857812559418 -13.14945080624174 7.799663689458025 -13.123426359423497 C 7.913520644287831 -13.090895800900697 7.989425280841036 -12.98679801362773 7.989425280841036 -12.868603650994883 L 7.989425280841036 -11.025205334702772 L 8.24641669317117 -11.530513343756962 L 8.836304154384647 -12.694022986922512 C 8.873172120710489 -12.766674567623436 8.957751572869775 -12.801373830047758 9.033656209422979 -12.774265031278757 C 10.620063113384955 -12.191968033720602 11.792247572156587 -10.755201698963514 11.989599627194918 -9.02132292969817 C 12.427677815301983 -9.02132292969817 12.782260903200525 -8.665655489848868 12.782260903200525 -8.227577301741803 Z" fill="#ef4444" transform="matrix(1,0,0,1,0,0)" fill-rule="nonzero"/></g><g clip-path="url(#SvgjsClipPath1000a3cb9a70-24b4-4f60-bac4-c0372c53e695)"><path d=" M 5.509512369452766 -7.36877055673983 L 5.5181871850588475 -7.36877055673983 L 5.5181871850588475 -7.043464971511811 C 4.557451356685429 -7.070573770280812 3.8070798067594636 -7.123707015868056 3.2605664235763907 -7.176840261455299 C 3.2540603118718305 -7.176840261455299 3.24755420016727 -7.176840261455299 3.2410480884627093 -7.179008965356819 C 3.2377950326104292 -7.244070082402423 3.2367106806596695 -7.309131199448027 3.2367106806596695 -7.375276668444391 C 3.2367106806596695 -7.417566394524034 3.2377950326104292 -7.459856120603677 3.2377950326104292 -7.502145846683319 C 3.9133462979339506 -7.438169081588475 4.676730071269036 -7.392626299656553 5.509512369452766 -7.368770556739831 Z" fill="#000000" transform="matrix(1,0,0,1,0,0)" fill-rule="nonzero"/></g><g clip-path="url(#SvgjsClipPath1000a3cb9a70-24b4-4f60-bac4-c0372c53e695)"><path d=" M 11.69248719268666 -7.375276668444391 C 11.69248719268666 -7.326480830660188 11.691402840735899 -7.276600640925225 11.69031848878514 -7.227804803141023 C 11.68164367317906 -7.226720451190263 11.671884505622218 -7.226720451190263 11.663209690016139 -7.225636099239503 C 10.86512665425673 -7.163828038046178 10.119092512133806 -7.119369608065016 9.425107263647362 -7.087923401492973 L 9.05100584063514 -7.396963707459592 C 9.89680036222799 -7.430578617933154 10.781631554048204 -7.4815431596188775 11.68814978488362 -7.552026036418281 C 11.6914028407359 -7.493471031077238 11.692487192686661 -7.434916025736194 11.692487192686661 -7.37527666844439 Z" fill="#000000" transform="matrix(1,0,0,1,0,0)" fill-rule="nonzero"/></g><g clip-path="url(#SvgjsClipPath1000a3cb9a70-24b4-4f60-bac4-c0372c53e695)"><path d=" M 9.19956205788927 -0.47879826161037364 C 9.19956205788927 -0.3530134353222074 8.435093932603424 -0.25 7.491707735442167 -0.25 C 6.548321538280909 -0.25 5.782769061044304 -0.3530134353222074 5.782769061044304 -0.47879826161037364 C 5.782769061044304 -0.5210879876900165 5.866264161252829 -0.5601246579173793 6.013736026556198 -0.5937395683909408 C 6.309764109113695 -0.663138093239585 6.86061490009981 -0.7086808751715079 7.491707735442167 -0.7086808751715079 C 8.122800570784525 -0.7086808751715079 8.673651361770638 -0.6620537412888261 8.968595092377377 -0.5937395683909408 C 9.116066957680745 -0.5601246579173793 9.19956205788927 -0.5210879876900165 9.19956205788927 -0.47879826161037364 Z" fill="#ef4444" transform="matrix(1,0,0,1,0,0)" fill-rule="nonzero"/></g><g clip-path="url(#SvgjsClipPath1000a3cb9a70-24b4-4f60-bac4-c0372c53e695)"><path d=" M 8.968595092377376 -0.5937395683909408 C 8.673651361770638 -0.5243410435422966 8.121716218833765 -0.47879826161037364 7.491707735442167 -0.47879826161037364 C 6.8616992520505695 -0.47879826161037364 6.309764109113695 -0.5254253954930572 6.013736026556197 -0.5937395683909408 C 6.3097641091136945 -0.663138093239585 6.860614900099808 -0.7086808751715079 7.491707735442167 -0.7086808751715079 C 8.122800570784523 -0.7086808751715079 8.673651361770638 -0.6620537412888261 8.968595092377376 -0.5937395683909408 Z" fill="#bf0000" transform="matrix(1,0,0,1,0,0)" fill-rule="nonzero"/></g><g clip-path="url(#SvgjsClipPath1000a3cb9a70-24b4-4f60-bac4-c0372c53e695)"><path d=" M 5.707948776441858 -4.935484779234244 C 5.685177385475898 -4.922472555825122 5.663490346460696 -4.909460332416003 5.6407189554947355 -4.896448109006881 C 5.633128491839415 -4.925725611677402 5.625538028184094 -4.956087466298685 5.617947564528773 -4.987533672870727 C 5.459632179717804 -4.990786728723007 5.301316794906834 -4.99187108067377 5.137579650342064 -4.987533672870727 L 5.137579650342064 -5.333441945163188 C 5.137579650342064 -5.333441945163188 5.1505918737511855 -5.335610649064708 5.1646884491110665 -5.336695001015468 L 5.1646884491110665 -5.183801375958299 C 5.328425593675836 -5.188138783761341 5.4867409784868055 -5.18705443181058 5.6439720113470155 -5.183801375958299 C 5.666743402312976 -5.095968867946734 5.687346089377417 -5.01789552749201 5.707948776441859 -4.935484779234244 Z" fill="#000000" transform="matrix(1,0,0,1,0,0)" fill-rule="nonzero"/></g><g clip-path="url(#SvgjsClipPath1000a3cb9a70-24b4-4f60-bac4-c0372c53e695)"><path d=" M 6.249040399871132 -4.118967760311914 C 6.2219316011021295 -4.072340626429231 6.194822802333128 -4.024629140595788 6.166629651613366 -3.9758333028115853 C 6.124339925533724 -4.017038676940469 6.082050199454081 -4.057159699118591 6.034338713620639 -4.102702481050514 C 5.911806943184752 -4.032219604251109 5.770841189585942 -3.9508932079441053 5.6266223801348545 -3.8684824596863407 C 5.505174961649727 -4.077762386183034 5.38589624706612 -4.284873608778206 5.263364476630232 -4.49632223917642 C 5.299148091005314 -4.516924926240861 5.333847353429636 -4.537527613305302 5.368546615853958 -4.557045948418983 C 5.463969587520845 -4.392224451903454 5.55830820723697 -4.229571659289444 5.652646826953095 -4.064750162773912 C 5.797949988354945 -4.147160911031678 5.937831390002993 -4.227402955387921 6.061447512389641 -4.298970184138087 C 6.129761685287525 -4.233909067092483 6.187232338677807 -4.178607117603718 6.249040399871132 -4.118967760311916 Z" fill="#000000" transform="matrix(1,0,0,1,0,0)" fill-rule="nonzero"/></g><g clip-path="url(#SvgjsClipPath1000a3cb9a70-24b4-4f60-bac4-c0372c53e695)"><path d=" M 7.832194247980827 -3.0291940497980487 C 7.7758079465413035 -3.0118444185858895 7.202185764589228 -3.0085913627336076 7.101341033168543 -3.023772290044249 L 7.101341033168543 -3.499802796427918 C 7.025436396615338 -3.5204054834923593 6.9462787042098535 -3.5410081705567986 6.858446196198288 -3.5648639134735216 C 6.770613688186722 -3.431488623530033 6.700130811387319 -3.2851011101774237 6.6101295994742335 -3.1484727643816566 C 6.4019340249283 -3.2688358309160215 6.195907154283888 -3.3870301935488705 5.983374171934915 -3.5095619639847566 C 6.014820378506957 -3.5626952095719986 6.045182233128239 -3.615828455159244 6.07554408774952 -3.6678773487957255 C 6.265305679132532 -3.5594421537197185 6.449645510761743 -3.453175662545231 6.637238398243235 -3.3447404674692276 C 6.72723961015632 -3.4813688132649947 6.797722486955724 -3.627756326617602 6.88555499496729 -3.7600472646103302 C 6.973387502978856 -3.7372758736443696 7.05146084343358 -3.7166731865799267 7.128449831937545 -3.6960704995154856 L 7.128449831937545 -3.2200399931318184 C 7.22061974775215 -3.2059434177719375 7.703156365840378 -3.208112121673457 7.831109896030067 -3.221124345082579 C 7.831109896030067 -3.1571475799877344 7.832194247980826 -3.09317081489289 7.832194247980826 -3.029194049798047 Z" fill="#000000" transform="matrix(1,0,0,1,0,0)" fill-rule="nonzero"/></g><g clip-path="url(#SvgjsClipPath1000a3cb9a70-24b4-4f60-bac4-c0372c53e695)"><path d=" M 8.649795618853917 -5.334526297113947 C 8.647626914952397 -5.321514073704826 8.644373859100117 -5.3085018502957055 8.641120803247837 -5.295489626886584 C 8.642205155198596 -5.3085018502957055 8.643289507149357 -5.320429721754067 8.643289507149357 -5.3334419451631865 C 8.644373859100117 -5.3334419451631865 8.646542563001638 -5.3334419451631865 8.649795618853918 -5.3334419451631865 Z" fill="#000000" transform="matrix(1,0,0,1,0,0)" fill-rule="nonzero"/></g><g clip-path="url(#SvgjsClipPath1000a3cb9a70-24b4-4f60-bac4-c0372c53e695)"><path d=" M 8.945823701411413 -3.5095619639847566 C 8.735459422963963 -3.3881145454996293 8.529432552319548 -3.2688358309160215 8.317983921921336 -3.146304060480137 C 8.237741877565092 -3.2851011101774237 8.157499833208847 -3.423898159874712 8.076173436901842 -3.5648639134735216 C 8.003521856200917 -3.5464299303106 7.9330389794015135 -3.5279959471476783 7.85821869479907 -3.5084776120339978 C 7.857134342848309 -3.5735387290796012 7.852796935045269 -3.637515494174446 7.86472480650363 -3.699323555367771 C 7.947135554761395 -3.7210105943829728 8.024124543265359 -3.7405289294966533 8.103282235670845 -3.7611316165610926 C 8.184608631977849 -3.620165862962285 8.264850676334095 -3.4813688132649965 8.345092720690339 -3.342571763567708 C 8.520757736713469 -3.444500846939153 8.69316969688432 -3.5442612264090805 8.867750360956691 -3.6451059578297667 C 8.893774807774932 -3.6006475278486043 8.919799254593173 -3.5551047459166814 8.945823701411415 -3.5095619639847584 Z" fill="#000000" transform="matrix(1,0,0,1,0,0)" fill-rule="nonzero"/></g><g clip-path="url(#SvgjsClipPath1000a3cb9a70-24b4-4f60-bac4-c0372c53e695)"><path d=" M 9.664749044765339 -4.495237887225658 C 9.601856631621256 -4.383549636297369 9.542217274329452 -4.2794518490244045 9.482577917037647 -4.175354061751436 C 9.424022911696603 -4.07342497837999 9.3643835544048 -3.9725802469593052 9.303659845162237 -3.868482459686339 C 9.162694091563427 -3.9498088559933446 9.024981393816898 -4.03005090034959 8.88726869607037 -4.109208592755072 C 8.855822489498328 -4.077762386183032 8.825460634877047 -4.04631617961099 8.795098780255763 -4.013785621088189 C 8.774496093191324 -4.04956923546327 8.754977758077642 -4.085352849838351 8.7343750710132 -4.120052112262675 C 8.797267484157285 -4.1851132293082784 8.854738137547567 -4.244752586600082 8.914377494839371 -4.305476295842645 C 9.052090192585899 -4.226318603437159 9.189802890332427 -4.146076559080916 9.330768643931236 -4.06475016277391 C 9.391492353173799 -4.168847950046876 9.451131710465603 -4.269692681467562 9.509686715806646 -4.371621764839009 C 9.540048570427928 -4.424755010426251 9.57041042504921 -4.477888256013497 9.601856631621253 -4.532105853551499 C 9.622459318685692 -4.52017798209314 9.644146357700894 -4.5071657586840175 9.664749044765335 -4.495237887225658 Z" fill="#000000" transform="matrix(1,0,0,1,0,0)" fill-rule="nonzero"/></g><g clip-path="url(#SvgjsClipPath1000a3cb9a70-24b4-4f60-bac4-c0372c53e695)"><path d=" M 9.791618223004264 -5.183801375958298 L 9.791618223004264 -4.987533672870725 L 9.313419012719077 -4.987533672870725 C 9.307997252965276 -4.965846633855524 9.301491141260716 -4.944159594840322 9.296069381506914 -4.923556907775881 C 9.288478917851595 -4.927894315578923 9.281972806147035 -4.932231723381962 9.274382342491714 -4.936569131185003 C 9.297153733457675 -5.023317287245808 9.318840772472877 -5.101390627700532 9.340527811488077 -5.183801375958298 L 9.791618223004264 -5.183801375958298 Z" fill="#000000" transform="matrix(1,0,0,1,0,0)" fill-rule="nonzero"/></g><g clip-path="url(#SvgjsClipPath1000a3cb9a70-24b4-4f60-bac4-c0372c53e695)"><path d=" M 5.691683497180458 -8.777343740777155 C 5.498668849945166 -8.764331517368035 3.4611715344670033 -8.634209283276828 2.7617645262267607 -8.723126143239153 C 2.0276582555621965 -8.815296059053757 2.2998305952029727 -7.946730146494946 2.2998305952029727 -7.946730146494946 C 2.0797071491986796 -7.977092001116227 2.1458526181950437 -7.970585889411667 2.1458526181950437 -7.970585889411667 L 2.1458526181950437 -8.227577301741803 C 2.1458526181950437 -8.665655489848868 2.501520058044345 -9.021322929698169 2.9395982461514114 -9.021322929698169 C 3.136950301189743 -10.756286050914275 4.310219111912135 -12.194136737622122 5.89771036782487 -12.775349383229518 C 5.972530652427315 -12.802458181998519 6.05602575263584 -12.768843271524958 6.093978070912442 -12.698360394725553 L 6.167714003564126 -12.555225937225224 C 6.167714003564126 -12.555225937225224 4.490221535738305 -11.853650225083461 4.022865844960717 -9.755429200362734 C 3.9296115771953515 -9.33795369932011 4.216964844146768 -8.932406069735844 4.6398621049431945 -8.86951365659176 C 5.008541768201617 -8.814211707102999 5.432523380948802 -8.764331517368035 5.691683497180458 -8.778428092727914 Z" fill="#bf0000" transform="matrix(1,0,0,1,0,0)" fill-rule="nonzero"/></g><g clip-path="url(#SvgjsClipPath1000a3cb9a70-24b4-4f60-bac4-c0372c53e695)"><path d=" M 5.125651778883704 -6.076223031433832 L 5.285051515645433 -6.076223031433832 L 7.5058043108020485 -7.901187364563022 L 9.738484977417022 -6.076223031433832 L 9.890294250523432 -6.076223031433832 L 7.513394774457368 -8.042153118161831 L 5.125651778883704 -6.076223031433832 Z" fill="#000000" transform="matrix(1,0,0,1,0,0)" fill-rule="nonzero"/></g></g><g/></g><defs><clipPath id="SvgjsClipPath1001"><path d=" M 2.1365318214088482 -13.170053493306181 h 10.645729081791679 v 12.920053493306181 h -10.645729081791679 Z"/></clipPath><clipPath id="SvgjsClipPath1000a3cb9a70-24b4-4f60-bac4-c0372c53e695"><path d=" M 2.1365318214088482 -13.170053493306181 L 12.782260903200527 -13.170053493306181 L 12.782260903200527 -0.25 L 2.1365318214088482 -0.25 Z"/></clipPath></defs></svg>