<svg xmlns="http://www.w3.org/2000/svg" xmlns:xlink="http://www.w3.org/1999/xlink" width="500" zoomAndPan="magnify" viewBox="0 0 64 64" height="500" preserveAspectRatio="xMidYMid meet" version="1.0"><defs><g/><clipPath id="040636b8b0"><path d="M 80.316406 1 L 145 1 L 145 106 L 80.316406 106 Z M 80.316406 1 " clip-rule="nonzero"/></clipPath><clipPath id="f145b1a109"><path d="M 119 31 L 190.214844 31 L 190.214844 113 L 119 113 Z M 119 31 " clip-rule="nonzero"/></clipPath><clipPath id="58048b4115"><path d="M 107 0.125 L 180 0.125 L 180 112 L 107 112 Z M 107 0.125 " clip-rule="nonzero"/></clipPath></defs><g clip-path="url(#040636b8b0)"><path fill="#ef8414" d="M 107.175781 105.238281 L 117.960938 86.320312 C 113.945312 83.941406 110.359375 80.6875 107.503906 76.617188 C 96.75 61.285156 100.460938 40.136719 115.796875 29.382812 C 123.5625 23.9375 132.816406 22.207031 141.460938 23.808594 C 142.023438 22.449219 142.238281 20.953125 142.074219 19.449219 C 141.570312 14.878906 142.601562 10.367188 144.992188 6.519531 L 143.828125 2.140625 C 138.792969 1.355469 133.65625 1.25 128.554688 1.863281 L 126.296875 9.335938 C 122.761719 9.996094 119.273438 11.042969 115.890625 12.515625 L 109.855469 7.605469 C 107.609375 8.761719 105.414062 10.066406 103.292969 11.554688 C 101.171875 13.042969 99.195312 14.664062 97.347656 16.378906 L 99.902344 23.726562 C 97.367188 26.402344 95.195312 29.328125 93.371094 32.425781 L 85.574219 32.003906 C 83.257812 36.589844 81.609375 41.457031 80.632812 46.457031 L 87.023438 50.902344 C 86.558594 54.496094 86.5 58.140625 86.84375 61.773438 L 80.28125 66.015625 C 81.082031 70.992188 82.578125 75.902344 84.773438 80.613281 L 92.570312 80.449219 C 93.433594 82.027344 94.382812 83.574219 95.4375 85.078125 C 96.492188 86.585938 97.625 88.003906 98.8125 89.351562 L 96.003906 96.625 C 99.398438 100.007812 103.15625 102.890625 107.175781 105.238281 " fill-opacity="1" fill-rule="nonzero"/></g><g clip-path="url(#f145b1a109)"><path fill="#ef4444" d="M 183.6875 52.523438 L 190.25 48.277344 C 189.449219 43.300781 187.953125 38.394531 185.757812 33.679688 L 177.960938 33.84375 C 177.554688 33.101562 177.128906 32.367188 176.683594 31.636719 C 173.351562 34.976562 169.007812 37.03125 164.234375 37.488281 C 163.832031 37.523438 163.433594 37.597656 163.042969 37.695312 C 173.777344 53.027344 170.0625 74.160156 154.734375 84.910156 C 147.84375 89.742188 139.777344 91.652344 132.011719 90.898438 L 119.839844 103.273438 C 121.4375 103.808594 123.058594 104.265625 124.703125 104.628906 L 126.703125 112.15625 C 131.738281 112.941406 136.875 113.046875 141.976562 112.429688 L 144.234375 104.957031 C 147.769531 104.296875 151.261719 103.25 154.640625 101.777344 L 160.679688 106.6875 C 162.921875 105.535156 165.117188 104.230469 167.238281 102.738281 C 169.363281 101.25 171.335938 99.632812 173.1875 97.917969 L 170.628906 90.566406 C 173.164062 87.890625 175.335938 84.964844 177.160156 81.867188 L 184.957031 82.289062 C 187.273438 77.703125 188.921875 72.835938 189.902344 67.835938 L 183.507812 63.390625 C 183.972656 59.800781 184.03125 56.152344 183.6875 52.523438 " fill-opacity="1" fill-rule="nonzero"/></g><g clip-path="url(#58048b4115)"><path fill="#545454" d="M 178.980469 13.460938 L 168.511719 26.53125 L 156.34375 24.667969 L 151.871094 13.203125 L 162.339844 0.132812 C 157.320312 0.125 152.34375 2.320312 148.964844 6.539062 C 146.015625 10.222656 144.835938 14.75 145.3125 19.09375 C 145.640625 22.070312 144.867188 25.0625 143.109375 27.492188 L 116.171875 64.761719 L 131.269531 69.566406 L 107.597656 111.074219 L 155.890625 61.972656 L 142.300781 55.78125 L 155.789062 38.738281 C 157.789062 36.210938 160.71875 34.546875 163.925781 34.242188 C 168.367188 33.820312 172.640625 31.667969 175.648438 27.914062 C 179.03125 23.691406 180.082031 18.355469 178.980469 13.460938 " fill-opacity="1" fill-rule="nonzero"/></g></svg>